{
.appVersion = "1342";
DisplayStrings = (
"áàâäã/abreve/abreveacute/abrevedotbelow/abrevegrave/abrevehookabove/abrevetilde/acircumflexacute/acircumflexdotbelow/acircumflexgrave/acircumflexhookabove/acircumflextilde/adotbelow/ahookabove/amacron/aogonek",
"murcielagpqfobocnt/space/space dHO",
"HOBJ/Eng QRVæðøeo/oe þbpnvy/Be-cy/U-cy T/Dje-cy/Yusbig-cy/be-cy/ve-cy/ef-cy/dje-cy 125²¼¾?¤£/approxequal ~/radical/partialdiff @§/ampersand.salt/tildecomb"
);
copyright = "Copyright 2015 The Alumni Sans Project Authors (https://github.com/googlefonts/alumni)";
customParameters = (
{
name = licenseURL;
value = "https://scripts.sil.org/OFL";
},
{
name = license;
value = "This Font Software is licensed under the SIL Open Font License, Version 1.1. This license is available with a FAQ at: https://scripts.sil.org/OFL";
},
{
name = vendorID;
value = GOOG;
},
{
name = fsType;
value = (
);
},
{
name = glyphOrder;
value = (
.notdef,
NULL,
CR,
space,
nbspace
);
},
{
name = Axes;
value = (
{
Name = Weight;
Tag = wght;
}
);
},
{
name = "Use Typo Metrics";
value = 1;
},
{
name = "Enforce Compatibility Check";
value = 1;
}
);
date = "2021-04-04 23:47:48 +0000";
designer = "Robert E. Leuschke";
designerURL = www.typesetit.com;
familyName = "Alumni Sans";
featurePrefixes = (
{
automatic = 1;
code = "languagesystem DFLT dflt;\012\012languagesystem latn dflt;\012languagesystem latn ROM;\012languagesystem latn MOL;\012languagesystem latn KAZ;\012languagesystem latn TAT;\012languagesystem latn TRK;\012languagesystem latn CRT;\012languagesystem latn AZE;\012\012languagesystem cyrl dflt;\012languagesystem cyrl BGR;\012";
name = Languagesystems;
}
);
features = (
{
automatic = 1;
code = "feature locl;\012feature sups;\012feature frac;\012feature ordn;\012feature pnum;\012feature tnum;\012feature salt;\012feature c2sc;\012";
name = aalt;
},
{
automatic = 1;

glyphs = (
{
glyphname = .notdef;
lastChange = "2021-05-18 00:21:04 +0000";
layers = (
{
background = {
paths = (
{
closed = 1;
nodes = (
"58 0 LINE",
"378 0 LINE",
"387 8 LINE",
"387 621 LINE",
"378 630 LINE",
"58 630 LINE",
"50 620 LINE",
"50 9 LINE"
);
},
{
closed = 1;
nodes = (
"67 613 LINE",
"370 613 LINE",
"370 16 LINE",
"67 16 LINE"
);
},
{
closed = 1;
nodes = (
"66 9 LINE",
"387 621 LINE",
"372 621 LINE",
"50 9 LINE"
);
},
{
closed = 1;
nodes = (
"65 621 LINE",
"50 621 LINE",
"371 9 LINE",
"387 9 LINE"
);
}
);
};
hints = (
{
horizontal = 1;
place = "{9.438, 611.679}";
type = Stem;
},
{
place = "{43.802, 325.265}";
type = Stem;
},
{
horizontal = 1;
place = "{9.438, 611.68}";
type = Stem;
},
{
place = "{381.198, 325.265}";
type = Stem;
}
);
layerId = "82B1C968-1149-4E0D-B361-F2F5D539D913";
paths = (
{
closed = 1;
nodes = (
"378 0 LINE",
"387 8 LINE",
"387 621 LINE",
"378 630 LINE",
"58 630 LINE",
"50 620 LINE",
"50 9 LINE",
"58 0 LINE"
);
},
{
closed = 1;
nodes = (
"66 9 LINE",
"387 621 LINE",
"372 621 LINE",
"50 9 LINE"
);
},
{
closed = 1;
nodes = (
"387 9 LINE",
"65 621 LINE",
"50 621 LINE",
"371 9 LINE"
);
},
{
closed = 1;
nodes = (
"67 613 LINE",
"370 613 LINE",
"370 16 LINE",
"67 16 LINE"
);
}
);
width = 437;
},
{
background = {
paths = (
{
closed = 1;
nodes = (
"58 0 LINE",
"378 0 LINE",
"387 8 LINE",
"387 621 LINE",
"378 630 LINE",
"58 630 LINE",
"50 620 LINE",
"50 9 LINE"
);
},
{
closed = 1;
nodes = (
"124 541 LINE",
"313 541 LINE",
"313 88 LINE",
"124 88 LINE"
);
},
{
closed = 1;
nodes = (
"86 9 LINE",
"387 621 LINE",
"351 621 LINE",
"50 9 LINE"
);
},
{
closed = 1;
nodes = (
"86 621 LINE",
"50 621 LINE",
"351 9 LINE",
"387 9 LINE"
);
}
);
};
layerId = "8A3706BD-364F-4FE3-9C2E-7E87DF0DB4CC";
paths = (
{
closed = 1;
nodes = (
"378 0 LINE",
"387 8 LINE",
"387 621 LINE",
"378 630 LINE",
"58 630 LINE",
"50 620 LINE",
"50 9 LINE",
"58 0 LINE"
);
},
{
closed = 1;
nodes = (
"86 9 LINE",
"387 621 LINE",
"351 621 LINE",
"50 9 LINE"
);
},
{
closed = 1;
nodes = (
"387 9 LINE",
"86 621 LINE",
"50 621 LINE",
"351 9 LINE"
);
},
{
closed = 1;
nodes = (
"124 541 LINE",
"313 541 LINE",
"313 88 LINE",
"124 88 LINE"
);
}
);
width = 437;
}
);
},
{
glyphname = A;
lastChange = "2021-05-18 00:20:56 +0000";
layers = (
{
background = {
paths = (
{
closed = 1;
nodes = (
"38 0 LINE",
"79 160 LINE",
"273 160 LINE",
"315 0 LINE",
"334 0 LINE",
"184 591 LINE",
"171 591 LINE",
"20 0 LINE"
);
},
{
closed = 1;
nodes = (
"177 536 LINE",
"270 175 LINE",
"82 175 LINE"
);
}
);
};
layerId = "82B1C968-1149-4E0D-B361-F2F5D539D913";
paths = (
{
closed = 1;
nodes = (
"38 0 LINE",
"79 160 LINE",
"273 160 LINE",
"315 0 LINE",
"334 0 LINE",
"184 591 LINE",
"171 591 LINE",
"20 0 LINE"
);
},
{
closed = 1;
nodes = (
"177 536 LINE",
"270 175 LINE",
"82 175 LINE"
);
}
);
width = 354;
},
{
background = {
paths = (
{
closed = 1;
nodes = (
"178 0 LINE",
"184 86 LINE",
"221 86 LINE",
"229 0 LINE",
"408 0 LINE",
"325 591 LINE",
"90 591 LINE",
"5 0 LINE"
);
},
{
closed = 1;
nodes = (
"203 466 LINE",
"221 163 LINE",
"185 163 LINE"
);
}
);
};
layerId = "8A3706BD-364F-4FE3-9C2E-7E87DF0DB4CC";
paths = (
{
closed = 1;
nodes = (
"178 0 LINE",
"184 86 LINE",
"221 86 LINE",
"229 0 LINE",
"408 0 LINE",
"325 591 LINE",
"90 591 LINE",
"5 0 LINE"
);
},
{
closed = 1;
nodes = (
"203 466 LINE",
"221 163 LINE",
"185 163 LINE"
);
}
);
width = 413;
}
);
unicode = 0041;
},
{
glyphname = AE;
lastChange = "2021-05-18 00:21:04 +0000";
layers = (
{
background = {
paths = (
{
closed = 1;
nodes = (
"33 0 LINE",
"93 160 LINE",
"238 160 LINE",
"241 0 LINE",
"484 0 LINE",
"484 16 LINE",
"260 16 LINE",
"257 304 LINE",
"447 304 LINE",
"447 320 LINE",
"257 320 LINE",
"254 575 LINE",
"474 575 LINE",
"474 591 LINE",
"237 591 LINE",
"15 0 LINE"
);
},
{
closed = 1;
nodes = (
"98 175 LINE",
"235 529 LINE",
"237 536 LINE",
"237 526 LINE",
"239 175 LINE"
);
}
);
};
layerId = "82B1C968-1149-4E0D-B361-F2F5D539D913";
paths = (
{
closed = 1;
nodes = (
"33 0 LINE",
"93 160 LINE",
"238 160 LINE",
"241 0 LINE",
"484 0 LINE",
"484 16 LINE",
"260 16 LINE",
"257 304 LINE",
"447 304 LINE",
"447 320 LINE",
"257 320 LINE",
"254 575 LINE",
"474 575 LINE",
"474 591 LINE",
"237 591 LINE",
"15 0 LINE"
);
},
{
closed = 1;
nodes = (
"235 529 LINE",
"237 536 LINE",
"237 526 LINE",
"239 175 LINE",
"98 175 LINE"
);
}
);
width = 524;
},
{
background = {
paths = (
{
closed = 1;
nodes = (
"178 0 LINE",
"194 86 LINE",
"231 86 LINE",
"229 0 LINE",
"560 0 LINE",
"560 108 LINE",
"405 108 LINE",
"403 240 LINE",
"535 240 LINE",
"535 365 LINE",
"401 365 LINE",
"399 480 LINE",
"548 480 LINE",
"548 591 LINE",
"162 591 LINE",
"5 0 LINE"
);
},
{
closed = 1;
nodes = (
"205 163 LINE",
"255 441 LINE",
"260 466 LINE",
"258 441 LINE",
"241 163 LINE"
);
}
);
};
layerId = "8A3706BD-364F-4FE3-9C2E-7E87DF0DB4CC";
paths = (
{
closed = 1;
nodes = (
"178 0 LINE",
"194 86 LINE",
"231 86 LINE",
"229 0 LINE",
"560 0 LINE",
"560 108 LINE",
"405 108 LINE",
"403 240 LINE",
"535 240 LINE",
"535 365 LINE",
"401 365 LINE",
"399 480 LINE",
"548 480 LINE",
"548 591 LINE",
"162 591 LINE",
"5 0 LINE"
);
},
{
closed = 1;
nodes = (
"255 441 LINE",
"260 466 LINE",
"258 441 LINE",
"241 163 LINE",
"205 163 LINE"
);
}
);
width = 580;
}
);
unicode = 00C6;
},
{
color = 4;
glyphname = B;
lastChange = "2021-05-18 01:23:49 +0000";
layers = (
{
background = {
paths = (
{
closed = 1;
nodes = (
"232 0 LINE",
"303 0 OFFCURVE",
"353 16 OFFCURVE",
"353 120 CURVE",
"353 209 LINE",
"353 267 OFFCURVE",
"321 307 OFFCURVE",
"290 310 CURVE",
"290 310 OFFCURVE",
"279 312 OFFCURVE",
"267 313 CURVE",
"278 314 OFFCURVE",
"289 318 OFFCURVE",
"292 319 CURVE",
"321 327 OFFCURVE",
"348 363 OFFCURVE",
"348 419 CURVE",
"348 494 LINE",
"348 566 OFFCURVE",
"299 591 OFFCURVE",
"241 591 CURVE",
"80 591 LINE",
"80 0 LINE"
);
},
{
closed = 1;
nodes = (
"99 303 LINE",
"219 303 LINE",
"283 303 OFFCURVE",
"333 284 OFFCURVE",
"333 211 CURVE",
"333 123 LINE",
"333 31 OFFCURVE",
"293 16 OFFCURVE",
"232 16 CURVE",
"99 16 LINE"
);
},
{
closed = 1;
nodes = (
"241 575 LINE",
"287 575 OFFCURVE",
"328 548 OFFCURVE",
"328 491 CURVE",
"328 416 LINE",
"328 357 OFFCURVE",
"291 319 OFFCURVE",
"219 319 CURVE",
"99 319 LINE",
"99 575 LINE"
);
}
);
};
layerId = "82B1C968-1149-4E0D-B361-F2F5D539D913";
paths = (
{
closed = 1;
nodes = (
"232 0 LINE SMOOTH",
"303 0 OFFCURVE",
"353 16 OFFCURVE",
"353 120 CURVE SMOOTH",
"353 209 LINE SMOOTH",
"353 245 OFFCURVE",
"342 272 OFFCURVE",
"324 292 CURVE SMOOTH",
"309 309 OFFCURVE",
"278 314 OFFCURVE",
"248 314 CURVE",
"248 311 LINE",
"264 311 OFFCURVE",
"297 314 OFFCURVE",
"318 334 CURVE SMOOTH",
"335 351 OFFCURVE",
"348 380 OFFCURVE",
"348 419 CURVE SMOOTH",
"348 494 LINE SMOOTH",
"348 566 OFFCURVE",
"299 591 OFFCURVE",
"241 591 CURVE SMOOTH",
"80 591 LINE",
"80 0 LINE"
);
},
{
closed = 1;
nodes = (
"99 303 LINE",
"219 303 LINE SMOOTH",
"283 303 OFFCURVE",
"333 284 OFFCURVE",
"333 211 CURVE SMOOTH",
"333 123 LINE SMOOTH",
"333 31 OFFCURVE",
"293 16 OFFCURVE",
"232 16 CURVE SMOOTH",
"99 16 LINE"
);
},
{
closed = 1;
nodes = (
"99 575 LINE",
"241 575 LINE SMOOTH",
"287 575 OFFCURVE",
"328 548 OFFCURVE",
"328 491 CURVE SMOOTH",
"328 416 LINE SMOOTH",
"328 357 OFFCURVE",
"291 319 OFFCURVE",
"219 319 CURVE SMOOTH",
"99 319 LINE"
);
}
);
width = 433;
},
{
background = {
paths = (
{
closed = 1;
nodes = (
"248 0 LINE",
"341 0 OFFCURVE",
"397 30 OFFCURVE",
"397 125 CURVE",
"397 202 LINE",
"397 280 OFFCURVE",
"351 316 OFFCURVE",
"294 316 CURVE",
"294 316 OFFCURVE",
"293 317 OFFCURVE",
"293 317 CURVE",
"293 317 OFFCURVE",
"294 318 OFFCURVE",
"294 318 CURVE",
"357 325 OFFCURVE",
"382 370 OFFCURVE",
"382 426 CURVE",
"382 490 LINE",
"382 549 OFFCURVE",
"345 591 OFFCURVE",
"257 591 CURVE",
"25 591 LINE",
"25 0 LINE"
);
},
{
closed = 1;
nodes = (
"191 249 LINE",
"206 249 LINE",
"223 249 OFFCURVE",
"224 215 OFFCURVE",
"224 171 CURVE",
"224 165 LINE",
"224 118 OFFCURVE",
"220 81 OFFCURVE",
"206 81 CURVE",
"191 81 LINE"
);
},
{
closed = 1;
nodes = (
"206 507 LINE",
"223 507 OFFCURVE",
"224 474 OFFCURVE",
"224 431 CURVE",
"224 427 LINE",
"224 383 OFFCURVE",
"217 348 OFFCURVE",
"203 348 CURVE",
"191 348 LINE",
"191 507 LINE"
);
}
);
};
layerId = "8A3706BD-364F-4FE3-9C2E-7E87DF0DB4CC";
paths = (
{
closed = 1;
nodes = (
"243 0 LINE SMOOTH",
"332 0 OFFCURVE",
"386 30 OFFCURVE",
"386 125 CURVE SMOOTH",
"386 202 LINE SMOOTH",
"386 248 OFFCURVE",
"370 279 OFFCURVE",
"346 297 CURVE SMOOTH",
"325 312 OFFCURVE",
"307 316 OFFCURVE",
"289 316 CURVE",
"289 318 LINE",
"312 320 OFFCURVE",
"332 330 OFFCURVE",
"346 343 CURVE SMOOTH",
"367 363 OFFCURVE",
"376 392 OFFCURVE",
"376 426 CURVE SMOOTH",
"376 490 LINE SMOOTH",
"376 549 OFFCURVE",
"339 591 OFFCURVE",
"257 591 CURVE SMOOTH",
"25 591 LINE",
"25 0 LINE"
);
},
{
closed = 1;
nodes = (
"185 249 LINE",
"204 249 LINE SMOOTH",
"219 249 OFFCURVE",
"225 241 OFFCURVE",
"225 197 CURVE SMOOTH",
"225 134 LINE SMOOTH",
"225 92 OFFCURVE",
"218 81 OFFCURVE",
"205 81 CURVE SMOOTH",
"185 81 LINE"
);
},
{
closed = 1;
nodes = (
"185 507 LINE",
"203 507 LINE SMOOTH",
"218 507 OFFCURVE",
"224 496 OFFCURVE",
"224 461 CURVE SMOOTH",
"224 408 LINE SMOOTH",
"224 359 OFFCURVE",
"213 348 OFFCURVE",
"201 348 CURVE SMOOTH",
"185 348 LINE"
);
}
);
width = 401;
}
);
leftMetricsKey = H;
rightMetricsKey = "=O-5";
unicode = 0042;
},
{
glyphname = C;
lastChange = "2021-05-18 00:21:04 +0000";
layers = (
{
background = {
paths = (
{
closed = 1;
nodes = (
"323 121 LINE",
"323 17 OFFCURVE",
"276 4 OFFCURVE",
"206 4 CURVE",
"137 4 OFFCURVE",
"89 17 OFFCURVE",
"89 121 CURVE",
"89 467 LINE",
"89 571 OFFCURVE",
"137 584 OFFCURVE",
"206 584 CURVE",
"274 584 OFFCURVE",
"323 571 OFFCURVE",
"323 467 CURVE",
"323 381 LINE",
"343 381 LINE",
"343 469 LINE",
"343 583 OFFCURVE",
"285 599 OFFCURVE",
"207 599 CURVE",
"129 599 OFFCURVE",
"70 585 OFFCURVE",
"70 469 CURVE",
"70 118 LINE",
"70 4 OFFCURVE",
"128 -12 OFFCURVE",
"205 -12 CURVE",
"285 -12 OFFCURVE",
"343 2 OFFCURVE",
"343 118 CURVE",
"343 189 LINE",
"323 189 LINE"
);
}
);
};
layerId = "82B1C968-1149-4E0D-B361-F2F5D539D913";
paths = (
{
closed = 1;
nodes = (
"285 -12 OFFCURVE",
"343 2 OFFCURVE",
"343 118 CURVE SMOOTH",
"343 189 LINE",
"323 189 LINE",
"323 121 LINE SMOOTH",
"323 17 OFFCURVE",
"276 4 OFFCURVE",
"206 4 CURVE SMOOTH",
"137 4 OFFCURVE",
"89 17 OFFCURVE",
"89 121 CURVE SMOOTH",
"89 467 LINE SMOOTH",
"89 571 OFFCURVE",
"137 584 OFFCURVE",
"206 584 CURVE SMOOTH",
"274 584 OFFCURVE",
"323 571 OFFCURVE",
"323 467 CURVE SMOOTH",
"323 381 LINE",
"343 381 LINE",
"343 469 LINE SMOOTH",
"343 583 OFFCURVE",
"285 599 OFFCURVE",
"207 599 CURVE SMOOTH",
"129 599 OFFCURVE",
"70 585 OFFCURVE",
"70 469 CURVE SMOOTH",
"70 118 LINE SMOOTH",
"70 4 OFFCURVE",
"128 -12 OFFCURVE",
"205 -12 CURVE SMOOTH"
);
}
);
width = 413;
},
{
background = {
paths = (
{
closed = 1;
nodes = (
"223 110 LINE",
"223 87 OFFCURVE",
"216 80 OFFCURVE",
"207 80 CURVE",
"197 80 OFFCURVE",
"191 87 OFFCURVE",
"191 110 CURVE",
"191 473 LINE",
"191 496 OFFCURVE",
"197 503 OFFCURVE",
"207 503 CURVE",
"216 503 OFFCURVE",
"223 496 OFFCURVE",
"223 473 CURVE",
"223 327 LINE",
"382 327 LINE",
"382 465 LINE",
"382 564 OFFCURVE",
"316 600 OFFCURVE",
"207 600 CURVE",
"98 600 OFFCURVE",
"25 564 OFFCURVE",
"25 465 CURVE",
"25 173 LINE",
"25 14 OFFCURVE",
"98 -12 OFFCURVE",
"207 -12 CURVE",
"316 -12 OFFCURVE",
"382 14 OFFCURVE",
"382 174 CURVE",
"382 248 LINE",
"223 248 LINE"
);
}
);
};
layerId = "8A3706BD-364F-4FE3-9C2E-7E87DF0DB4CC";
paths = (
{
closed = 1;
nodes = (
"316 -12 OFFCURVE",
"382 14 OFFCURVE",
"382 174 CURVE SMOOTH",
"382 248 LINE",
"223 248 LINE",
"223 110 LINE SMOOTH",
"223 87 OFFCURVE",
"216 80 OFFCURVE",
"207 80 CURVE SMOOTH",
"197 80 OFFCURVE",
"191 87 OFFCURVE",
"191 110 CURVE SMOOTH",
"191 473 LINE SMOOTH",
"191 496 OFFCURVE",
"197 503 OFFCURVE",
"207 503 CURVE SMOOTH",
"216 503 OFFCURVE",
"223 496 OFFCURVE",
"223 473 CURVE SMOOTH",
"223 327 LINE",
"382 327 LINE",
"382 465 LINE SMOOTH",
"382 564 OFFCURVE",
"316 600 OFFCURVE",
"207 600 CURVE SMOOTH",
"98 600 OFFCURVE",
"25 564 OFFCURVE",
"25 465 CURVE SMOOTH",
"25 173 LINE SMOOTH",
"25 14 OFFCURVE",
"98 -12 OFFCURVE",
"207 -12 CURVE SMOOTH"
);
}
);
width = 404;
}
);
unicode = 0043;
},
{
glyphname = D;
lastChange = "2021-05-18 00:20:59 +0000";
layers = (
{
background = {
paths = (
{
closed = 1;
nodes = (
"232 0 LINE",
"303 0 OFFCURVE",
"353 25 OFFCURVE",
"353 130 CURVE",
"353 461 LINE",
"353 566 OFFCURVE",
"303 591 OFFCURVE",
"232 591 CURVE",
"80 591 LINE",
"80 0 LINE"
);
},
{
closed = 1;
nodes = (
"99 575 LINE",
"232 575 LINE",
"293 575 OFFCURVE",
"333 549 OFFCURVE",
"333 458 CURVE",
"333 133 LINE",
"333 42 OFFCURVE",
"293 16 OFFCURVE",
"232 16 CURVE",
"99 16 LINE"
);
}
);
};
layerId = "82B1C968-1149-4E0D-B361-F2F5D539D913";
paths = (
{
closed = 1;
nodes = (
"232 0 LINE SMOOTH",
"303 0 OFFCURVE",
"353 25 OFFCURVE",
"353 130 CURVE SMOOTH",
"353 461 LINE SMOOTH",
"353 566 OFFCURVE",
"303 591 OFFCURVE",
"232 591 CURVE SMOOTH",
"80 591 LINE",
"80 0 LINE"
);
},
{
closed = 1;
nodes = (
"99 575 LINE",
"232 575 LINE SMOOTH",
"293 575 OFFCURVE",
"333 549 OFFCURVE",
"333 458 CURVE SMOOTH",
"333 133 LINE SMOOTH",
"333 42 OFFCURVE",
"293 16 OFFCURVE",
"232 16 CURVE SMOOTH",
"99 16 LINE"
);
}
);
width = 423;
},
{
background = {
paths = (
{
closed = 1;
nodes = (
"233 0 LINE",
"326 0 OFFCURVE",
"382 30 OFFCURVE",
"382 125 CURVE",
"382 490 LINE",
"382 549 OFFCURVE",
"345 591 OFFCURVE",
"257 591 CURVE",
"25 591 LINE",
"25 0 LINE"
);
},
{
closed = 1;
nodes = (
"191 503 LINE",
"206 503 LINE",
"216 503 OFFCURVE",
"223 496 OFFCURVE",
"223 473 CURVE",
"223 110 LINE",
"223 87 OFFCURVE",
"216 80 OFFCURVE",
"206 80 CURVE",
"191 80 LINE"
);
}
);
};
layerId = "8A3706BD-364F-4FE3-9C2E-7E87DF0DB4CC";
paths = (
{
closed = 1;
nodes = (
"233 0 LINE SMOOTH",
"326 0 OFFCURVE",
"382 30 OFFCURVE",
"382 125 CURVE SMOOTH",
"382 490 LINE SMOOTH",
"382 549 OFFCURVE",
"345 591 OFFCURVE",
"257 591 CURVE SMOOTH",
"25 591 LINE",
"25 0 LINE"
);
},
{
closed = 1;
nodes = (
"191 503 LINE",
"206 503 LINE SMOOTH",
"216 503 OFFCURVE",
"223 496 OFFCURVE",
"223 473 CURVE SMOOTH",
"223 110 LINE SMOOTH",
"223 87 OFFCURVE",
"216 80 OFFCURVE",
"206 80 CURVE SMOOTH",
"191 80 LINE"
);
}
);
width = 407;
}
);
unicode = 0044;
},
{
glyphname = Eth;
lastChange = "2021-05-18 00:21:04 +0000";
layers = (
{
background = {
paths = (
{
closed = 1;
nodes = (
"236 0 LINE",
"307 0 OFFCURVE",
"357 25 OFFCURVE",
"357 130 CURVE",
"357 461 LINE",
"357 566 OFFCURVE",
"307 591 OFFCURVE",
"236 591 CURVE",
"84 591 LINE",
"84 0 LINE"
);
},
{
closed = 1;
nodes = (
"103 575 LINE",
"236 575 LINE",
"297 575 OFFCURVE",
"337 549 OFFCURVE",
"337 458 CURVE",
"337 133 LINE",
"337 42 OFFCURVE",
"297 16 OFFCURVE",
"236 16 CURVE",
"103 16 LINE"
);
},
{
closed = 1;
nodes = (
"20 279 LINE",
"179 279 LINE",
"179 298 LINE",
"20 298 LINE"
);
}
);
};
hints = (
{
horizontal = 1;
place = "{0, 16}";
type = Stem;
},
{
horizontal = 1;
place = "{218, 15}";
type = Stem;
},
{
horizontal = 1;
place = "{575, 16}";
type = Stem;
},
{
place = "{112, 19}";
type = Stem;
},
{
place = "{365, 20}";
type = Stem;
},
{
horizontal = 1;
place = "{170, 19}";
type = Stem;
},
{
place = "{5, 199}";
type = Stem;
}
);
layerId = "82B1C968-1149-4E0D-B361-F2F5D539D913";
paths = (
{
closed = 1;
nodes = (
"236 0 LINE SMOOTH",
"307 0 OFFCURVE",
"357 25 OFFCURVE",
"357 130 CURVE SMOOTH",
"357 461 LINE SMOOTH",
"357 566 OFFCURVE",
"307 591 OFFCURVE",
"236 591 CURVE SMOOTH",
"84 591 LINE",
"84 0 LINE"
);
},
{
closed = 1;
nodes = (
"179 279 LINE",
"179 298 LINE",
"20 298 LINE",
"20 279 LINE"
);
},
{
closed = 1;
nodes = (
"103 575 LINE",
"236 575 LINE SMOOTH",
"297 575 OFFCURVE",
"337 549 OFFCURVE",
"337 458 CURVE SMOOTH",
"337 133 LINE SMOOTH",
"337 42 OFFCURVE",
"297 16 OFFCURVE",
"236 16 CURVE SMOOTH",
"103 16 LINE"
);
}
);
width = 427;
},
{
background = {
paths = (
{
closed = 1;
nodes = (
"280 0 LINE",
"373 0 OFFCURVE",
"429 30 OFFCURVE",
"429 125 CURVE",
"429 490 LINE",
"429 549 OFFCURVE",
"392 591 OFFCURVE",
"304 591 CURVE",
"50 591 LINE",
"50 0 LINE"
);
},
{
closed = 1;
nodes = (
"216 503 LINE",
"241 503 LINE",
"263 503 OFFCURVE",
"270 496 OFFCURVE",
"270 473 CURVE",
"270 110 LINE",
"270 87 OFFCURVE",
"263 80 OFFCURVE",
"241 80 CURVE",
"216 80 LINE"
);
},
{
closed = 1;
nodes = (
"10 246 LINE",
"239 246 LINE",
"239 335 LINE",
"10 335 LINE"
);
}
);
};
layerId = "8A3706BD-364F-4FE3-9C2E-7E87DF0DB4CC";
paths = (
{
closed = 1;
nodes = (
"280 0 LINE SMOOTH",
"373 0 OFFCURVE",
"429 30 OFFCURVE",
"429 125 CURVE SMOOTH",
"429 490 LINE SMOOTH",
"429 549 OFFCURVE",
"392 591 OFFCURVE",
"304 591 CURVE SMOOTH",
"50 591 LINE",
"50 0 LINE"
);
},
{
closed = 1;
nodes = (
"239 246 LINE",
"239 335 LINE",
"10 335 LINE",
"10 246 LINE"
);
},
{
closed = 1;
nodes = (
"216 503 LINE",
"241 503 LINE SMOOTH",
"263 503 OFFCURVE",
"270 496 OFFCURVE",
"270 473 CURVE SMOOTH",
"270 110 LINE SMOOTH",
"270 87 OFFCURVE",
"263 80 OFFCURVE",
"241 80 CURVE SMOOTH",
"216 80 LINE"
);
}
);
width = 454;
}
);
note = Eth;
rightKerningGroup = parenright;
unicode = 00D0;
},
{
glyphname = E;
lastChange = "2021-05-18 00:20:56 +0000";
layers = (
{
background = {
paths = (
{
closed = 1;
nodes = (
"321 0 LINE",
"321 16 LINE",
"100 16 LINE",
"100 304 LINE",
"270 304 LINE",
"270 320 LINE",
"100 320 LINE",
"100 575 LINE",
"321 575 LINE",
"321 591 LINE",
"80 591 LINE",
"80 0 LINE"
);
}
);
};
layerId = "82B1C968-1149-4E0D-B361-F2F5D539D913";
paths = (
{
closed = 1;
nodes = (
"321 0 LINE",
"321 16 LINE",
"100 16 LINE",
"100 304 LINE",
"270 304 LINE",
"270 320 LINE",
"100 320 LINE",
"100 575 LINE",
"321 575 LINE",
"321 591 LINE",
"80 591 LINE",
"80 0 LINE"
);
}
);
width = 386;
},
{
background = {
paths = (
{
closed = 1;
nodes = (
"311 0 LINE",
"311 108 LINE",
"191 108 LINE",
"191 240 LINE",
"301 240 LINE",
"301 365 LINE",
"191 365 LINE",
"191 480 LINE",
"311 480 LINE",
"311 591 LINE",
"25 591 LINE",
"25 0 LINE"
);
}
);
};
layerId = "8A3706BD-364F-4FE3-9C2E-7E87DF0DB4CC";
paths = (
{
closed = 1;
nodes = (
"311 0 LINE",
"311 108 LINE",
"191 108 LINE",
"191 240 LINE",
"301 240 LINE",
"301 365 LINE",
"191 365 LINE",
"191 480 LINE",
"311 480 LINE",
"311 591 LINE",
"25 591 LINE",
"25 0 LINE"
);
}
);
width = 336;
}
);
unicode = 0045;
},
{
glyphname = F;
lastChange = "2021-05-18 00:20:56 +0000";
layers = (
{
background = {
paths = (
{
closed = 1;
nodes = (
"100 0 LINE",
"100 304 LINE",
"270 304 LINE",
"270 320 LINE",
"100 320 LINE",
"100 575 LINE",
"321 575 LINE",
"321 591 LINE",
"80 591 LINE",
"80 0 LINE"
);
}
);
};
layerId = "82B1C968-1149-4E0D-B361-F2F5D539D913";
paths = (
{
closed = 1;
nodes = (
"100 0 LINE",
"100 304 LINE",
"270 304 LINE",
"270 320 LINE",
"100 320 LINE",
"100 575 LINE",
"321 575 LINE",
"321 591 LINE",
"80 591 LINE",
"80 0 LINE"
);
}
);
width = 371;
},
{
background = {
paths = (
{
closed = 1;
nodes = (
"191 0 LINE",
"191 240 LINE",
"301 240 LINE",
"301 365 LINE",
"191 365 LINE",
"191 480 LINE",
"311 480 LINE",
"311 591 LINE",
"25 591 LINE",
"25 0 LINE"
);
}
);
};
layerId = "8A3706BD-364F-4FE3-9C2E-7E87DF0DB4CC";
paths = (
{
closed = 1;
nodes = (
"191 0 LINE",
"191 240 LINE",
"301 240 LINE",
"301 365 LINE",
"191 365 LINE",
"191 480 LINE",
"311 480 LINE",
"311 591 LINE",
"25 591 LINE",
"25 0 LINE"
);
}
);
width = 334;
}
);
unicode = 0046;
},
{
glyphname = G;
lastChange = "2021-05-18 00:21:04 +0000";
layers = (
{
background = {
paths = (
{
closed = 1;
nodes = (
"353 0 LINE",
"353 266 LINE",
"234 266 LINE",
"234 250 LINE",
"333 250 LINE",
"333 121 LINE",
"333 47 OFFCURVE",
"284 4 OFFCURVE",
"216 4 CURVE",
"147 4 OFFCURVE",
"99 17 OFFCURVE",
"99 121 CURVE",
"99 466 LINE",
"99 570 OFFCURVE",
"147 583 OFFCURVE",
"216 583 CURVE",
"286 583 OFFCURVE",
"333 570 OFFCURVE",
"333 466 CURVE",
"333 401 LINE",
"353 401 LINE",
"353 469 LINE",
"353 583 OFFCURVE",
"297 599 OFFCURVE",
"218 599 CURVE",
"139 599 OFFCURVE",
"80 585 OFFCURVE",
"80 469 CURVE",
"80 118 LINE",
"80 4 OFFCURVE",
"138 -12 OFFCURVE",
"215 -12 CURVE",
"260 -12 OFFCURVE",
"292 0 OFFCURVE",
"316 29 CURVE",
"323 38 OFFCURVE",
"331 52 OFFCURVE",
"338 65 CURVE",
"338 65 OFFCURVE",
"339 0 OFFCURVE",
"339 0 CURVE"
);
}
);
};
layerId = "82B1C968-1149-4E0D-B361-F2F5D539D913";
paths = (
{
closed = 1;
nodes = (
"260 -12 OFFCURVE",
"292 0 OFFCURVE",
"316 29 CURVE SMOOTH",
"323 38 OFFCURVE",
"331 52 OFFCURVE",
"338 65 CURVE",
"339 0 LINE",
"353 0 LINE",
"353 266 LINE",
"234 266 LINE",
"234 250 LINE",
"333 250 LINE",
"333 121 LINE SMOOTH",
"333 47 OFFCURVE",
"284 4 OFFCURVE",
"216 4 CURVE SMOOTH",
"147 4 OFFCURVE",
"99 17 OFFCURVE",
"99 121 CURVE SMOOTH",
"99 466 LINE SMOOTH",
"99 570 OFFCURVE",
"147 583 OFFCURVE",
"216 583 CURVE SMOOTH",
"286 583 OFFCURVE",
"333 570 OFFCURVE",
"333 466 CURVE SMOOTH",
"333 401 LINE",
"353 401 LINE",
"353 469 LINE SMOOTH",
"353 583 OFFCURVE",
"297 599 OFFCURVE",
"218 599 CURVE SMOOTH",
"139 599 OFFCURVE",
"80 585 OFFCURVE",
"80 469 CURVE SMOOTH",
"80 118 LINE SMOOTH",
"80 4 OFFCURVE",
"138 -12 OFFCURVE",
"215 -12 CURVE SMOOTH"
);
}
);
width = 433;
},
{
background = {
paths = (
{
closed = 1;
nodes = (
"382 0 LINE",
"382 311 LINE",
"203 311 LINE",
"203 222 LINE",
"228 222 LINE",
"228 110 LINE",
"228 87 OFFCURVE",
"219 80 OFFCURVE",
"206 80 CURVE",
"193 80 OFFCURVE",
"184 87 OFFCURVE",
"184 110 CURVE",
"184 473 LINE",
"184 496 OFFCURVE",
"193 503 OFFCURVE",
"206 503 CURVE",
"219 503 OFFCURVE",
"228 496 OFFCURVE",
"228 473 CURVE",
"228 373 LINE",
"382 373 LINE",
"382 463 LINE",
"382 562 OFFCURVE",
"307 598 OFFCURVE",
"201 598 CURVE",
"95 598 OFFCURVE",
"25 562 OFFCURVE",
"25 463 CURVE",
"25 151 LINE",
"25 14 OFFCURVE",
"92 -10 OFFCURVE",
"154 -10 CURVE",
"216 -10 OFFCURVE",
"244 18 OFFCURVE",
"254 38 CURVE",
"254 38 OFFCURVE",
"254 38 OFFCURVE",
"254 38 CURVE SMOOTH",
"254 38 OFFCURVE",
"262 0 OFFCURVE",
"262 0 CURVE"
);
}
);
};
layerId = "8A3706BD-364F-4FE3-9C2E-7E87DF0DB4CC";
paths = (
{
closed = 1;
nodes = (
"216 -10 OFFCURVE",
"244 18 OFFCURVE",
"254 38 CURVE",
"254 38 OFFCURVE",
"254 38 OFFCURVE",
"254 38 CURVE",
"262 0 LINE",
"382 0 LINE",
"382 311 LINE",
"203 311 LINE",
"203 222 LINE",
"228 222 LINE",
"228 110 LINE SMOOTH",
"228 87 OFFCURVE",
"219 80 OFFCURVE",
"206 80 CURVE SMOOTH",
"193 80 OFFCURVE",
"184 87 OFFCURVE",
"184 110 CURVE SMOOTH",
"184 473 LINE SMOOTH",
"184 496 OFFCURVE",
"193 503 OFFCURVE",
"206 503 CURVE SMOOTH",
"219 503 OFFCURVE",
"228 496 OFFCURVE",
"228 473 CURVE SMOOTH",
"228 373 LINE",
"382 373 LINE",
"382 463 LINE SMOOTH",
"382 562 OFFCURVE",
"307 598 OFFCURVE",
"201 598 CURVE SMOOTH",
"95 598 OFFCURVE",
"25 562 OFFCURVE",
"25 463 CURVE SMOOTH",
"25 151 LINE SMOOTH",
"25 14 OFFCURVE",
"92 -10 OFFCURVE",
"154 -10 CURVE SMOOTH"
);
}
);
width = 407;
}
);
unicode = 0047;
},
{
glyphname = H;
lastChange = "2021-05-18 00:20:56 +0000";
layers = (
{
background = {
paths = (
{
closed = 1;
nodes = (
"100 0 LINE",
"100 303 LINE",
"334 303 LINE",
"334 0 LINE",
"353 0 LINE",
"353 591 LINE",
"334 591 LINE",
"334 320 LINE",
"100 320 LINE",
"100 591 LINE",
"80 591 LINE",
"80 0 LINE"
);
}
);
};
layerId = "82B1C968-1149-4E0D-B361-F2F5D539D913";
paths = (
{
closed = 1;
nodes = (
"100 0 LINE",
"100 303 LINE",
"334 303 LINE",
"334 0 LINE",
"353 0 LINE",
"353 591 LINE",
"334 591 LINE",
"334 320 LINE",
"100 320 LINE",
"100 591 LINE",
"80 591 LINE",
"80 0 LINE"
);
}
);
width = 433;
},
{
background = {
paths = (
{
closed = 1;
nodes = (
"184 0 LINE",
"184 245 LINE",
"220 245 LINE",
"220 0 LINE",
"379 0 LINE",
"379 591 LINE",
"220 591 LINE",
"220 362 LINE",
"184 362 LINE",
"184 591 LINE",
"25 591 LINE",
"25 0 LINE"
);
}
);
};
layerId = "8A3706BD-364F-4FE3-9C2E-7E87DF0DB4CC";
paths = (
{
closed = 1;
nodes = (
"184 0 LINE",
"184 245 LINE",
"220 245 LINE",
"220 0 LINE",
"379 0 LINE",
"379 591 LINE",
"220 591 LINE",
"220 362 LINE",
"184 362 LINE",
"184 591 LINE",
"25 591 LINE",
"25 0 LINE"
);
}
);
width = 404;
}
);
unicode = 0048;
},
{
glyphname = I;
lastChange = "2021-05-18 00:20:56 +0000";
layers = (
{
background = {
paths = (
{
closed = 1;
nodes = (
"120 0 LINE",
"120 591 LINE",
"100 591 LINE",
"100 0 LINE"
);
}
);
};
layerId = "82B1C968-1149-4E0D-B361-F2F5D539D913";
paths = (
{
closed = 1;
nodes = (
"120 0 LINE",
"120 591 LINE",
"100 591 LINE",
"100 0 LINE"
);
}
);
width = 220;
},
{
background = {
paths = (
{
closed = 1;
nodes = (
"189 0 LINE",
"189 591 LINE",
"30 591 LINE",
"30 0 LINE"
);
}
);
};
layerId = "8A3706BD-364F-4FE3-9C2E-7E87DF0DB4CC";
paths = (
{
closed = 1;
nodes = (
"189 0 LINE",
"189 591 LINE",
"30 591 LINE",
"30 0 LINE"
);
}
);
width = 219;
}
);
unicode = 0049;
},
{
color = 4;
glyphname = J;
lastChange = "2021-05-18 01:24:07 +0000";
layers = (
{
background = {
paths = (
{
closed = 1;
nodes = (
"28 -2 OFFCURVE",
"49 -1 OFFCURVE",
"49 -1 CURVE",
"132 -1 OFFCURVE",
"132 32 OFFCURVE",
"132 136 CURVE",
"132 591 LINE",
"112 591 LINE",
"112 86 LINE",
"112 29 OFFCURVE",
"86 16 OFFCURVE",
"50 16 CURVE",
"15 16 LINE",
"15 -1 LINE"
);
}
);
};
layerId = "82B1C968-1149-4E0D-B361-F2F5D539D913";
paths = (
{
closed = 1;
nodes = (
"125 -1 OFFCURVE",
"132 29 OFFCURVE",
"132 117 CURVE SMOOTH",
"132 591 LINE",
"112 591 LINE",
"112 80 LINE SMOOTH",
"112 30 OFFCURVE",
"92 15 OFFCURVE",
"50 16 CURVE SMOOTH",
"15 17 LINE",
"15 0 LINE",
"28 -1 OFFCURVE",
"37 -1 OFFCURVE",
"49 -1 CURVE SMOOTH"
);
}
);
width = 212;
},
{
background = {
paths = (
{
closed = 1;
nodes = (
"15 -1 OFFCURVE",
"48 -1 OFFCURVE",
"59 -1 CURVE",
"186 -1 OFFCURVE",
"239 33 OFFCURVE",
"239 159 CURVE",
"239 591 LINE",
"80 591 LINE",
"80 156 LINE",
"80 117 OFFCURVE",
"72 108 OFFCURVE",
"34 108 CURVE",
"5 108 LINE",
"5 0 LINE"
);
}
);
};
layerId = "8A3706BD-364F-4FE3-9C2E-7E87DF0DB4CC";
paths = (
{
closed = 1;
nodes = (
"186 -1 OFFCURVE",
"239 33 OFFCURVE",
"239 159 CURVE SMOOTH",
"239 591 LINE",
"80 591 LINE",
"80 156 LINE SMOOTH",
"80 117 OFFCURVE",
"72 108 OFFCURVE",
"34 108 CURVE SMOOTH",
"5 108 LINE",
"5 0 LINE",
"15 -1 OFFCURVE",
"48 -1 OFFCURVE",
"59 -1 CURVE SMOOTH"
);
}
);
width = 259;
}
);
rightMetricsKey = O;
unicode = 004A;
},
{
glyphname = K;
lastChange = "2021-05-18 00:20:56 +0000";
layers = (
{
background = {
paths = (
{
closed = 1;
nodes = (
"330 0 LINE",
"143 306 LINE",
"323 591 LINE",
"299 591 LINE",
"120 308 LINE",
"305 0 LINE"
);
},
{
closed = 1;
nodes = (
"100 0 LINE",
"100 591 LINE",
"80 591 LINE",
"80 0 LINE"
);
}
);
};
layerId = "82B1C968-1149-4E0D-B361-F2F5D539D913";
paths = (
{
closed = 1;
nodes = (
"330 0 LINE",
"143 306 LINE",
"323 591 LINE",
"299 591 LINE",
"120 308 LINE",
"305 0 LINE"
);
},
{
closed = 1;
nodes = (
"100 0 LINE",
"100 591 LINE",
"80 591 LINE",
"80 0 LINE"
);
}
);
width = 390;
},
{
background = {
paths = (
{
closed = 1;
nodes = (
"434 0 LINE",
"336 307 LINE",
"432 591 LINE",
"263 591 LINE",
"182 306 LINE",
"263 0 LINE"
);
},
{
closed = 1;
nodes = (
"184 0 LINE",
"184 591 LINE",
"25 591 LINE",
"25 0 LINE"
);
}
);
};
layerId = "8A3706BD-364F-4FE3-9C2E-7E87DF0DB4CC";
paths = (
{
closed = 1;
nodes = (
"434 0 LINE",
"336 307 LINE",
"432 591 LINE",
"263 591 LINE",
"182 306 LINE",
"263 0 LINE"
);
},
{
closed = 1;
nodes = (
"184 0 LINE",
"184 591 LINE",
"25 591 LINE",
"25 0 LINE"
);
}
);
width = 439;
}
);
unicode = 004B;
},
{
glyphname = L;
lastChange = "2021-05-18 00:20:56 +0000";
layers = (
{
background = {
paths = (
{
closed = 1;
nodes = (
"290 0 LINE",
"290 16 LINE",
"100 16 LINE",
"100 591 LINE",
"80 591 LINE",
"80 0 LINE"
);
}
);
};
layerId = "82B1C968-1149-4E0D-B361-F2F5D539D913";
paths = (
{
closed = 1;
nodes = (
"290 0 LINE",
"290 16 LINE",
"100 16 LINE",
"100 591 LINE",
"80 591 LINE",
"80 0 LINE"
);
}
);
width = 340;
},
{
background = {
paths = (
{
closed = 1;
nodes = (
"291 0 LINE",
"291 108 LINE",
"182 108 LINE",
"182 591 LINE",
"25 591 LINE",
"25 0 LINE"
);
}
);
};
layerId = "8A3706BD-364F-4FE3-9C2E-7E87DF0DB4CC";
paths = (
{
closed = 1;
nodes = (
"291 0 LINE",
"291 108 LINE",
"182 108 LINE",
"182 591 LINE",
"25 591 LINE",
"25 0 LINE"
);
}
);
width = 301;
}
);
unicode = 004C;
},
{
glyphname = Lslash;
lastChange = "2021-05-18 00:20:56 +0000";
layers = (
{
background = {
paths = (
{
closed = 1;
nodes = (
"324 0 LINE",
"324 16 LINE",
"134 16 LINE",
"134 188 LINE",
"246 240 LINE",
"246 260 LINE",
"134 209 LINE",
"134 591 LINE",
"114 591 LINE",
"114 200 LINE",
"50 171 LINE",
"50 150 LINE",
"114 179 LINE",
"114 0 LINE"
);
}
);
};
hints = (
{
horizontal = 1;
place = "{0, 9}";
type = Stem;
},
{
horizontal = 1;
place = "{591, -20}";
target = down;
type = TopGhost;
},
{
place = "{114, 20}";
type = Stem;
}
);
layerId = "82B1C968-1149-4E0D-B361-F2F5D539D913";
paths = (
{
closed = 1;
nodes = (
"324 0 LINE",
"324 16 LINE",
"134 16 LINE",
"134 188 LINE",
"246 240 LINE",
"246 260 LINE",
"134 209 LINE",
"134 591 LINE",
"114 591 LINE",
"114 200 LINE",
"50 171 LINE",
"50 150 LINE",
"114 179 LINE",
"114 0 LINE"
);
}
);
width = 374;
},
{
background = {
paths = (
{
closed = 1;
nodes = (
"333 0 LINE",
"333 108 LINE",
"224 108 LINE",
"224 225 LINE",
"285 253 LINE",
"285 316 LINE",
"224 289 LINE",
"224 585 LINE",
"67 585 LINE",
"67 219 LINE",
"15 196 LINE",
"15 132 LINE",
"67 155 LINE",
"67 0 LINE"
);
}
);
};
layerId = "8A3706BD-364F-4FE3-9C2E-7E87DF0DB4CC";
paths = (
{
closed = 1;
nodes = (
"333 0 LINE",
"333 108 LINE",
"224 108 LINE",
"224 225 LINE",
"285 253 LINE",
"285 316 LINE",
"224 289 LINE",
"224 585 LINE",
"67 585 LINE",
"67 219 LINE",
"15 196 LINE",
"15 132 LINE",
"67 155 LINE",
"67 0 LINE"
);
}
);
width = 353;
}
);
note = Lslash;
unicode = 0141;
},
{
glyphname = M;
lastChange = "2021-05-18 00:20:56 +0000";
layers = (
{
background = {
paths = (
{
closed = 1;
nodes = (
"100 0 LINE",
"100 508 LINE",
"254 0 LINE",
"272 0 LINE",
"426 508 LINE",
"426 0 LINE",
"446 0 LINE",
"446 591 LINE",
"432 591 LINE",
"263 30 LINE",
"97 591 LINE",
"80 591 LINE",
"80 0 LINE"
);
}
);
};
layerId = "82B1C968-1149-4E0D-B361-F2F5D539D913";
paths = (
{
closed = 1;
nodes = (
"100 0 LINE",
"100 508 LINE",
"254 0 LINE",
"272 0 LINE",
"426 508 LINE",
"426 0 LINE",
"446 0 LINE",
"446 591 LINE",
"432 591 LINE",
"263 30 LINE",
"97 591 LINE",
"80 591 LINE",
"80 0 LINE"
);
}
);
width = 526;
},
{
background = {
paths = (
{
closed = 1;
nodes = (
"164 0 LINE",
"164 412 LINE",
"217 0 LINE",
"323 0 LINE",
"376 412 LINE",
"376 0 LINE",
"515 0 LINE",
"515 591 LINE",
"313 591 LINE",
"270 289 LINE",
"227 591 LINE",
"25 591 LINE",
"25 0 LINE"
);
}
);
};
layerId = "8A3706BD-364F-4FE3-9C2E-7E87DF0DB4CC";
paths = (
{
closed = 1;
nodes = (
"164 0 LINE",
"164 412 LINE",
"217 0 LINE",
"323 0 LINE",
"376 412 LINE",
"376 0 LINE",
"515 0 LINE",
"515 591 LINE",
"313 591 LINE",
"270 289 LINE",
"227 591 LINE",
"25 591 LINE",
"25 0 LINE"
);
}
);
width = 540;
}
);
unicode = 004D;
},
{
glyphname = N;
lastChange = "2021-05-18 00:20:56 +0000";
layers = (
{
background = {
paths = (
{
closed = 1;
nodes = (
"100 0 LINE",
"100 534 LINE",
"333 0 LINE",
"353 0 LINE",
"353 591 LINE",
"334 591 LINE",
"334 46 LINE",
"98 591 LINE",
"80 591 LINE",
"80 0 LINE"
);
}
);
};
layerId = "82B1C968-1149-4E0D-B361-F2F5D539D913";
paths = (
{
closed = 1;
nodes = (
"100 0 LINE",
"100 534 LINE",
"333 0 LINE",
"353 0 LINE",
"353 591 LINE",
"334 591 LINE",
"334 46 LINE",
"98 591 LINE",
"80 591 LINE",
"80 0 LINE"
);
}
);
width = 433;
},
{
background = {
paths = (
{
closed = 1;
nodes = (
"164 0 LINE",
"164 245 LINE",
"237 0 LINE",
"374 0 LINE",
"374 591 LINE",
"235 591 LINE",
"235 316 LINE",
"163 591 LINE",
"25 591 LINE",
"25 0 LINE"
);
}
);
};
layerId = "8A3706BD-364F-4FE3-9C2E-7E87DF0DB4CC";
paths = (
{
closed = 1;
nodes = (
"164 0 LINE",
"164 245 LINE",
"237 0 LINE",
"374 0 LINE",
"374 591 LINE",
"235 591 LINE",
"235 316 LINE",
"163 591 LINE",
"25 591 LINE",
"25 0 LINE"
);
}
);
width = 399;
}
);
unicode = 004E;
},
{
color = 4;
glyphname = Eng;
lastChange = "2021-05-18 01:24:13 +0000";
layers = (
{
background = {
paths = (
{
closed = 1;
nodes = (
"316 -249 OFFCURVE",
"323 -219 OFFCURVE",
"323 -131 CURVE SMOOTH",
"323 343 LINE",
"303 343 LINE",
"303 -168 LINE SMOOTH",
"303 -218 OFFCURVE",
"283 -233 OFFCURVE",
"241 -232 CURVE SMOOTH",
"206 -231 LINE",
"206 -248 LINE",
"219 -249 OFFCURVE",
"228 -249 OFFCURVE",
"240 -249 CURVE SMOOTH"
);
},
{
closed = 1;
nodes = (
"211 -250 OFFCURVE",
"223 -249 OFFCURVE",
"240 -249 CURVE SMOOTH",
"323 -249 OFFCURVE",
"323 -216 OFFCURVE",
"323 -112 CURVE SMOOTH",
"323 591 LINE",
"304 591 LINE",
"304 46 LINE",
"68 591 LINE",
"50 591 LINE",
"50 0 LINE",
"70 0 LINE",
"70 534 LINE",
"303 0 LINE",
"303 -162 LINE SMOOTH",
"303 -219 OFFCURVE",
"277 -232 OFFCURVE",
"241 -232 CURVE SMOOTH",
"206 -232 LINE",
"206 -249 LINE"
);
}
);
};
layerId = "82B1C968-1149-4E0D-B361-F2F5D539D913";
paths = (
{
closed = 1;
nodes = (
"311 -249 OFFCURVE",
"323 -227 OFFCURVE",
"323 -128 CURVE SMOOTH",
"323 591 LINE",
"304 591 LINE",
"304 46 LINE",
"68 591 LINE",
"50 591 LINE",
"50 0 LINE",
"70 0 LINE",
"70 534 LINE",
"303 0 LINE",
"303 -162 LINE SMOOTH",
"303 -218 OFFCURVE",
"286 -233 OFFCURVE",
"241 -232 CURVE SMOOTH",
"229 -232 OFFCURVE",
"218 -232 OFFCURVE",
"206 -231 CURVE",
"206 -248 LINE",
"213 -249 OFFCURVE",
"223 -249 OFFCURVE",
"240 -249 CURVE SMOOTH"
);
}
);
width = 373;
},
{
background = {
paths = (
{
closed = 1;
nodes = (
"149 -249 OFFCURVE",
"183 -250 OFFCURVE",
"194 -250 CURVE SMOOTH",
"321 -250 OFFCURVE",
"374 -215 OFFCURVE",
"374 -90 CURVE SMOOTH",
"374 591 LINE",
"235 591 LINE",
"235 316 LINE",
"163 591 LINE",
"25 591 LINE",
"25 0 LINE",
"164 0 LINE",
"164 245 LINE",
"215 74 LINE",
"215 -93 LINE SMOOTH",
"215 -132 OFFCURVE",
"208 -141 OFFCURVE",
"169 -141 CURVE SMOOTH",
"140 -141 LINE",
"140 -249 LINE"
);
}
);
};
layerId = "8A3706BD-364F-4FE3-9C2E-7E87DF0DB4CC";
paths = (
{
closed = 1;
nodes = (
"321 -250 OFFCURVE",
"374 -215 OFFCURVE",
"374 -90 CURVE SMOOTH",
"374 591 LINE",
"235 591 LINE",
"235 316 LINE",
"163 591 LINE",
"25 591 LINE",
"25 0 LINE",
"164 0 LINE",
"164 245 LINE",
"215 74 LINE",
"215 -93 LINE SMOOTH",
"215 -132 OFFCURVE",
"208 -141 OFFCURVE",
"169 -141 CURVE SMOOTH",
"159 -141 OFFCURVE",
"150 -141 OFFCURVE",
"140 -141 CURVE",
"140 -249 LINE",
"158 -249 OFFCURVE",
"176 -250 OFFCURVE",
"194 -250 CURVE SMOOTH"
);
}
);
width = 399;
}
);
leftMetricsKey = H;
rightMetricsKey = H;
unicode = 014A;
},
{
glyphname = O;
lastChange = "2021-05-18 01:23:35 +0000";
layers = (
{
background = {
paths = (
{
closed = 1;
nodes = (
"292 -12 OFFCURVE",
"350 2 OFFCURVE",
"350 118 CURVE",
"350 469 LINE",
"350 583 OFFCURVE",
"292 599 OFFCURVE",
"214 599 CURVE",
"136 599 OFFCURVE",
"77 585 OFFCURVE",
"77 469 CURVE",
"77 118 LINE",
"77 4 OFFCURVE",
"135 -12 OFFCURVE",
"212 -12 CURVE"
);
},
{
closed = 1;
nodes = (
"144 4 OFFCURVE",
"96 17 OFFCURVE",
"96 121 CURVE",
"96 466 LINE",
"96 570 OFFCURVE",
"144 583 OFFCURVE",
"213 583 CURVE",
"281 583 OFFCURVE",
"330 570 OFFCURVE",
"330 466 CURVE",
"330 121 LINE",
"330 17 OFFCURVE",
"283 4 OFFCURVE",
"213 4 CURVE"
);
}
);
};
layerId = "82B1C968-1149-4E0D-B361-F2F5D539D913";
paths = (
{
closed = 1;
nodes = (
"292 -12 OFFCURVE",
"350 2 OFFCURVE",
"350 118 CURVE SMOOTH",
"350 469 LINE SMOOTH",
"350 583 OFFCURVE",
"292 599 OFFCURVE",
"214 599 CURVE SMOOTH",
"136 599 OFFCURVE",
"77 585 OFFCURVE",
"77 469 CURVE SMOOTH",
"77 118 LINE SMOOTH",
"77 4 OFFCURVE",
"135 -12 OFFCURVE",
"212 -12 CURVE SMOOTH"
);
},
{
closed = 1;
nodes = (
"144 4 OFFCURVE",
"96 17 OFFCURVE",
"96 121 CURVE SMOOTH",
"96 466 LINE SMOOTH",
"96 570 OFFCURVE",
"144 583 OFFCURVE",
"213 583 CURVE SMOOTH",
"281 583 OFFCURVE",
"330 570 OFFCURVE",
"330 466 CURVE SMOOTH",
"330 121 LINE SMOOTH",
"330 17 OFFCURVE",
"283 4 OFFCURVE",
"213 4 CURVE SMOOTH"
);
}
);
width = 427;
},
{
background = {
paths = (
{
closed = 1;
nodes = (
"306 -12 OFFCURVE",
"382 14 OFFCURVE",
"382 174 CURVE",
"382 465 LINE",
"382 564 OFFCURVE",
"306 600 OFFCURVE",
"197 600 CURVE",
"88 600 OFFCURVE",
"15 564 OFFCURVE",
"15 465 CURVE",
"15 173 LINE",
"15 14 OFFCURVE",
"88 -12 OFFCURVE",
"197 -12 CURVE"
);
},
{
closed = 1;
nodes = (
"187 80 OFFCURVE",
"171 87 OFFCURVE",
"171 110 CURVE",
"171 473 LINE",
"171 496 OFFCURVE",
"187 503 OFFCURVE",
"197 503 CURVE",
"206 503 OFFCURVE",
"223 496 OFFCURVE",
"223 473 CURVE",
"223 110 LINE",
"223 87 OFFCURVE",
"206 80 OFFCURVE",
"197 80 CURVE"
);
}
);
};
layerId = "8A3706BD-364F-4FE3-9C2E-7E87DF0DB4CC";
paths = (
{
closed = 1;
nodes = (
"303 -12 OFFCURVE",
"377 14 OFFCURVE",
"377 174 CURVE SMOOTH",
"377 465 LINE SMOOTH",
"377 564 OFFCURVE",
"303 600 OFFCURVE",
"197 600 CURVE SMOOTH",
"91 600 OFFCURVE",
"20 564 OFFCURVE",
"20 465 CURVE SMOOTH",
"20 173 LINE SMOOTH",
"20 14 OFFCURVE",
"91 -12 OFFCURVE",
"197 -12 CURVE SMOOTH"
);
},
{
closed = 1;
nodes = (
"185 80 OFFCURVE",
"176 92 OFFCURVE",
"176 110 CURVE SMOOTH",
"176 473 LINE SMOOTH",
"176 491 OFFCURVE",
"185 503 OFFCURVE",
"197 503 CURVE SMOOTH",
"209 503 OFFCURVE",
"218 491 OFFCURVE",
"218 473 CURVE SMOOTH",
"218 110 LINE SMOOTH",
"218 92 OFFCURVE",
"209 80 OFFCURVE",
"197 80 CURVE SMOOTH"
);
}
);
width = 397;
}
);
unicode = 004F;
},
{
glyphname = Oslash;
lastChange = "2021-05-18 00:20:59 +0000";
layers = (
{
background = {
paths = (
{
closed = 1;
nodes = (
"292 -12 OFFCURVE",
"350 2 OFFCURVE",
"350 118 CURVE",
"350 469 LINE",
"350 583 OFFCURVE",
"292 599 OFFCURVE",
"214 599 CURVE",
"136 599 OFFCURVE",
"77 585 OFFCURVE",
"77 469 CURVE",
"77 118 LINE",
"77 4 OFFCURVE",
"135 -12 OFFCURVE",
"212 -12 CURVE"
);
},
{
closed = 1;
nodes = (
"144 4 OFFCURVE",
"96 17 OFFCURVE",
"96 121 CURVE",
"96 466 LINE",
"96 570 OFFCURVE",
"144 583 OFFCURVE",
"213 583 CURVE",
"281 583 OFFCURVE",
"330 570 OFFCURVE",
"330 466 CURVE",
"330 121 LINE",
"330 17 OFFCURVE",
"283 4 OFFCURVE",
"213 4 CURVE"
);
},
{
closed = 1;
nodes = (
"62 -14 LINE",
"366 591 LINE",
"343 591 LINE",
"40 -14 LINE"
);
}
);
};
hints = (
{
horizontal = 1;
place = "{-46, 677}";
type = Stem;
},
{
place = "{23, 360}";
type = Stem;
}
);
layerId = "82B1C968-1149-4E0D-B361-F2F5D539D913";
paths = (
{
closed = 1;
nodes = (
"62 -14 LINE",
"366 591 LINE",
"343 591 LINE",
"40 -14 LINE"
);
},
{
closed = 1;
nodes = (
"292 -12 OFFCURVE",
"350 2 OFFCURVE",
"350 118 CURVE SMOOTH",
"350 469 LINE SMOOTH",
"350 583 OFFCURVE",
"292 599 OFFCURVE",
"214 599 CURVE SMOOTH",
"136 599 OFFCURVE",
"77 585 OFFCURVE",
"77 469 CURVE SMOOTH",
"77 118 LINE SMOOTH",
"77 4 OFFCURVE",
"135 -12 OFFCURVE",
"212 -12 CURVE SMOOTH"
);
},
{
closed = 1;
nodes = (
"144 4 OFFCURVE",
"96 17 OFFCURVE",
"96 121 CURVE SMOOTH",
"96 466 LINE SMOOTH",
"96 570 OFFCURVE",
"144 583 OFFCURVE",
"213 583 CURVE SMOOTH",
"281 583 OFFCURVE",
"330 570 OFFCURVE",
"330 466 CURVE SMOOTH",
"330 121 LINE SMOOTH",
"330 17 OFFCURVE",
"283 4 OFFCURVE",
"213 4 CURVE SMOOTH"
);
}
);
width = 427;
},
{
background = {
paths = (
{
closed = 1;
nodes = (
"316 -12 OFFCURVE",
"382 14 OFFCURVE",
"382 174 CURVE",
"382 465 LINE",
"382 564 OFFCURVE",
"316 600 OFFCURVE",
"207 600 CURVE",
"98 600 OFFCURVE",
"25 564 OFFCURVE",
"25 465 CURVE",
"25 173 LINE",
"25 14 OFFCURVE",
"98 -12 OFFCURVE",
"207 -12 CURVE"
);
},
{
closed = 1;
nodes = (
"197 80 OFFCURVE",
"191 87 OFFCURVE",
"191 110 CURVE",
"191 473 LINE",
"191 496 OFFCURVE",
"197 503 OFFCURVE",
"207 503 CURVE",
"216 503 OFFCURVE",
"223 496 OFFCURVE",
"223 473 CURVE",
"223 110 LINE",
"223 87 OFFCURVE",
"216 80 OFFCURVE",
"207 80 CURVE"
);
},
{
closed = 1;
nodes = (
"86 -15 LINE",
"393 591 LINE",
"326 591 LINE",
"20 -15 LINE"
);
}
);
};
layerId = "8A3706BD-364F-4FE3-9C2E-7E87DF0DB4CC";
paths = (
{
closed = 1;
nodes = (
"86 -15 LINE",
"393 591 LINE",
"326 591 LINE",
"20 -15 LINE"
);
},
{
closed = 1;
nodes = (
"316 -12 OFFCURVE",
"382 14 OFFCURVE",
"382 174 CURVE SMOOTH",
"382 465 LINE SMOOTH",
"382 564 OFFCURVE",
"316 600 OFFCURVE",
"207 600 CURVE SMOOTH",
"98 600 OFFCURVE",
"25 564 OFFCURVE",
"25 465 CURVE SMOOTH",
"25 173 LINE SMOOTH",
"25 14 OFFCURVE",
"98 -12 OFFCURVE",
"207 -12 CURVE SMOOTH"
);
},
{
closed = 1;
nodes = (
"197 80 OFFCURVE",
"191 87 OFFCURVE",
"191 110 CURVE SMOOTH",
"191 473 LINE SMOOTH",
"191 496 OFFCURVE",
"197 503 OFFCURVE",
"207 503 CURVE SMOOTH",
"216 503 OFFCURVE",
"223 496 OFFCURVE",
"223 473 CURVE SMOOTH",
"223 110 LINE SMOOTH",
"223 87 OFFCURVE",
"216 80 OFFCURVE",
"207 80 CURVE SMOOTH"
);
}
);
width = 411;
}
);
unicode = 00D8;
},
{
glyphname = OE;
lastChange = "2021-05-18 00:20:59 +0000";
layers = (
{
background = {
paths = (
{
closed = 1;
nodes = (
"292 -12 OFFCURVE",
"350 2 OFFCURVE",
"350 118 CURVE",
"350 469 LINE",
"350 583 OFFCURVE",
"292 599 OFFCURVE",
"214 599 CURVE",
"136 599 OFFCURVE",
"77 585 OFFCURVE",
"77 469 CURVE",
"77 118 LINE",
"77 4 OFFCURVE",
"135 -12 OFFCURVE",
"212 -12 CURVE"
);
},
{
closed = 1;
nodes = (
"144 4 OFFCURVE",
"96 17 OFFCURVE",
"96 121 CURVE",
"96 466 LINE",
"96 570 OFFCURVE",
"144 583 OFFCURVE",
"213 583 CURVE",
"281 583 OFFCURVE",
"330 570 OFFCURVE",
"330 466 CURVE",
"330 121 LINE",
"330 17 OFFCURVE",
"283 4 OFFCURVE",
"213 4 CURVE"
);
},
{
closed = 1;
nodes = (
"571 0 LINE",
"571 16 LINE",
"350 16 LINE",
"350 304 LINE",
"520 304 LINE",
"520 320 LINE",
"350 320 LINE",
"350 575 LINE",
"571 575 LINE",
"571 591 LINE",
"330 591 LINE",
"330 0 LINE"
);
}
);
};
layerId = "82B1C968-1149-4E0D-B361-F2F5D539D913";
paths = (
{
closed = 1;
nodes = (
"292 -12 OFFCURVE",
"350 2 OFFCURVE",
"350 118 CURVE SMOOTH",
"350 469 LINE SMOOTH",
"350 583 OFFCURVE",
"292 599 OFFCURVE",
"214 599 CURVE SMOOTH",
"136 599 OFFCURVE",
"77 585 OFFCURVE",
"77 469 CURVE SMOOTH",
"77 118 LINE SMOOTH",
"77 4 OFFCURVE",
"135 -12 OFFCURVE",
"212 -12 CURVE SMOOTH"
);
},
{
closed = 1;
nodes = (
"144 4 OFFCURVE",
"96 17 OFFCURVE",
"96 121 CURVE SMOOTH",
"96 466 LINE SMOOTH",
"96 570 OFFCURVE",
"144 583 OFFCURVE",
"213 583 CURVE SMOOTH",
"281 583 OFFCURVE",
"330 570 OFFCURVE",
"330 466 CURVE SMOOTH",
"330 121 LINE SMOOTH",
"330 17 OFFCURVE",
"283 4 OFFCURVE",
"213 4 CURVE SMOOTH"
);
},
{
closed = 1;
nodes = (
"571 0 LINE",
"571 16 LINE",
"350 16 LINE",
"350 304 LINE",
"520 304 LINE",
"520 320 LINE",
"350 320 LINE",
"350 575 LINE",
"571 575 LINE",
"571 591 LINE",
"330 591 LINE",
"330 0 LINE"
);
}
);
width = 636;
},
{
background = {
paths = (
{
closed = 1;
nodes = (
"316 -12 OFFCURVE",
"382 14 OFFCURVE",
"382 174 CURVE",
"382 465 LINE",
"382 564 OFFCURVE",
"316 600 OFFCURVE",
"207 600 CURVE",
"98 600 OFFCURVE",
"25 564 OFFCURVE",
"25 465 CURVE",
"25 173 LINE",
"25 14 OFFCURVE",
"98 -12 OFFCURVE",
"207 -12 CURVE"
);
},
{
closed = 1;
nodes = (
"197 80 OFFCURVE",
"191 87 OFFCURVE",
"191 110 CURVE",
"191 473 LINE",
"191 496 OFFCURVE",
"197 503 OFFCURVE",
"207 503 CURVE",
"216 503 OFFCURVE",
"223 496 OFFCURVE",
"223 473 CURVE",
"223 110 LINE",
"223 87 OFFCURVE",
"216 80 OFFCURVE",
"207 80 CURVE"
);
},
{
closed = 1;
nodes = (
"530 0 LINE",
"530 108 LINE",
"382 108 LINE",
"382 240 LINE",
"520 240 LINE",
"520 365 LINE",
"382 365 LINE",
"382 480 LINE",
"530 480 LINE",
"530 591 LINE",
"224 591 LINE",
"224 0 LINE"
);
}
);
};
layerId = "8A3706BD-364F-4FE3-9C2E-7E87DF0DB4CC";
paths = (
{
closed = 1;
nodes = (
"316 -12 OFFCURVE",
"382 14 OFFCURVE",
"382 174 CURVE SMOOTH",
"382 465 LINE SMOOTH",
"382 564 OFFCURVE",
"316 600 OFFCURVE",
"207 600 CURVE SMOOTH",
"98 600 OFFCURVE",
"25 564 OFFCURVE",
"25 465 CURVE SMOOTH",
"25 173 LINE SMOOTH",
"25 14 OFFCURVE",
"98 -12 OFFCURVE",
"207 -12 CURVE SMOOTH"
);
},
{
closed = 1;
nodes = (
"197 80 OFFCURVE",
"191 87 OFFCURVE",
"191 110 CURVE SMOOTH",
"191 473 LINE SMOOTH",
"191 496 OFFCURVE",
"197 503 OFFCURVE",
"207 503 CURVE SMOOTH",
"216 503 OFFCURVE",
"223 496 OFFCURVE",
"223 473 CURVE SMOOTH",
"223 110 LINE SMOOTH",
"223 87 OFFCURVE",
"216 80 OFFCURVE",
"207 80 CURVE SMOOTH"
);
},
{
closed = 1;
nodes = (
"530 0 LINE",
"530 108 LINE",
"382 108 LINE",
"382 240 LINE",
"520 240 LINE",
"520 365 LINE",
"382 365 LINE",
"382 480 LINE",
"530 480 LINE",
"530 591 LINE",
"224 591 LINE",
"224 0 LINE"
);
}
);
width = 555;
}
);
unicode = 0152;
},
{
glyphname = P;
lastChange = "2021-05-18 00:21:04 +0000";
layers = (
{
background = {
paths = (
{
closed = 1;
nodes = (
"100 0 LINE",
"100 268 LINE",
"220 268 LINE",
"328 268 OFFCURVE",
"348 322 OFFCURVE",
"348 381 CURVE",
"348 494 LINE",
"348 566 OFFCURVE",
"299 591 OFFCURVE",
"242 591 CURVE",
"80 591 LINE",
"80 0 LINE"
);
},
{
closed = 1;
nodes = (
"242 575 LINE",
"287 575 OFFCURVE",
"328 548 OFFCURVE",
"328 491 CURVE",
"328 385 LINE",
"328 318 OFFCURVE",
"291 284 OFFCURVE",
"220 284 CURVE",
"100 284 LINE",
"100 575 LINE"
);
}
);
};
layerId = "82B1C968-1149-4E0D-B361-F2F5D539D913";
paths = (
{
closed = 1;
nodes = (
"100 0 LINE",
"100 268 LINE",
"220 268 LINE SMOOTH",
"328 268 OFFCURVE",
"348 322 OFFCURVE",
"348 381 CURVE SMOOTH",
"348 494 LINE SMOOTH",
"348 566 OFFCURVE",
"299 591 OFFCURVE",
"242 591 CURVE SMOOTH",
"80 591 LINE",
"80 0 LINE"
);
},
{
closed = 1;
nodes = (
"100 575 LINE",
"242 575 LINE SMOOTH",
"287 575 OFFCURVE",
"328 548 OFFCURVE",
"328 491 CURVE SMOOTH",
"328 385 LINE SMOOTH",
"328 318 OFFCURVE",
"291 284 OFFCURVE",
"220 284 CURVE SMOOTH",
"100 284 LINE"
);
}
);
width = 418;
},
{
background = {
paths = (
{
closed = 1;
nodes = (
"191 0 LINE",
"191 224 LINE",
"265 224 LINE",
"357 224 OFFCURVE",
"382 303 OFFCURVE",
"382 392 CURVE",
"382 490 LINE",
"382 549 OFFCURVE",
"345 591 OFFCURVE",
"257 591 CURVE",
"25 591 LINE",
"25 0 LINE"
);
},
{
closed = 1;
nodes = (
"206 507 LINE",
"223 507 OFFCURVE",
"224 483 OFFCURVE",
"224 418 CURVE SMOOTH",
"224 408 LINE SMOOTH",
"224 335 OFFCURVE",
"217 310 OFFCURVE",
"203 310 CURVE",
"191 310 LINE",
"191 507 LINE"
);
}
);
};
layerId = "8A3706BD-364F-4FE3-9C2E-7E87DF0DB4CC";
paths = (
{
closed = 1;
nodes = (
"191 0 LINE",
"191 224 LINE",
"265 224 LINE SMOOTH",
"357 224 OFFCURVE",
"382 303 OFFCURVE",
"382 392 CURVE SMOOTH",
"382 490 LINE SMOOTH",
"382 549 OFFCURVE",
"345 591 OFFCURVE",
"257 591 CURVE SMOOTH",
"25 591 LINE",
"25 0 LINE"
);
},
{
closed = 1;
nodes = (
"191 507 LINE",
"206 507 LINE SMOOTH",
"223 507 OFFCURVE",
"224 483 OFFCURVE",
"224 418 CURVE SMOOTH",
"224 408 LINE SMOOTH",
"224 335 OFFCURVE",
"217 310 OFFCURVE",
"203 310 CURVE SMOOTH",
"191 310 LINE"
);
}
);
width = 402;
}
);
unicode = 0050;
},
{
glyphname = Thorn;
lastChange = "2021-05-18 00:20:59 +0000";
layers = (
{
background = {
paths = (
{
closed = 1;
nodes = (
"70 0 LINE",
"70 150 LINE",
"110 150 OFFCURVE",
"150 150 OFFCURVE",
"190 150 CURVE SMOOTH",
"298 150 OFFCURVE",
"318 204 OFFCURVE",
"318 263 CURVE SMOOTH",
"318 376 LINE SMOOTH",
"318 448 OFFCURVE",
"269 473 OFFCURVE",
"212 473 CURVE SMOOTH",
"165 473 OFFCURVE",
"117 473 OFFCURVE",
"70 473 CURVE",
"70 591 LINE",
"50 591 LINE",
"50 0 LINE"
);
},
{
closed = 1;
nodes = (
"70 457 LINE",
"74 457 OFFCURVE",
"170 457 OFFCURVE",
"212 457 CURVE SMOOTH",
"257 457 OFFCURVE",
"298 430 OFFCURVE",
"298 373 CURVE SMOOTH",
"298 267 LINE SMOOTH",
"298 200 OFFCURVE",
"262 166 OFFCURVE",
"190 166 CURVE SMOOTH",
"150 166 OFFCURVE",
"110 166 OFFCURVE",
"70 166 CURVE"
);
}
);
};
hints = (
{
horizontal = 1;
place = "{0, 21}";
target = up;
type = BottomGhost;
},
{
horizontal = 1;
place = "{150, 16}";
type = Stem;
},
{
horizontal = 1;
place = "{457, 16}";
type = Stem;
},
{
horizontal = 1;
place = "{591, -20}";
target = down;
type = TopGhost;
},
{
place = "{50, 20}";
type = Stem;
},
{
place = "{298, 20}";
type = Stem;
}
);
layerId = "82B1C968-1149-4E0D-B361-F2F5D539D913";
paths = (
{
closed = 1;
nodes = (
"70 0 LINE",
"70 150 LINE",
"190 150 LINE SMOOTH",
"298 150 OFFCURVE",
"318 204 OFFCURVE",
"318 263 CURVE SMOOTH",
"318 376 LINE SMOOTH",
"318 448 OFFCURVE",
"269 473 OFFCURVE",
"212 473 CURVE SMOOTH",
"70 473 LINE",
"70 591 LINE",
"50 591 LINE",
"50 0 LINE"
);
},
{
closed = 1;
nodes = (
"70 457 LINE",
"212 457 LINE SMOOTH",
"257 457 OFFCURVE",
"298 430 OFFCURVE",
"298 373 CURVE SMOOTH",
"298 267 LINE SMOOTH",
"298 200 OFFCURVE",
"262 166 OFFCURVE",
"190 166 CURVE SMOOTH",
"70 166 LINE"
);
}
);
width = 368;
},
{
background = {
paths = (
{
closed = 1;
nodes = (
"191 0 LINE",
"191 127 LINE",
"216 127 OFFCURVE",
"240 127 OFFCURVE",
"265 127 CURVE SMOOTH",
"357 127 OFFCURVE",
"382 206 OFFCURVE",
"382 295 CURVE SMOOTH",
"382 393 LINE SMOOTH",
"382 453 OFFCURVE",
"345 494 OFFCURVE",
"257 494 CURVE SMOOTH",
"235 494 OFFCURVE",
"214 494 OFFCURVE",
"192 494 CURVE",
"192 591 LINE",
"25 591 LINE",
"25 0 LINE"
);
},
{
closed = 1;
nodes = (
"191 410 LINE",
"200 410 OFFCURVE",
"200 410 OFFCURVE",
"206 410 CURVE SMOOTH",
"224 410 OFFCURVE",
"224 387 OFFCURVE",
"224 321 CURVE SMOOTH",
"224 311 LINE SMOOTH",
"224 238 OFFCURVE",
"218 213 OFFCURVE",
"203 213 CURVE SMOOTH",
"199 213 OFFCURVE",
"195 213 OFFCURVE",
"191 213 CURVE"
);
}
);
};
layerId = "8A3706BD-364F-4FE3-9C2E-7E87DF0DB4CC";
paths = (
{
closed = 1;
nodes = (
"191 0 LINE",
"191 127 LINE",
"265 127 LINE SMOOTH",
"357 127 OFFCURVE",
"382 206 OFFCURVE",
"382 295 CURVE SMOOTH",
"382 393 LINE SMOOTH",
"382 453 OFFCURVE",
"345 494 OFFCURVE",
"257 494 CURVE SMOOTH",
"192 494 LINE",
"192 591 LINE",
"25 591 LINE",
"25 0 LINE"
);
},
{
closed = 1;
nodes = (
"191 410 LINE",
"206 410 LINE SMOOTH",
"224 410 OFFCURVE",
"224 387 OFFCURVE",
"224 321 CURVE SMOOTH",
"224 311 LINE SMOOTH",
"224 238 OFFCURVE",
"218 213 OFFCURVE",
"203 213 CURVE SMOOTH",
"191 213 LINE"
);
}
);
width = 407;
}
);
note = Thorn;
unicode = 00DE;
},
{
color = 4;
glyphname = Q;
lastChange = "2021-05-18 01:31:52 +0000";
layers = (
{
background = {
paths = (
{
closed = 1;
nodes = (
"340 -100 LINE",
"282 -4 LINE",
"324 8 OFFCURVE",
"350 39 OFFCURVE",
"350 118 CURVE",
"350 469 LINE",
"350 583 OFFCURVE",
"292 599 OFFCURVE",
"214 599 CURVE",
"136 599 OFFCURVE",
"77 585 OFFCURVE",
"77 469 CURVE",
"77 118 LINE",
"77 4 OFFCURVE",
"135 -12 OFFCURVE",
"212 -12 CURVE",
"230 -12 OFFCURVE",
"246 -11 OFFCURVE",
"261 -9 CURVE",
"321 -111 LINE"
);
},
{
closed = 1;
nodes = (
"144 4 OFFCURVE",
"96 17 OFFCURVE",
"96 121 CURVE",
"96 466 LINE",
"96 570 OFFCURVE",
"144 583 OFFCURVE",
"213 583 CURVE",
"281 583 OFFCURVE",
"330 570 OFFCURVE",
"330 466 CURVE",
"330 121 LINE",
"330 17 OFFCURVE",
"283 4 OFFCURVE",
"213 4 CURVE"
);
}
);
};
layerId = "82B1C968-1149-4E0D-B361-F2F5D539D913";
paths = (
{
closed = 1;
nodes = (
"340 -100 LINE",
"282 -4 LINE",
"324 8 OFFCURVE",
"350 39 OFFCURVE",
"350 118 CURVE SMOOTH",
"350 469 LINE SMOOTH",
"350 583 OFFCURVE",
"292 599 OFFCURVE",
"214 599 CURVE SMOOTH",
"136 599 OFFCURVE",
"77 585 OFFCURVE",
"77 469 CURVE SMOOTH",
"77 118 LINE SMOOTH",
"77 4 OFFCURVE",
"135 -12 OFFCURVE",
"212 -12 CURVE SMOOTH",
"230 -12 OFFCURVE",
"246 -11 OFFCURVE",
"261 -9 CURVE",
"321 -111 LINE"
);
},
{
closed = 1;
nodes = (
"144 4 OFFCURVE",
"96 17 OFFCURVE",
"96 121 CURVE SMOOTH",
"96 466 LINE SMOOTH",
"96 570 OFFCURVE",
"144 583 OFFCURVE",
"213 583 CURVE SMOOTH",
"281 583 OFFCURVE",
"330 570 OFFCURVE",
"330 466 CURVE SMOOTH",
"330 121 LINE SMOOTH",
"330 17 OFFCURVE",
"283 4 OFFCURVE",
"213 4 CURVE SMOOTH"
);
}
);
width = 427;
},
{
background = {
paths = (
{
closed = 1;
nodes = (
"385 -68 LINE",
"334 20 LINE",
"364 47 OFFCURVE",
"381 93 OFFCURVE",
"381 174 CURVE",
"381 465 LINE",
"381 564 OFFCURVE",
"315 600 OFFCURVE",
"206 600 CURVE",
"97 600 OFFCURVE",
"24 564 OFFCURVE",
"24 465 CURVE",
"24 173 LINE",
"24 14 OFFCURVE",
"97 -12 OFFCURVE",
"206 -12 CURVE",
"208 -12 OFFCURVE",
"211 -12 OFFCURVE",
"213 -12 CURVE",
"281 -129 LINE"
);
},
{
closed = 1;
nodes = (
"196 80 OFFCURVE",
"190 87 OFFCURVE",
"190 110 CURVE",
"190 473 LINE",
"190 496 OFFCURVE",
"196 503 OFFCURVE",
"206 503 CURVE",
"215 503 OFFCURVE",
"222 496 OFFCURVE",
"222 473 CURVE",
"222 110 LINE",
"222 87 OFFCURVE",
"215 80 OFFCURVE",
"206 80 CURVE"
);
}
);
};
layerId = "8A3706BD-364F-4FE3-9C2E-7E87DF0DB4CC";
paths = (
{
closed = 1;
nodes = (
"385 -68 LINE",
"333 24 LINE",
"366 51 OFFCURVE",
"385 97 OFFCURVE",
"385 178 CURVE SMOOTH",
"385 465 LINE SMOOTH",
"385 564 OFFCURVE",
"317 600 OFFCURVE",
"206 600 CURVE SMOOTH",
"95 600 OFFCURVE",
"20 564 OFFCURVE",
"20 465 CURVE SMOOTH",
"20 177 LINE SMOOTH",
"20 18 OFFCURVE",
"93 -8 OFFCURVE",
"199 -8 CURVE SMOOTH",
"204 -8 OFFCURVE",
"208 -8 OFFCURVE",
"213 -8 CURVE",
"281 -129 LINE"
);
},
{
closed = 1;
nodes = (
"194 84 OFFCURVE",
"186 91 OFFCURVE",
"186 114 CURVE SMOOTH",
"186 473 LINE SMOOTH",
"186 496 OFFCURVE",
"194 503 OFFCURVE",
"206 503 CURVE SMOOTH",
"217 503 OFFCURVE",
"226 496 OFFCURVE",
"226 473 CURVE SMOOTH",
"226 114 LINE SMOOTH",
"226 91 OFFCURVE",
"217 84 OFFCURVE",
"206 84 CURVE SMOOTH"
);
}
);
width = 405;
}
);
leftMetricsKey = O;
rightMetricsKey = O;
unicode = 0051;
},
{
color = 4;
glyphname = R;
lastChange = "2021-05-18 01:31:42 +0000";
layers = (
{
background = {
paths = (
{
closed = 1;
nodes = (
"99 0 LINE",
"99 288 LINE",
"203 288 LINE",
"255 288 OFFCURVE",
"274 243 OFFCURVE",
"287 201 CURVE",
"350 0 LINE",
"370 0 LINE",
"348 68 OFFCURVE",
"327 135 OFFCURVE",
"305 203 CURVE",
"290 251 OFFCURVE",
"271 290 OFFCURVE",
"243 292 CURVE",
"304 293 OFFCURVE",
"348 333 OFFCURVE",
"348 396 CURVE",
"348 494 LINE",
"348 566 OFFCURVE",
"298 591 OFFCURVE",
"241 591 CURVE",
"80 591 LINE",
"80 0 LINE"
);
},
{
closed = 1;
nodes = (
"99 575 LINE",
"242 575 LINE",
"287 575 OFFCURVE",
"328 548 OFFCURVE",
"328 491 CURVE",
"328 404 LINE",
"328 330 OFFCURVE",
"291 303 OFFCURVE",
"220 303 CURVE",
"99 303 LINE"
);
}
);
};
layerId = "82B1C968-1149-4E0D-B361-F2F5D539D913";
paths = (
{
closed = 1;
nodes = (
"99 0 LINE",
"99 288 LINE",
"203 288 LINE SMOOTH",
"255 288 OFFCURVE",
"274 243 OFFCURVE",
"287 201 CURVE SMOOTH",
"350 0 LINE",
"370 0 LINE",
"305 203 LINE SMOOTH",
"286 264 OFFCURVE",
"269 295 OFFCURVE",
"226 293 CURVE",
"226 291 LINE",
"295 291 OFFCURVE",
"348 322 OFFCURVE",
"348 396 CURVE SMOOTH",
"348 494 LINE SMOOTH",
"348 566 OFFCURVE",
"298 591 OFFCURVE",
"241 591 CURVE SMOOTH",
"80 591 LINE",
"80 0 LINE"
);
},
{
closed = 1;
nodes = (
"99 575 LINE",
"242 575 LINE SMOOTH",
"287 575 OFFCURVE",
"328 548 OFFCURVE",
"328 491 CURVE SMOOTH",
"328 404 LINE SMOOTH",
"328 330 OFFCURVE",
"291 303 OFFCURVE",
"220 303 CURVE SMOOTH",
"99 303 LINE"
);
}
);
width = 430;
},
{
background = {
paths = (
{
closed = 1;
nodes = (
"191 0 LINE",
"191 237 LINE",
"191 237 LINE",
"195 237 OFFCURVE",
"198 235 OFFCURVE",
"201 215 CURVE",
"242 0 LINE",
"419 0 LINE",
"401 72 OFFCURVE",
"382 143 OFFCURVE",
"364 215 CURVE",
"346 267 OFFCURVE",
"325 276 OFFCURVE",
"299 278 CURVE",
"373 295 OFFCURVE",
"390 345 OFFCURVE",
"390 400 CURVE",
"390 490 LINE",
"390 549 OFFCURVE",
"353 591 OFFCURVE",
"265 591 CURVE",
"25 591 LINE",
"25 0 LINE"
);
},
{
closed = 1;
nodes = (
"191 507 LINE",
"210 507 LINE",
"227 507 OFFCURVE",
"234 503 OFFCURVE",
"234 437 CURVE SMOOTH",
"234 432 LINE SMOOTH",
"234 362 OFFCURVE",
"221 347 OFFCURVE",
"207 347 CURVE",
"191 347 LINE"
);
}
);
};
layerId = "8A3706BD-364F-4FE3-9C2E-7E87DF0DB4CC";
paths = (
{
closed = 1;
nodes = (
"191 0 LINE",
"191 237 LINE",
"194 237 LINE",
"199 237 OFFCURVE",
"203 221 OFFCURVE",
"208 194 CURVE SMOOTH",
"242 0 LINE",
"419 0 LINE",
"367 204 LINE SMOOTH",
"355 252 OFFCURVE",
"343 269 OFFCURVE",
"296 278 CURVE",
"296 280 LINE",
"367 288 OFFCURVE",
"390 342 OFFCURVE",
"390 400 CURVE SMOOTH",
"390 490 LINE SMOOTH",
"390 549 OFFCURVE",
"353 591 OFFCURVE",
"265 591 CURVE SMOOTH",
"25 591 LINE",
"25 0 LINE"
);
},
{
closed = 1;
nodes = (
"191 507 LINE",
"210 507 LINE SMOOTH",
"227 507 OFFCURVE",
"234 497 OFFCURVE",
"234 461 CURVE SMOOTH",
"234 396 LINE SMOOTH",
"234 360 OFFCURVE",
"224 347 OFFCURVE",
"207 347 CURVE SMOOTH",
"191 347 LINE"
);
}
);
width = 424;
}
);
leftMetricsKey = H;
unicode = 0052;
},
{
glyphname = S;
lastChange = "2021-05-18 00:20:59 +0000";
layers = (
{
background = {
paths = (
{
closed = 1;
nodes = (
"280 -6 OFFCURVE",
"339 34 OFFCURVE",
"339 149 CURVE",
"339 246 OFFCURVE",
"302 273 OFFCURVE",
"211 309 CURVE",
"152 331 OFFCURVE",
"96 357 OFFCURVE",
"96 444 CURVE",
"96 531 OFFCURVE",
"129 575 OFFCURVE",
"206 575 CURVE",
"275 575 OFFCURVE",
"315 533 OFFCURVE",
"315 465 CURVE",
"315 452 OFFCURVE",
"315 418 OFFCURVE",
"315 405 CURVE",
"321 405 OFFCURVE",
"327 405 OFFCURVE",
"333 405 CURVE",
"333 418 OFFCURVE",
"333 452 OFFCURVE",
"333 465 CURVE",
"333 544 OFFCURVE",
"285 591 OFFCURVE",
"206 591 CURVE",
"115 591 OFFCURVE",
"78 539 OFFCURVE",
"78 444 CURVE",
"78 350 OFFCURVE",
"135 319 OFFCURVE",
"196 296 CURVE",
"273 267 OFFCURVE",
"320 248 OFFCURVE",
"320 149 CURVE",
"320 46 OFFCURVE",
"269 11 OFFCURVE",
"202 11 CURVE",
"138 11 OFFCURVE",
"93 46 OFFCURVE",
"93 166 CURVE",
"93 170 OFFCURVE",
"93 194 OFFCURVE",
"93 198 CURVE",
"87 198 OFFCURVE",
"81 198 OFFCURVE",
"75 198 CURVE",
"75 194 OFFCURVE",
"75 170 OFFCURVE",
"75 166 CURVE",
"75 36 OFFCURVE",
"125 -6 OFFCURVE",
"202 -6 CURVE"
);
}
);
};
layerId = "82B1C968-1149-4E0D-B361-F2F5D539D913";
paths = (
{
closed = 1;
nodes = (
"280 -6 OFFCURVE",
"339 34 OFFCURVE",
"339 149 CURVE SMOOTH",
"339 246 OFFCURVE",
"302 273 OFFCURVE",
"211 309 CURVE SMOOTH",
"152 331 OFFCURVE",
"96 357 OFFCURVE",
"96 444 CURVE SMOOTH",
"96 531 OFFCURVE",
"129 575 OFFCURVE",
"206 575 CURVE SMOOTH",
"275 575 OFFCURVE",
"315 533 OFFCURVE",
"315 465 CURVE SMOOTH",
"315 405 LINE",
"321 405 OFFCURVE",
"327 405 OFFCURVE",
"333 405 CURVE",
"333 465 LINE SMOOTH",
"333 544 OFFCURVE",
"285 591 OFFCURVE",
"206 591 CURVE SMOOTH",
"115 591 OFFCURVE",
"78 539 OFFCURVE",
"78 444 CURVE SMOOTH",
"78 350 OFFCURVE",
"135 319 OFFCURVE",
"196 296 CURVE SMOOTH",
"273 267 OFFCURVE",
"320 248 OFFCURVE",
"320 149 CURVE SMOOTH",
"320 46 OFFCURVE",
"269 11 OFFCURVE",
"202 11 CURVE SMOOTH",
"138 11 OFFCURVE",
"93 46 OFFCURVE",
"93 166 CURVE SMOOTH",
"93 198 LINE",
"87 198 OFFCURVE",
"81 198 OFFCURVE",
"75 198 CURVE",
"75 166 LINE SMOOTH",
"75 36 OFFCURVE",
"125 -6 OFFCURVE",
"202 -6 CURVE SMOOTH"
);
}
);
width = 414;
},
{
background = {
paths = (
{
closed = 1;
nodes = (
"321 -8 OFFCURVE",
"397 36 OFFCURVE",
"397 171 CURVE",
"397 290 OFFCURVE",
"360 313 OFFCURVE",
"272 345 CURVE",
"229 361 OFFCURVE",
"190 368 OFFCURVE",
"190 427 CURVE",
"190 456 OFFCURVE",
"193 467 OFFCURVE",
"210 467 CURVE",
"231 467 OFFCURVE",
"231 453 OFFCURVE",
"231 399 CURVE",
"231 394 OFFCURVE",
"231 378 OFFCURVE",
"231 373 CURVE",
"284 373 OFFCURVE",
"337 373 OFFCURVE",
"390 373 CURVE",
"390 395 OFFCURVE",
"390 427 OFFCURVE",
"390 449 CURVE",
"390 546 OFFCURVE",
"328 593 OFFCURVE",
"208 593 CURVE",
"68 593 OFFCURVE",
"25 548 OFFCURVE",
"25 422 CURVE",
"25 332 OFFCURVE",
"46 279 OFFCURVE",
"121 246 CURVE",
"201 211 OFFCURVE",
"228 211 OFFCURVE",
"228 147 CURVE",
"228 101 OFFCURVE",
"223 92 OFFCURVE",
"208 92 CURVE",
"194 92 OFFCURVE",
"187 101 OFFCURVE",
"187 155 CURVE",
"187 170 OFFCURVE",
"187 191 OFFCURVE",
"187 206 CURVE",
"131 206 OFFCURVE",
"76 206 OFFCURVE",
"20 206 CURVE",
"20 200 OFFCURVE",
"20 175 OFFCURVE",
"20 169 CURVE",
"20 26 OFFCURVE",
"83 -8 OFFCURVE",
"202 -8 CURVE"
);
}
);
};
layerId = "8A3706BD-364F-4FE3-9C2E-7E87DF0DB4CC";
paths = (
{
closed = 1;
nodes = (
"321 -8 OFFCURVE",
"397 36 OFFCURVE",
"397 171 CURVE SMOOTH",
"397 290 OFFCURVE",
"360 313 OFFCURVE",
"272 345 CURVE SMOOTH",
"229 361 OFFCURVE",
"190 368 OFFCURVE",
"190 427 CURVE SMOOTH",
"190 456 OFFCURVE",
"193 467 OFFCURVE",
"210 467 CURVE SMOOTH",
"231 467 OFFCURVE",
"231 453 OFFCURVE",
"231 399 CURVE SMOOTH",
"231 373 LINE",
"284 373 OFFCURVE",
"337 373 OFFCURVE",
"390 373 CURVE",
"390 449 LINE SMOOTH",
"390 546 OFFCURVE",
"328 593 OFFCURVE",
"208 593 CURVE SMOOTH",
"68 593 OFFCURVE",
"25 548 OFFCURVE",
"25 422 CURVE SMOOTH",
"25 332 OFFCURVE",
"46 279 OFFCURVE",
"121 246 CURVE SMOOTH",
"201 211 OFFCURVE",
"228 211 OFFCURVE",
"228 147 CURVE SMOOTH",
"228 101 OFFCURVE",
"223 92 OFFCURVE",
"208 92 CURVE SMOOTH",
"194 92 OFFCURVE",
"187 101 OFFCURVE",
"187 155 CURVE SMOOTH",
"187 206 LINE",
"131 206 OFFCURVE",
"76 206 OFFCURVE",
"20 206 CURVE",
"20 169 LINE SMOOTH",
"20 26 OFFCURVE",
"83 -8 OFFCURVE",
"202 -8 CURVE SMOOTH"
);
}
);
width = 417;
}
);
unicode = 0053;
},
{
glyphname = Germandbls;
lastChange = "2021-05-18 00:20:59 +0000";
layers = (
{
background = {
paths = (
{
closed = 1;
nodes = (
"280 -6 OFFCURVE",
"339 34 OFFCURVE",
"339 149 CURVE",
"339 246 OFFCURVE",
"302 273 OFFCURVE",
"211 309 CURVE",
"152 331 OFFCURVE",
"96 357 OFFCURVE",
"96 444 CURVE",
"96 531 OFFCURVE",
"129 575 OFFCURVE",
"206 575 CURVE",
"275 575 OFFCURVE",
"315 533 OFFCURVE",
"315 465 CURVE",
"315 452 OFFCURVE",
"315 418 OFFCURVE",
"315 405 CURVE",
"321 405 OFFCURVE",
"327 405 OFFCURVE",
"333 405 CURVE",
"333 418 OFFCURVE",
"333 452 OFFCURVE",
"333 465 CURVE",
"333 544 OFFCURVE",
"285 591 OFFCURVE",
"206 591 CURVE",
"115 591 OFFCURVE",
"78 539 OFFCURVE",
"78 444 CURVE",
"78 350 OFFCURVE",
"135 319 OFFCURVE",
"196 296 CURVE",
"273 267 OFFCURVE",
"320 248 OFFCURVE",
"320 149 CURVE",
"320 46 OFFCURVE",
"269 11 OFFCURVE",
"202 11 CURVE",
"138 11 OFFCURVE",
"93 46 OFFCURVE",
"93 166 CURVE",
"93 170 OFFCURVE",
"93 194 OFFCURVE",
"93 198 CURVE",
"87 198 OFFCURVE",
"81 198 OFFCURVE",
"75 198 CURVE",
"75 194 OFFCURVE",
"75 170 OFFCURVE",
"75 166 CURVE",
"75 36 OFFCURVE",
"125 -6 OFFCURVE",
"202 -6 CURVE"
);
},
{
closed = 1;
nodes = (
"623 -6 OFFCURVE",
"682 34 OFFCURVE",
"682 149 CURVE",
"682 246 OFFCURVE",
"645 273 OFFCURVE",
"554 309 CURVE",
"495 331 OFFCURVE",
"439 357 OFFCURVE",
"439 444 CURVE",
"439 531 OFFCURVE",
"472 575 OFFCURVE",
"549 575 CURVE",
"618 575 OFFCURVE",
"658 533 OFFCURVE",
"658 465 CURVE",
"658 452 OFFCURVE",
"658 418 OFFCURVE",
"658 405 CURVE",
"664 405 OFFCURVE",
"670 405 OFFCURVE",
"676 405 CURVE",
"676 418 OFFCURVE",
"676 452 OFFCURVE",
"676 465 CURVE",
"676 544 OFFCURVE",
"628 591 OFFCURVE",
"549 591 CURVE",
"458 591 OFFCURVE",
"421 539 OFFCURVE",
"421 444 CURVE",
"421 350 OFFCURVE",
"478 319 OFFCURVE",
"539 296 CURVE",
"616 267 OFFCURVE",
"663 248 OFFCURVE",
"663 149 CURVE",
"663 46 OFFCURVE",
"612 11 OFFCURVE",
"545 11 CURVE",
"481 11 OFFCURVE",
"436 46 OFFCURVE",
"436 166 CURVE",
"436 170 OFFCURVE",
"436 194 OFFCURVE",
"436 198 CURVE",
"430 198 OFFCURVE",
"424 198 OFFCURVE",
"418 198 CURVE",
"418 194 OFFCURVE",
"418 170 OFFCURVE",
"418 166 CURVE",
"418 36 OFFCURVE",
"468 -6 OFFCURVE",
"545 -6 CURVE"
);
}
);
};
layerId = "82B1C968-1149-4E0D-B361-F2F5D539D913";
paths = (
{
closed = 1;
nodes = (
"623 -6 OFFCURVE",
"682 34 OFFCURVE",
"682 149 CURVE SMOOTH",
"682 246 OFFCURVE",
"645 273 OFFCURVE",
"554 309 CURVE SMOOTH",
"495 331 OFFCURVE",
"439 357 OFFCURVE",
"439 444 CURVE SMOOTH",
"439 531 OFFCURVE",
"472 575 OFFCURVE",
"549 575 CURVE SMOOTH",
"618 575 OFFCURVE",
"658 533 OFFCURVE",
"658 465 CURVE SMOOTH",
"658 405 LINE",
"664 405 OFFCURVE",
"670 405 OFFCURVE",
"676 405 CURVE",
"676 465 LINE SMOOTH",
"676 544 OFFCURVE",
"628 591 OFFCURVE",
"549 591 CURVE SMOOTH",
"458 591 OFFCURVE",
"421 539 OFFCURVE",
"421 444 CURVE SMOOTH",
"421 350 OFFCURVE",
"478 319 OFFCURVE",
"539 296 CURVE SMOOTH",
"616 267 OFFCURVE",
"663 248 OFFCURVE",
"663 149 CURVE SMOOTH",
"663 46 OFFCURVE",
"612 11 OFFCURVE",
"545 11 CURVE SMOOTH",
"481 11 OFFCURVE",
"436 46 OFFCURVE",
"436 166 CURVE SMOOTH",
"436 198 LINE",
"430 198 OFFCURVE",
"424 198 OFFCURVE",
"418 198 CURVE",
"418 166 LINE SMOOTH",
"418 36 OFFCURVE",
"468 -6 OFFCURVE",
"545 -6 CURVE SMOOTH"
);
},
{
closed = 1;
nodes = (
"280 -6 OFFCURVE",
"339 34 OFFCURVE",
"339 149 CURVE SMOOTH",
"339 246 OFFCURVE",
"302 273 OFFCURVE",
"211 309 CURVE SMOOTH",
"152 331 OFFCURVE",
"96 357 OFFCURVE",
"96 444 CURVE SMOOTH",
"96 531 OFFCURVE",
"129 575 OFFCURVE",
"206 575 CURVE SMOOTH",
"275 575 OFFCURVE",
"315 533 OFFCURVE",
"315 465 CURVE SMOOTH",
"315 405 LINE",
"321 405 OFFCURVE",
"327 405 OFFCURVE",
"333 405 CURVE",
"333 465 LINE SMOOTH",
"333 544 OFFCURVE",
"285 591 OFFCURVE",
"206 591 CURVE SMOOTH",
"115 591 OFFCURVE",
"78 539 OFFCURVE",
"78 444 CURVE SMOOTH",
"78 350 OFFCURVE",
"135 319 OFFCURVE",
"196 296 CURVE SMOOTH",
"273 267 OFFCURVE",
"320 248 OFFCURVE",
"320 149 CURVE SMOOTH",
"320 46 OFFCURVE",
"269 11 OFFCURVE",
"202 11 CURVE SMOOTH",
"138 11 OFFCURVE",
"93 46 OFFCURVE",
"93 166 CURVE SMOOTH",
"93 198 LINE",
"87 198 OFFCURVE",
"81 198 OFFCURVE",
"75 198 CURVE",
"75 166 LINE SMOOTH",
"75 36 OFFCURVE",
"125 -6 OFFCURVE",
"202 -6 CURVE SMOOTH"
);
}
);
width = 757;
},
{
background = {
paths = (
{
closed = 1;
nodes = (
"321 -8 OFFCURVE",
"397 36 OFFCURVE",
"397 171 CURVE",
"397 290 OFFCURVE",
"360 313 OFFCURVE",
"272 345 CURVE",
"229 361 OFFCURVE",
"190 368 OFFCURVE",
"190 427 CURVE",
"190 456 OFFCURVE",
"193 467 OFFCURVE",
"210 467 CURVE",
"231 467 OFFCURVE",
"231 453 OFFCURVE",
"231 399 CURVE",
"231 394 OFFCURVE",
"231 378 OFFCURVE",
"231 373 CURVE",
"284 373 OFFCURVE",
"337 373 OFFCURVE",
"390 373 CURVE",
"390 395 OFFCURVE",
"390 427 OFFCURVE",
"390 449 CURVE",
"390 546 OFFCURVE",
"328 593 OFFCURVE",
"208 593 CURVE",
"68 593 OFFCURVE",
"25 548 OFFCURVE",
"25 422 CURVE",
"25 332 OFFCURVE",
"46 279 OFFCURVE",
"121 246 CURVE",
"201 211 OFFCURVE",
"228 211 OFFCURVE",
"228 147 CURVE",
"228 101 OFFCURVE",
"223 92 OFFCURVE",
"208 92 CURVE",
"194 92 OFFCURVE",
"187 101 OFFCURVE",
"187 155 CURVE",
"187 170 OFFCURVE",
"187 191 OFFCURVE",
"187 206 CURVE",
"131 206 OFFCURVE",
"76 206 OFFCURVE",
"20 206 CURVE",
"20 200 OFFCURVE",
"20 175 OFFCURVE",
"20 169 CURVE",
"20 26 OFFCURVE",
"83 -8 OFFCURVE",
"202 -8 CURVE"
);
},
{
closed = 1;
nodes = (
"718 -8 OFFCURVE",
"794 36 OFFCURVE",
"794 171 CURVE",
"794 290 OFFCURVE",
"757 313 OFFCURVE",
"669 345 CURVE",
"626 361 OFFCURVE",
"587 368 OFFCURVE",
"587 427 CURVE",
"587 456 OFFCURVE",
"590 467 OFFCURVE",
"607 467 CURVE",
"628 467 OFFCURVE",
"628 453 OFFCURVE",
"628 399 CURVE",
"628 394 OFFCURVE",
"628 378 OFFCURVE",
"628 373 CURVE",
"681 373 OFFCURVE",
"734 373 OFFCURVE",
"787 373 CURVE",
"787 395 OFFCURVE",
"787 427 OFFCURVE",
"787 449 CURVE",
"787 546 OFFCURVE",
"725 593 OFFCURVE",
"605 593 CURVE",
"465 593 OFFCURVE",
"422 548 OFFCURVE",
"422 422 CURVE",
"422 332 OFFCURVE",
"443 279 OFFCURVE",
"518 246 CURVE",
"598 211 OFFCURVE",
"625 211 OFFCURVE",
"625 147 CURVE",
"625 101 OFFCURVE",
"620 92 OFFCURVE",
"605 92 CURVE",
"591 92 OFFCURVE",
"584 101 OFFCURVE",
"584 155 CURVE",
"584 170 OFFCURVE",
"584 191 OFFCURVE",
"584 206 CURVE",
"528 206 OFFCURVE",
"473 206 OFFCURVE",
"417 206 CURVE",
"417 200 OFFCURVE",
"417 175 OFFCURVE",
"417 169 CURVE",
"417 26 OFFCURVE",
"480 -8 OFFCURVE",
"599 -8 CURVE"
);
}
);
};
layerId = "8A3706BD-364F-4FE3-9C2E-7E87DF0DB4CC";
paths = (
{
closed = 1;
nodes = (
"718 -8 OFFCURVE",
"794 36 OFFCURVE",
"794 171 CURVE SMOOTH",
"794 290 OFFCURVE",
"757 313 OFFCURVE",
"669 345 CURVE SMOOTH",
"626 361 OFFCURVE",
"587 368 OFFCURVE",
"587 427 CURVE SMOOTH",
"587 456 OFFCURVE",
"590 467 OFFCURVE",
"607 467 CURVE SMOOTH",
"628 467 OFFCURVE",
"628 453 OFFCURVE",
"628 399 CURVE SMOOTH",
"628 373 LINE",
"681 373 OFFCURVE",
"734 373 OFFCURVE",
"787 373 CURVE",
"787 449 LINE SMOOTH",
"787 546 OFFCURVE",
"725 593 OFFCURVE",
"605 593 CURVE SMOOTH",
"465 593 OFFCURVE",
"422 548 OFFCURVE",
"422 422 CURVE SMOOTH",
"422 332 OFFCURVE",
"443 279 OFFCURVE",
"518 246 CURVE SMOOTH",
"598 211 OFFCURVE",
"625 211 OFFCURVE",
"625 147 CURVE SMOOTH",
"625 101 OFFCURVE",
"620 92 OFFCURVE",
"605 92 CURVE SMOOTH",
"591 92 OFFCURVE",
"584 101 OFFCURVE",
"584 155 CURVE SMOOTH",
"584 206 LINE",
"528 206 OFFCURVE",
"473 206 OFFCURVE",
"417 206 CURVE",
"417 169 LINE SMOOTH",
"417 26 OFFCURVE",
"480 -8 OFFCURVE",
"599 -8 CURVE SMOOTH"
);
},
{
closed = 1;
nodes = (
"321 -8 OFFCURVE",
"397 36 OFFCURVE",
"397 171 CURVE SMOOTH",
"397 290 OFFCURVE",
"360 313 OFFCURVE",
"272 345 CURVE SMOOTH",
"229 361 OFFCURVE",
"190 368 OFFCURVE",
"190 427 CURVE SMOOTH",
"190 456 OFFCURVE",
"193 467 OFFCURVE",
"210 467 CURVE SMOOTH",
"231 467 OFFCURVE",
"231 453 OFFCURVE",
"231 399 CURVE SMOOTH",
"231 373 LINE",
"284 373 OFFCURVE",
"337 373 OFFCURVE",
"390 373 CURVE",
"390 449 LINE SMOOTH",
"390 546 OFFCURVE",
"328 593 OFFCURVE",
"208 593 CURVE SMOOTH",
"68 593 OFFCURVE",
"25 548 OFFCURVE",
"25 422 CURVE SMOOTH",
"25 332 OFFCURVE",
"46 279 OFFCURVE",
"121 246 CURVE SMOOTH",
"201 211 OFFCURVE",
"228 211 OFFCURVE",
"228 147 CURVE SMOOTH",
"228 101 OFFCURVE",
"223 92 OFFCURVE",
"208 92 CURVE SMOOTH",
"194 92 OFFCURVE",
"187 101 OFFCURVE",
"187 155 CURVE SMOOTH",
"187 206 LINE",
"131 206 OFFCURVE",
"76 206 OFFCURVE",
"20 206 CURVE",
"20 169 LINE SMOOTH",
"20 26 OFFCURVE",
"83 -8 OFFCURVE",
"202 -8 CURVE SMOOTH"
);
}
);
width = 814;
}
);
unicode = 1E9E;
},
{
glyphname = T;
lastChange = "2021-05-18 00:20:56 +0000";
layers = (
{
background = {
paths = (
{
closed = 1;
nodes = (
"151 0 LINE",
"151 575 LINE",
"259 575 LINE",
"259 591 LINE",
"25 591 LINE",
"25 575 LINE",
"131 575 LINE",
"131 0 LINE"
);
}
);
};
layerId = "82B1C968-1149-4E0D-B361-F2F5D539D913";
paths = (
{
closed = 1;
nodes = (
"151 0 LINE",
"151 575 LINE",
"259 575 LINE",
"259 591 LINE",
"25 591 LINE",
"25 575 LINE",
"131 575 LINE",
"131 0 LINE"
);
}
);
width = 284;
},
{
background = {
paths = (
{
closed = 1;
nodes = (
"249 0 LINE",
"249 480 LINE",
"334 480 LINE",
"334 591 LINE",
"5 591 LINE",
"5 480 LINE",
"90 480 LINE",
"90 0 LINE"
);
}
);
};
layerId = "8A3706BD-364F-4FE3-9C2E-7E87DF0DB4CC";
paths = (
{
closed = 1;
nodes = (
"249 0 LINE",
"249 480 LINE",
"334 480 LINE",
"334 591 LINE",
"5 591 LINE",
"5 480 LINE",
"90 480 LINE",
"90 0 LINE"
);
}
);
width = 339;
}
);
unicode = 0054;
},
{
glyphname = U;
lastChange = "2021-05-18 00:20:59 +0000";
layers = (
{
background = {
paths = (
{
closed = 1;
nodes = (
"283 -12 OFFCURVE",
"347 5 OFFCURVE",
"347 110 CURVE",
"347 591 LINE",
"328 591 LINE",
"328 113 LINE",
"328 21 OFFCURVE",
"272 4 OFFCURVE",
"211 4 CURVE",
"150 4 OFFCURVE",
"95 21 OFFCURVE",
"95 113 CURVE",
"95 591 LINE",
"75 591 LINE",
"75 110 LINE",
"75 5 OFFCURVE",
"140 -12 OFFCURVE",
"211 -12 CURVE"
);
}
);
};
layerId = "82B1C968-1149-4E0D-B361-F2F5D539D913";
paths = (
{
closed = 1;
nodes = (
"283 -12 OFFCURVE",
"347 5 OFFCURVE",
"347 110 CURVE SMOOTH",
"347 591 LINE",
"328 591 LINE",
"328 113 LINE SMOOTH",
"328 21 OFFCURVE",
"272 4 OFFCURVE",
"211 4 CURVE SMOOTH",
"150 4 OFFCURVE",
"95 21 OFFCURVE",
"95 113 CURVE SMOOTH",
"95 591 LINE",
"75 591 LINE",
"75 110 LINE SMOOTH",
"75 5 OFFCURVE",
"140 -12 OFFCURVE",
"211 -12 CURVE SMOOTH"
);
}
);
width = 422;
},
{
background = {
paths = (
{
closed = 1;
nodes = (
"307 -12 OFFCURVE",
"377 4 OFFCURVE",
"377 164 CURVE",
"377 591 LINE",
"218 591 LINE",
"218 115 LINE",
"218 92 OFFCURVE",
"211 85 OFFCURVE",
"201 85 CURVE",
"191 85 OFFCURVE",
"184 92 OFFCURVE",
"184 115 CURVE",
"184 591 LINE",
"25 591 LINE",
"25 163 LINE",
"25 4 OFFCURVE",
"95 -12 OFFCURVE",
"201 -12 CURVE"
);
}
);
};
layerId = "8A3706BD-364F-4FE3-9C2E-7E87DF0DB4CC";
paths = (
{
closed = 1;
nodes = (
"307 -12 OFFCURVE",
"377 4 OFFCURVE",
"377 164 CURVE SMOOTH",
"377 591 LINE",
"218 591 LINE",
"218 115 LINE SMOOTH",
"218 92 OFFCURVE",
"211 85 OFFCURVE",
"201 85 CURVE SMOOTH",
"191 85 OFFCURVE",
"184 92 OFFCURVE",
"184 115 CURVE SMOOTH",
"184 591 LINE",
"25 591 LINE",
"25 163 LINE SMOOTH",
"25 4 OFFCURVE",
"95 -12 OFFCURVE",
"201 -12 CURVE SMOOTH"
);
}
);
width = 402;
}
);
unicode = 0055;
},
{
color = 4;
glyphname = V;
lastChange = "2021-05-18 01:31:39 +0000";
layers = (
{
background = {
paths = (
{
closed = 1;
nodes = (
"155 0 LINE",
"277 591 LINE",
"258 591 LINE",
"149 57 LINE",
"149 57 LINE",
"149 57 LINE",
"38 591 LINE",
"20 591 LINE",
"142 0 LINE"
);
}
);
};
layerId = "82B1C968-1149-4E0D-B361-F2F5D539D913";
paths = (
{
closed = 1;
nodes = (
"155 0 LINE",
"277 591 LINE",
"258 591 LINE",
"147 48 LINE",
"151 48 LINE",
"38 591 LINE",
"20 591 LINE",
"142 0 LINE"
);
}
);
width = 297;
},
{
background = {
paths = (
{
closed = 1;
nodes = (
"325 0 LINE",
"413 591 LINE",
"254 591 LINE",
"214 181 LINE",
"212 157 LINE",
"211 181 LINE",
"175 591 LINE",
"10 591 LINE",
"96 0 LINE"
);
}
);
};
layerId = "8A3706BD-364F-4FE3-9C2E-7E87DF0DB4CC";
paths = (
{
closed = 1;
nodes = (
"325 0 LINE",
"413 591 LINE",
"254 591 LINE",
"213 157 LINE",
"211 157 LINE",
"175 591 LINE",
"10 591 LINE",
"96 0 LINE"
);
}
);
width = 423;
}
);
unicode = 0056;
},
{
glyphname = W;
lastChange = "2021-05-18 00:20:56 +0000";
layers = (
{
background = {
paths = (
{
closed = 1;
nodes = (
"141 0 LINE",
"250 534 LINE",
"360 0 LINE",
"382 0 LINE",
"479 591 LINE",
"461 591 LINE",
"369 38 LINE",
"256 591 LINE",
"243 591 LINE",
"129 37 LINE",
"38 591 LINE",
"20 591 LINE",
"117 0 LINE"
);
}
);
};
layerId = "82B1C968-1149-4E0D-B361-F2F5D539D913";
paths = (
{
closed = 1;
nodes = (
"141 0 LINE",
"250 534 LINE",
"360 0 LINE",
"382 0 LINE",
"479 591 LINE",
"461 591 LINE",
"369 38 LINE",
"256 591 LINE",
"243 591 LINE",
"129 37 LINE",
"38 591 LINE",
"20 591 LINE",
"117 0 LINE"
);
}
);
width = 499;
},
{
background = {
paths = (
{
closed = 1;
nodes = (
"277 0 LINE",
"315 258 LINE",
"354 0 LINE",
"540 0 LINE",
"626 591 LINE",
"461 591 LINE",
"420 200 LINE",
"382 591 LINE",
"249 591 LINE",
"211 200 LINE",
"170 591 LINE",
"5 591 LINE",
"91 0 LINE"
);
}
);
};
layerId = "8A3706BD-364F-4FE3-9C2E-7E87DF0DB4CC";
paths = (
{
closed = 1;
nodes = (
"277 0 LINE",
"315 258 LINE",
"354 0 LINE",
"540 0 LINE",
"626 591 LINE",
"461 591 LINE",
"420 200 LINE",
"382 591 LINE",
"249 591 LINE",
"211 200 LINE",
"170 591 LINE",
"5 591 LINE",
"91 0 LINE"
);
}
);
width = 631;
}
);
unicode = 0057;
},
{
glyphname = X;
lastChange = "2021-05-18 00:20:56 +0000";
layers = (
{
background = {
paths = (
{
closed = 1;
nodes = (
"40 0 LINE",
"139 292 LINE",
"236 0 LINE",
"256 0 LINE",
"157 297 LINE",
"258 591 LINE",
"240 591 LINE",
"139 300 LINE",
"50 591 LINE",
"31 591 LINE",
"121 298 LINE",
"20 0 LINE"
);
}
);
};
layerId = "82B1C968-1149-4E0D-B361-F2F5D539D913";
paths = (
{
closed = 1;
nodes = (
"40 0 LINE",
"139 292 LINE",
"236 0 LINE",
"256 0 LINE",
"157 297 LINE",
"258 591 LINE",
"240 591 LINE",
"139 300 LINE",
"50 591 LINE",
"31 591 LINE",
"121 298 LINE",
"20 0 LINE"
);
}
);
width = 278;
},
{
background = {
paths = (
{
closed = 1;
nodes = (
"174 0 LINE",
"203 154 LINE",
"238 0 LINE",
"397 0 LINE",
"322 307 LINE",
"399 591 LINE",
"230 591 LINE",
"201 436 LINE",
"166 591 LINE",
"7 591 LINE",
"86 307 LINE",
"5 0 LINE"
);
}
);
};
layerId = "8A3706BD-364F-4FE3-9C2E-7E87DF0DB4CC";
paths = (
{
closed = 1;
nodes = (
"174 0 LINE",
"203 154 LINE",
"238 0 LINE",
"397 0 LINE",
"322 307 LINE",
"399 591 LINE",
"230 591 LINE",
"201 436 LINE",
"166 591 LINE",
"7 591 LINE",
"86 307 LINE",
"5 0 LINE"
);
}
);
width = 404;
}
);
unicode = 0058;
},
{
glyphname = Y;
lastChange = "2021-05-18 00:20:56 +0000";
layers = (
{
background = {
paths = (
{
closed = 1;
nodes = (
"149 0 LINE",
"149 265 LINE",
"269 591 LINE",
"246 591 LINE",
"142 295 LINE",
"140 289 LINE",
"138 295 LINE",
"43 591 LINE",
"20 591 LINE",
"129 266 LINE",
"129 0 LINE"
);
}
);
};
layerId = "82B1C968-1149-4E0D-B361-F2F5D539D913";
paths = (
{
closed = 1;
nodes = (
"149 0 LINE",
"149 265 LINE",
"269 591 LINE",
"246 591 LINE",
"142 295 LINE",
"140 289 LINE",
"138 295 LINE",
"43 591 LINE",
"20 591 LINE",
"129 266 LINE",
"129 0 LINE"
);
}
);
width = 289;
},
{
background = {
paths = (
{
closed = 1;
nodes = (
"280 0 LINE",
"280 236 LINE",
"394 591 LINE",
"250 591 LINE",
"217 467 LINE",
"208 415 LINE",
"199 467 LINE",
"167 591 LINE",
"10 591 LINE",
"121 245 LINE",
"121 0 LINE"
);
}
);
};
layerId = "8A3706BD-364F-4FE3-9C2E-7E87DF0DB4CC";
paths = (
{
closed = 1;
nodes = (
"280 0 LINE",
"280 236 LINE",
"394 591 LINE",
"250 591 LINE",
"217 467 LINE",
"208 415 LINE",
"199 467 LINE",
"167 591 LINE",
"10 591 LINE",
"121 245 LINE",
"121 0 LINE"
);
}
);
width = 404;
}
);
unicode = 0059;
},
{
glyphname = Z;
lastChange = "2021-05-18 00:20:56 +0000";
layers = (
{
background = {
paths = (
{
closed = 1;
nodes = (
"240 0 LINE",
"240 16 LINE",
"40 16 LINE",
"240 571 LINE",
"240 591 LINE",
"32 591 LINE",
"32 575 LINE",
"217 575 LINE",
"20 20 LINE",
"20 0 LINE"
);
}
);
};
layerId = "82B1C968-1149-4E0D-B361-F2F5D539D913";
paths = (
{
closed = 1;
nodes = (
"240 0 LINE",
"240 16 LINE",
"40 16 LINE",
"240 571 LINE",
"240 591 LINE",
"32 591 LINE",
"32 575 LINE",
"217 575 LINE",
"20 20 LINE",
"20 0 LINE"
);
}
);
width = 260;
},
{
background = {
paths = (
{
closed = 1;
nodes = (
"298 0 LINE",
"298 111 LINE",
"183 111 LINE",
"298 516 LINE",
"298 591 LINE",
"20 591 LINE",
"20 480 LINE",
"117 480 LINE",
"10 98 LINE",
"10 0 LINE"
);
}
);
};
layerId = "8A3706BD-364F-4FE3-9C2E-7E87DF0DB4CC";
paths = (
{
closed = 1;
nodes = (
"298 0 LINE",
"298 111 LINE",
"183 111 LINE",
"298 516 LINE",
"298 591 LINE",
"20 591 LINE",
"20 480 LINE",
"117 480 LINE",
"10 98 LINE",
"10 0 LINE"
);
}
);
width = 308;
}
);
unicode = 005A;
},
{
glyphname = a;
lastChange = "2021-05-18 00:43:11 +0000";
layers = (
{
background = {
paths = (
{
closed = 1;
nodes = (
"182 -7 OFFCURVE",
"218 4 OFFCURVE",
"244 32 CURVE",
"254 42 OFFCURVE",
"261 55 OFFCURVE",
"266 68 CURVE",
"267 0 LINE",
"286 0 LINE",
"286 403 LINE",
"286 456 OFFCURVE",
"276 505 OFFCURVE",
"172 505 CURVE",
"76 505 OFFCURVE",
"55 452 OFFCURVE",
"55 378 CURVE",
"55 334 LINE",
"74 334 LINE",
"74 376 LINE",
"74 447 OFFCURVE",
"91 489 OFFCURVE",
"172 489 CURVE",
"219 489 OFFCURVE",
"267 477 OFFCURVE",
"267 415 CURVE",
"267 398 LINE",
"267 358 OFFCURVE",
"246 338 OFFCURVE",
"203 311 CURVE",
"168 290 OFFCURVE",
"126 272 OFFCURVE",
"95 247 CURVE",
"68 225 OFFCURVE",
"42 194 OFFCURVE",
"42 147 CURVE",
"42 136 OFFCURVE",
"42 125 OFFCURVE",
"42 114 CURVE",
"42 -1 OFFCURVE",
"105 -7 OFFCURVE",
"146 -7 CURVE"
);
},
{
closed = 1;
nodes = (
"113 10 OFFCURVE",
"62 12 OFFCURVE",
"62 114 CURVE",
"62 143 LINE",
"62 183 OFFCURVE",
"79 209 OFFCURVE",
"101 229 CURVE",
"137 261 OFFCURVE",
"193 281 OFFCURVE",
"234 310 CURVE",
"247 319 OFFCURVE",
"259 330 OFFCURVE",
"266 341 CURVE",
"266 158 LINE",
"266 69 OFFCURVE",
"229 10 OFFCURVE",
"148 10 CURVE"
);
}
);
};
layerId = "82B1C968-1149-4E0D-B361-F2F5D539D913";
paths = (
{
closed = 1;
nodes = (
"197 -7 OFFCURVE",
"246 16 OFFCURVE",
"266 68 CURVE",
"267 0 LINE",
"286 0 LINE",
"286 403 LINE SMOOTH",
"286 456 OFFCURVE",
"276 505 OFFCURVE",
"172 505 CURVE SMOOTH",
"76 505 OFFCURVE",
"55 452 OFFCURVE",
"55 378 CURVE SMOOTH",
"55 334 LINE",
"74 334 LINE",
"74 376 LINE SMOOTH",
"74 447 OFFCURVE",
"91 489 OFFCURVE",
"172 489 CURVE SMOOTH",
"219 489 OFFCURVE",
"267 477 OFFCURVE",
"267 415 CURVE SMOOTH",
"267 398 LINE SMOOTH",
"267 344 OFFCURVE",
"226 323 OFFCURVE",
"155 285 CURVE SMOOTH",
"90 250 OFFCURVE",
"42 213 OFFCURVE",
"42 142 CURVE SMOOTH",
"42 109 LINE SMOOTH",
"42 -1 OFFCURVE",
"105 -7 OFFCURVE",
"146 -7 CURVE SMOOTH"
);
},
{
closed = 1;
nodes = (
"113 10 OFFCURVE",
"62 12 OFFCURVE",
"62 109 CURVE SMOOTH",
"62 138 LINE SMOOTH",
"62 204 OFFCURVE",
"98 234 OFFCURVE",
"160 268 CURVE SMOOTH",
"202 290 OFFCURVE",
"247 312 OFFCURVE",
"266 341 CURVE",
"266 158 LINE SMOOTH",
"266 69 OFFCURVE",
"229 10 OFFCURVE",
"148 10 CURVE SMOOTH"
);
}
);
width = 331;
},
{
background = {
paths = (
{
closed = 1;
nodes = (
"154 -7 OFFCURVE",
"178 5 OFFCURVE",
"189 18 CURVE",
"199 28 OFFCURVE",
"206 39 OFFCURVE",
"208 49 CURVE",
"208 0 LINE",
"364 0 LINE",
"364 386 LINE",
"364 481 OFFCURVE",
"323 505 OFFCURVE",
"188 505 CURVE",
"51 505 OFFCURVE",
"30 452 OFFCURVE",
"30 378 CURVE",
"30 321 LINE",
"171 321 LINE",
"171 363 LINE",
"171 410 OFFCURVE",
"174 423 OFFCURVE",
"188 423 CURVE",
"202 423 OFFCURVE",
"205 412 OFFCURVE",
"205 397 CURVE",
"205 365 LINE",
"205 325 OFFCURVE",
"198 311 OFFCURVE",
"156 297 CURVE SMOOTH",
"127 287 OFFCURVE",
"89 277 OFFCURVE",
"60 255 CURVE",
"37 237 OFFCURVE",
"20 211 OFFCURVE",
"20 170 CURVE",
"20 159 OFFCURVE",
"20 100 OFFCURVE",
"20 89 CURVE",
"20 -10 OFFCURVE",
"89 -7 OFFCURVE",
"118 -7 CURVE"
);
},
{
closed = 1;
nodes = (
"172 93 OFFCURVE",
"171 111 OFFCURVE",
"171 129 CURVE",
"171 158 LINE",
"171 158 OFFCURVE",
"171 185 OFFCURVE",
"171 190 CURVE",
"172 207 OFFCURVE",
"175 214 OFFCURVE",
"184 224 CURVE SMOOTH",
"191 232 OFFCURVE",
"202 236 OFFCURVE",
"205 241 CURVE",
"205 140 LINE SMOOTH",
"205 106 OFFCURVE",
"204 93 OFFCURVE",
"188 93 CURVE"
);
}
);
};
layerId = "8A3706BD-364F-4FE3-9C2E-7E87DF0DB4CC";
paths = (
{
closed = 1;
nodes = (
"161 -8 OFFCURVE",
"201 16 OFFCURVE",
"208 49 CURVE",
"208 0 LINE",
"364 0 LINE",
"364 386 LINE SMOOTH",
"364 481 OFFCURVE",
"323 505 OFFCURVE",
"188 505 CURVE SMOOTH",
"51 505 OFFCURVE",
"30 452 OFFCURVE",
"30 378 CURVE SMOOTH",
"30 321 LINE",
"171 321 LINE",
"171 363 LINE SMOOTH",
"171 410 OFFCURVE",
"174 423 OFFCURVE",
"188 423 CURVE SMOOTH",
"202 423 OFFCURVE",
"205 412 OFFCURVE",
"205 397 CURVE SMOOTH",
"205 365 LINE SMOOTH",
"205 315 OFFCURVE",
"192 309 OFFCURVE",
"135 290 CURVE SMOOTH",
"50 263 OFFCURVE",
"20 229 OFFCURVE",
"20 170 CURVE SMOOTH",
"20 89 LINE SMOOTH",
"20 8 OFFCURVE",
"62 -8 OFFCURVE",
"118 -8 CURVE SMOOTH"
);
},
{
closed = 1;
nodes = (
"172 93 OFFCURVE",
"171 111 OFFCURVE",
"171 129 CURVE SMOOTH",
"171 190 LINE SMOOTH",
"172 207 OFFCURVE",
"175 214 OFFCURVE",
"184 224 CURVE SMOOTH",
"191 232 OFFCURVE",
"202 236 OFFCURVE",
"205 241 CURVE",
"205 140 LINE SMOOTH",
"205 106 OFFCURVE",
"204 93 OFFCURVE",
"188 93 CURVE SMOOTH"
);
}
);
width = 384;
}
);
unicode = 0061;
},
{
glyphname = ae;
lastChange = "2021-05-18 01:38:08 +0000";
layers = (
{
background = {
paths = (
{
closed = 1;
nodes = (
"182 -3 OFFCURVE",
"218 8 OFFCURVE",
"244 32 CURVE",
"254 42 OFFCURVE",
"261 55 OFFCURVE",
"266 68 CURVE",
"267 0 LINE",
"286 0 LINE",
"286 403 LINE",
"286 456 OFFCURVE",
"276 505 OFFCURVE",
"172 505 CURVE",
"76 505 OFFCURVE",
"55 452 OFFCURVE",
"55 378 CURVE",
"55 334 LINE",
"74 334 LINE",
"74 376 LINE",
"74 447 OFFCURVE",
"91 489 OFFCURVE",
"172 489 CURVE",
"219 489 OFFCURVE",
"267 477 OFFCURVE",
"267 415 CURVE",
"267 398 LINE",
"267 358 OFFCURVE",
"246 338 OFFCURVE",
"203 311 CURVE",
"168 290 OFFCURVE",
"126 272 OFFCURVE",
"95 247 CURVE",
"68 225 OFFCURVE",
"42 194 OFFCURVE",
"42 147 CURVE",
"42 136 OFFCURVE",
"42 125 OFFCURVE",
"42 114 CURVE",
"42 3 OFFCURVE",
"105 -3 OFFCURVE",
"146 -3 CURVE"
);
},
{
closed = 1;
nodes = (
"113 14 OFFCURVE",
"62 16 OFFCURVE",
"62 114 CURVE",
"62 143 LINE",
"62 183 OFFCURVE",
"79 209 OFFCURVE",
"101 229 CURVE",
"137 261 OFFCURVE",
"193 281 OFFCURVE",
"234 310 CURVE",
"247 319 OFFCURVE",
"259 330 OFFCURVE",
"266 341 CURVE",
"266 158 LINE",
"266 69 OFFCURVE",
"229 14 OFFCURVE",
"148 14 CURVE"
);
},
{
closed = 1;
nodes = (
"484 127 LINE",
"484 45 OFFCURVE",
"465 16 OFFCURVE",
"385 16 CURVE",
"305 16 OFFCURVE",
"287 38 OFFCURVE",
"287 120 CURVE",
"287 263 LINE",
"504 263 LINE",
"504 385 LINE",
"504 477 OFFCURVE",
"475 505 OFFCURVE",
"386 505 CURVE",
"296 505 OFFCURVE",
"267 477 OFFCURVE",
"267 385 CURVE",
"267 120 LINE",
"267 19 OFFCURVE",
"296 -2 OFFCURVE",
"386 -2 CURVE",
"476 -2 OFFCURVE",
"504 26 OFFCURVE",
"504 127 CURVE",
"504 172 LINE",
"484 172 LINE"
);
},
{
closed = 1;
nodes = (
"287 457 OFFCURVE",
"306 489 OFFCURVE",
"386 489 CURVE",
"466 489 OFFCURVE",
"484 457 OFFCURVE",
"484 384 CURVE",
"484 280 LINE",
"287 280 LINE",
"287 384 LINE"
);
}
);
};
layerId = "82B1C968-1149-4E0D-B361-F2F5D539D913";
paths = (
{
closed = 1;
nodes = (
"206 -3 OFFCURVE",
"251 21 OFFCURVE",
"271 86 CURVE",
"282 60 LINE",
"282 403 LINE SMOOTH",
"282 456 OFFCURVE",
"272 505 OFFCURVE",
"172 505 CURVE SMOOTH",
"76 505 OFFCURVE",
"55 452 OFFCURVE",
"55 378 CURVE SMOOTH",
"55 334 LINE",
"74 334 LINE",
"74 376 LINE SMOOTH",
"74 447 OFFCURVE",
"91 489 OFFCURVE",
"172 489 CURVE SMOOTH",
"219 489 OFFCURVE",
"267 477 OFFCURVE",
"267 415 CURVE SMOOTH",
"267 387 LINE SMOOTH",
"267 351 OFFCURVE",
"224 321 OFFCURVE",
"147 280 CURVE SMOOTH",
"86 247 OFFCURVE",
"42 210 OFFCURVE",
"42 147 CURVE SMOOTH",
"42 114 LINE SMOOTH",
"42 3 OFFCURVE",
"105 -3 OFFCURVE",
"146 -3 CURVE SMOOTH"
);
},
{
closed = 1;
nodes = (
"113 14 OFFCURVE",
"62 16 OFFCURVE",
"62 114 CURVE SMOOTH",
"62 143 LINE SMOOTH",
"62 201 OFFCURVE",
"96 232 OFFCURVE",
"155 265 CURVE SMOOTH",
"200 290 OFFCURVE",
"247 311 OFFCURVE",
"266 341 CURVE",
"266 158 LINE SMOOTH",
"266 69 OFFCURVE",
"229 14 OFFCURVE",
"148 14 CURVE SMOOTH"
);
},
{
closed = 1;
nodes = (
"476 -2 OFFCURVE",
"504 26 OFFCURVE",
"504 127 CURVE SMOOTH",
"504 172 LINE",
"484 172 LINE",
"484 127 LINE SMOOTH",
"484 40 OFFCURVE",
"465 16 OFFCURVE",
"385 16 CURVE SMOOTH",
"305 16 OFFCURVE",
"287 38 OFFCURVE",
"287 120 CURVE SMOOTH",
"287 263 LINE",
"504 263 LINE",
"504 385 LINE SMOOTH",
"504 477 OFFCURVE",
"475 505 OFFCURVE",
"386 505 CURVE SMOOTH",
"296 505 OFFCURVE",
"267 477 OFFCURVE",
"267 385 CURVE SMOOTH",
"267 120 LINE SMOOTH",
"267 19 OFFCURVE",
"296 -2 OFFCURVE",
"386 -2 CURVE SMOOTH"
);
},
{
closed = 1;
nodes = (
"287 384 LINE SMOOTH",
"287 457 OFFCURVE",
"306 489 OFFCURVE",
"386 489 CURVE SMOOTH",
"466 489 OFFCURVE",
"484 457 OFFCURVE",
"484 384 CURVE SMOOTH",
"484 280 LINE",
"287 280 LINE"
);
}
);
width = 554;
},
{
background = {
paths = (
{
closed = 1;
nodes = (
"154 -7 OFFCURVE",
"178 5 OFFCURVE",
"189 18 CURVE",
"199 28 OFFCURVE",
"206 39 OFFCURVE",
"208 49 CURVE",
"208 0 LINE",
"364 0 LINE",
"364 386 LINE",
"364 481 OFFCURVE",
"323 505 OFFCURVE",
"188 505 CURVE",
"51 505 OFFCURVE",
"30 452 OFFCURVE",
"30 378 CURVE",
"30 321 LINE",
"171 321 LINE",
"171 363 LINE",
"171 410 OFFCURVE",
"174 423 OFFCURVE",
"188 423 CURVE",
"202 423 OFFCURVE",
"205 412 OFFCURVE",
"205 397 CURVE",
"205 365 LINE",
"205 325 OFFCURVE",
"198 311 OFFCURVE",
"156 297 CURVE SMOOTH",
"127 287 OFFCURVE",
"89 277 OFFCURVE",
"60 255 CURVE",
"37 237 OFFCURVE",
"20 211 OFFCURVE",
"20 170 CURVE",
"20 159 OFFCURVE",
"20 100 OFFCURVE",
"20 89 CURVE",
"20 -10 OFFCURVE",
"89 -7 OFFCURVE",
"118 -7 CURVE"
);
},
{
closed = 1;
nodes = (
"172 93 OFFCURVE",
"171 111 OFFCURVE",
"171 129 CURVE",
"171 158 LINE",
"171 158 OFFCURVE",
"171 185 OFFCURVE",
"171 190 CURVE",
"172 207 OFFCURVE",
"175 214 OFFCURVE",
"184 224 CURVE SMOOTH",
"191 232 OFFCURVE",
"202 236 OFFCURVE",
"205 241 CURVE",
"205 140 LINE SMOOTH",
"205 106 OFFCURVE",
"204 93 OFFCURVE",
"188 93 CURVE"
);
},
{
closed = 1;
nodes = (
"398 98 LINE",
"398 75 OFFCURVE",
"391 68 OFFCURVE",
"381 68 CURVE",
"371 68 OFFCURVE",
"364 75 OFFCURVE",
"364 98 CURVE",
"364 233 LINE",
"554 233 LINE",
"554 373 LINE",
"554 472 OFFCURVE",
"492 503 OFFCURVE",
"381 503 CURVE",
"270 503 OFFCURVE",
"208 472 OFFCURVE",
"208 373 CURVE",
"208 166 LINE",
"208 7 OFFCURVE",
"275 -2 OFFCURVE",
"381 -2 CURVE",
"487 -2 OFFCURVE",
"554 7 OFFCURVE",
"554 167 CURVE",
"554 188 LINE",
"398 188 LINE"
);
},
{
closed = 1;
nodes = (
"364 416 OFFCURVE",
"371 423 OFFCURVE",
"381 423 CURVE",
"391 423 OFFCURVE",
"398 416 OFFCURVE",
"398 393 CURVE",
"398 300 LINE",
"364 300 LINE",
"364 393 LINE"
);
}
);
};
layerId = "8A3706BD-364F-4FE3-9C2E-7E87DF0DB4CC";
paths = (
{
closed = 1;
nodes = (
"164 -7 OFFCURVE",
"216 13 OFFCURVE",
"239 78 CURVE",
"334 0 LINE",
"334 386 LINE SMOOTH",
"334 464 OFFCURVE",
"300 505 OFFCURVE",
"188 505 CURVE SMOOTH",
"51 505 OFFCURVE",
"30 452 OFFCURVE",
"30 378 CURVE SMOOTH",
"30 321 LINE",
"171 321 LINE",
"171 363 LINE SMOOTH",
"171 410 OFFCURVE",
"174 423 OFFCURVE",
"188 423 CURVE SMOOTH",
"202 423 OFFCURVE",
"205 412 OFFCURVE",
"205 397 CURVE SMOOTH",
"205 365 LINE SMOOTH",
"205 311 OFFCURVE",
"189 308 OFFCURVE",
"131 289 CURVE SMOOTH",
"66 267 OFFCURVE",
"20 239 OFFCURVE",
"20 170 CURVE SMOOTH",
"20 89 LINE SMOOTH",
"20 -10 OFFCURVE",
"89 -7 OFFCURVE",
"118 -7 CURVE SMOOTH"
);
},
{
closed = 1;
nodes = (
"172 93 OFFCURVE",
"171 111 OFFCURVE",
"171 129 CURVE SMOOTH",
"171 190 LINE SMOOTH",
"171 207 OFFCURVE",
"175 214 OFFCURVE",
"184 224 CURVE SMOOTH",
"191 232 OFFCURVE",
"202 236 OFFCURVE",
"205 241 CURVE",
"205 140 LINE SMOOTH",
"205 106 OFFCURVE",
"204 93 OFFCURVE",
"188 93 CURVE SMOOTH"
);
},
{
closed = 1;
nodes = (
"487 -2 OFFCURVE",
"554 7 OFFCURVE",
"554 167 CURVE SMOOTH",
"554 188 LINE",
"398 188 LINE",
"398 98 LINE SMOOTH",
"398 75 OFFCURVE",
"391 68 OFFCURVE",
"381 68 CURVE SMOOTH",
"371 68 OFFCURVE",
"364 75 OFFCURVE",
"364 98 CURVE SMOOTH",
"364 233 LINE",
"554 233 LINE",
"554 373 LINE SMOOTH",
"554 472 OFFCURVE",
"492 503 OFFCURVE",
"381 503 CURVE SMOOTH",
"283 503 OFFCURVE",
"228 445 OFFCURVE",
"228 373 CURVE SMOOTH",
"228 166 LINE SMOOTH",
"228 7 OFFCURVE",
"287 -2 OFFCURVE",
"381 -2 CURVE SMOOTH"
);
},
{
closed = 1;
nodes = (
"364 393 LINE SMOOTH",
"364 416 OFFCURVE",
"371 423 OFFCURVE",
"381 423 CURVE SMOOTH",
"391 423 OFFCURVE",
"398 416 OFFCURVE",
"398 393 CURVE SMOOTH",
"398 300 LINE",
"364 300 LINE"
);
}
);
width = 579;
}
);
leftMetricsKey = a;
rightMetricsKey = e;
unicode = 00E6;
},
{
glyphname = b;
lastChange = "2021-05-18 01:55:37 +0000";
layers = (
{
background = {
paths = (
{
closed = 1;
nodes = (
"70 0 LINE",
"72 47 LINE",
"85 16 OFFCURVE",
"109 -7 OFFCURVE",
"175 -7 CURVE",
"288 -7 OFFCURVE",
"294 62 OFFCURVE",
"294 124 CURVE",
"294 374 LINE",
"294 436 OFFCURVE",
"288 505 OFFCURVE",
"175 505 CURVE",
"120 505 OFFCURVE",
"89 488 OFFCURVE",
"74 464 CURVE",
"74 630 LINE",
"55 630 LINE",
"55 0 LINE"
);
},
{
closed = 1;
nodes = (
"274 73 OFFCURVE",
"278 8 OFFCURVE",
"175 8 CURVE",
"71 8 OFFCURVE",
"75 95 OFFCURVE",
"75 162 CURVE",
"75 383 LINE",
"75 436 OFFCURVE",
"81 489 OFFCURVE",
"175 489 CURVE",
"278 489 OFFCURVE",
"274 424 OFFCURVE",
"274 365 CURVE",
"274 132 LINE"
);
}
);
};
layerId = "82B1C968-1149-4E0D-B361-F2F5D539D913";
paths = (
{
closed = 1;
nodes = (
"288 -7 OFFCURVE",
"294 62 OFFCURVE",
"294 124 CURVE SMOOTH",
"294 374 LINE SMOOTH",
"294 435 OFFCURVE",
"288 503 OFFCURVE",
"175 503 CURVE SMOOTH",
"127 503 OFFCURVE",
"91 491 OFFCURVE",
"74 453 CURVE",
"74 630 LINE",
"55 630 LINE",
"55 0 LINE",
"70 0 LINE",
"72 47 LINE",
"85 16 OFFCURVE",
"109 -7 OFFCURVE",
"175 -7 CURVE SMOOTH"
);
},
{
closed = 1;
nodes = (
"71 8 OFFCURVE",
"75 95 OFFCURVE",
"75 162 CURVE SMOOTH",
"75 381 LINE SMOOTH",
"75 450 OFFCURVE",
"98 487 OFFCURVE",
"175 487 CURVE SMOOTH",
"278 487 OFFCURVE",
"274 423 OFFCURVE",
"274 365 CURVE SMOOTH",
"274 132 LINE SMOOTH",
"274 73 OFFCURVE",
"278 8 OFFCURVE",
"175 8 CURVE SMOOTH"
);
}
);
width = 344;
},
{
background = {
paths = (
{
closed = 1;
nodes = (
"135 0 LINE",
"138 43 LINE",
"146 26 OFFCURVE",
"177 -7 OFFCURVE",
"235 -7 CURVE SMOOTH",
"311 -7 OFFCURVE",
"371 3 OFFCURVE",
"371 154 CURVE",
"371 391 LINE",
"371 489 OFFCURVE",
"312 505 OFFCURVE",
"263 505 CURVE SMOOTH",
"213 505 OFFCURVE",
"193 479 OFFCURVE",
"181 460 CURVE",
"181 630 LINE",
"25 630 LINE",
"25 0 LINE"
);
},
{
closed = 1;
nodes = (
"215 110 OFFCURVE",
"213 98 OFFCURVE",
"198 98 CURVE SMOOTH",
"185 98 OFFCURVE",
"181 110 OFFCURVE",
"181 133 CURVE",
"181 378 LINE",
"181 401 OFFCURVE",
"188 408 OFFCURVE",
"198 408 CURVE SMOOTH",
"208 408 OFFCURVE",
"215 401 OFFCURVE",
"215 378 CURVE",
"215 133 LINE SMOOTH"
);
}
);
};
layerId = "8A3706BD-364F-4FE3-9C2E-7E87DF0DB4CC";
paths = (
{
closed = 1;
nodes = (
"311 -7 OFFCURVE",
"371 3 OFFCURVE",
"371 154 CURVE SMOOTH",
"371 389 LINE SMOOTH",
"371 487 OFFCURVE",
"312 503 OFFCURVE",
"263 503 CURVE SMOOTH",
"213 503 OFFCURVE",
"193 477 OFFCURVE",
"181 458 CURVE",
"181 630 LINE",
"25 630 LINE",
"25 0 LINE",
"135 0 LINE",
"138 43 LINE",
"146 26 OFFCURVE",
"177 -7 OFFCURVE",
"235 -7 CURVE SMOOTH"
);
},
{
closed = 1;
nodes = (
"185 98 OFFCURVE",
"181 110 OFFCURVE",
"181 133 CURVE SMOOTH",
"181 376 LINE SMOOTH",
"181 399 OFFCURVE",
"188 406 OFFCURVE",
"198 406 CURVE SMOOTH",
"208 406 OFFCURVE",
"215 399 OFFCURVE",
"215 376 CURVE SMOOTH",
"215 133 LINE SMOOTH",
"215 110 OFFCURVE",
"213 98 OFFCURVE",
"198 98 CURVE SMOOTH"
);
}
);
width = 396;
}
);
leftMetricsKey = n;
rightMetricsKey = o;
unicode = 0062;
},
{
glyphname = c;
lastChange = "2021-05-18 00:42:56 +0000";
layers = (
{
background = {
paths = (
{
closed = 1;
nodes = (
"259 -9 OFFCURVE",
"287 19 OFFCURVE",
"287 120 CURVE",
"287 172 LINE",
"267 172 LINE",
"267 120 LINE",
"267 38 OFFCURVE",
"248 9 OFFCURVE",
"168 9 CURVE",
"88 9 OFFCURVE",
"70 38 OFFCURVE",
"70 120 CURVE",
"70 384 LINE",
"70 457 OFFCURVE",
"89 489 OFFCURVE",
"169 489 CURVE",
"249 489 OFFCURVE",
"267 457 OFFCURVE",
"267 384 CURVE",
"267 328 LINE",
"287 328 LINE",
"287 385 LINE",
"287 477 OFFCURVE",
"258 505 OFFCURVE",
"169 505 CURVE",
"79 505 OFFCURVE",
"50 477 OFFCURVE",
"50 385 CURVE",
"50 120 LINE",
"50 19 OFFCURVE",
"79 -9 OFFCURVE",
"169 -9 CURVE"
);
}
);
};
layerId = "82B1C968-1149-4E0D-B361-F2F5D539D913";
paths = (
{
closed = 1;
nodes = (
"257 -9 OFFCURVE",
"287 23 OFFCURVE",
"287 120 CURVE SMOOTH",
"287 172 LINE",
"267 172 LINE",
"267 120 LINE SMOOTH",
"267 35 OFFCURVE",
"248 9 OFFCURVE",
"173 9 CURVE SMOOTH",
"88 9 OFFCURVE",
"70 38 OFFCURVE",
"70 120 CURVE SMOOTH",
"70 384 LINE SMOOTH",
"70 457 OFFCURVE",
"89 489 OFFCURVE",
"169 489 CURVE SMOOTH",
"249 489 OFFCURVE",
"267 457 OFFCURVE",
"267 384 CURVE SMOOTH",
"267 328 LINE",
"287 328 LINE",
"287 385 LINE SMOOTH",
"287 477 OFFCURVE",
"258 505 OFFCURVE",
"169 505 CURVE SMOOTH",
"79 505 OFFCURVE",
"50 477 OFFCURVE",
"50 385 CURVE SMOOTH",
"50 120 LINE SMOOTH",
"50 19 OFFCURVE",
"79 -9 OFFCURVE",
"174 -9 CURVE SMOOTH"
);
}
);
width = 337;
},
{
background = {
paths = (
{
closed = 1;
nodes = (
"299 -12 OFFCURVE",
"366 7 OFFCURVE",
"366 167 CURVE",
"366 213 LINE",
"210 213 LINE",
"210 98 LINE",
"210 75 OFFCURVE",
"203 68 OFFCURVE",
"193 68 CURVE",
"183 68 OFFCURVE",
"176 75 OFFCURVE",
"176 98 CURVE",
"176 393 LINE",
"176 416 OFFCURVE",
"183 423 OFFCURVE",
"193 423 CURVE",
"203 423 OFFCURVE",
"210 416 OFFCURVE",
"210 393 CURVE",
"210 294 LINE",
"366 294 LINE",
"366 373 LINE",
"366 472 OFFCURVE",
"304 503 OFFCURVE",
"193 503 CURVE",
"82 503 OFFCURVE",
"20 472 OFFCURVE",
"20 373 CURVE",
"20 166 LINE",
"20 7 OFFCURVE",
"87 -12 OFFCURVE",
"193 -12 CURVE"
);
}
);
};
layerId = "8A3706BD-364F-4FE3-9C2E-7E87DF0DB4CC";
paths = (
{
closed = 1;
nodes = (
"299 -8 OFFCURVE",
"366 11 OFFCURVE",
"366 167 CURVE SMOOTH",
"366 213 LINE",
"210 213 LINE",
"210 112 LINE SMOOTH",
"210 89 OFFCURVE",
"203 82 OFFCURVE",
"193 82 CURVE SMOOTH",
"183 82 OFFCURVE",
"176 89 OFFCURVE",
"176 112 CURVE SMOOTH",
"176 383 LINE SMOOTH",
"176 406 OFFCURVE",
"183 413 OFFCURVE",
"193 413 CURVE SMOOTH",
"203 413 OFFCURVE",
"210 406 OFFCURVE",
"210 383 CURVE SMOOTH",
"210 294 LINE",
"366 294 LINE",
"366 373 LINE SMOOTH",
"366 472 OFFCURVE",
"304 503 OFFCURVE",
"193 503 CURVE SMOOTH",
"82 503 OFFCURVE",
"20 470 OFFCURVE",
"20 363 CURVE SMOOTH",
"20 166 LINE SMOOTH",
"20 11 OFFCURVE",
"87 -8 OFFCURVE",
"193 -8 CURVE SMOOTH"
);
}
);
width = 386;
}
);
unicode = 0063;
},
{
glyphname = d;
lastChange = "2021-05-18 00:21:04 +0000";
layers = (
{
background = {
paths = (
{
closed = 1;
nodes = (
"289 0 LINE",
"289 630 LINE",
"270 630 LINE",
"270 464 LINE",
"255 488 OFFCURVE",
"224 505 OFFCURVE",
"169 505 CURVE",
"56 505 OFFCURVE",
"50 436 OFFCURVE",
"50 374 CURVE",
"50 124 LINE",
"50 59 OFFCURVE",
"56 -8 OFFCURVE",
"166 -8 CURVE",
"235 -8 OFFCURVE",
"259 16 OFFCURVE",
"272 47 CURVE",
"274 0 LINE"
);
},
{
closed = 1;
nodes = (
"68 8 OFFCURVE",
"70 73 OFFCURVE",
"70 132 CURVE",
"70 210 OFFCURVE",
"70 287 OFFCURVE",
"70 365 CURVE",
"70 424 OFFCURVE",
"66 489 OFFCURVE",
"169 489 CURVE",
"240 489 OFFCURVE",
"263 449 OFFCURVE",
"269 422 CURVE",
"269 335 OFFCURVE",
"269 249 OFFCURVE",
"269 162 CURVE",
"269 95 OFFCURVE",
"273 8 OFFCURVE",
"166 8 CURVE"
);
}
);
};
layerId = "82B1C968-1149-4E0D-B361-F2F5D539D913";
paths = (
{
closed = 1;
nodes = (
"235 -8 OFFCURVE",
"259 16 OFFCURVE",
"272 47 CURVE",
"274 0 LINE",
"289 0 LINE",
"289 630 LINE",
"270 630 LINE",
"270 464 LINE",
"255 488 OFFCURVE",
"224 505 OFFCURVE",
"169 505 CURVE SMOOTH",
"56 505 OFFCURVE",
"50 436 OFFCURVE",
"50 374 CURVE SMOOTH",
"50 124 LINE SMOOTH",
"50 59 OFFCURVE",
"56 -8 OFFCURVE",
"166 -8 CURVE SMOOTH"
);
},
{
closed = 1;
nodes = (
"68 8 OFFCURVE",
"70 73 OFFCURVE",
"70 132 CURVE SMOOTH",
"70 365 LINE SMOOTH",
"70 424 OFFCURVE",
"66 489 OFFCURVE",
"169 489 CURVE SMOOTH",
"240 489 OFFCURVE",
"263 449 OFFCURVE",
"269 422 CURVE",
"269 162 LINE SMOOTH",
"269 95 OFFCURVE",
"273 8 OFFCURVE",
"166 8 CURVE SMOOTH"
);
}
);
width = 344;
},
{
background = {
paths = (
{
closed = 1;
nodes = (
"366 0 LINE",
"366 630 LINE",
"210 630 LINE",
"210 460 LINE",
"198 479 OFFCURVE",
"178 500 OFFCURVE",
"125 500 CURVE",
"91 500 OFFCURVE",
"20 489 OFFCURVE",
"20 391 CURVE",
"20 154 LINE",
"20 3 OFFCURVE",
"81 -7 OFFCURVE",
"156 -7 CURVE",
"214 -7 OFFCURVE",
"237 33 OFFCURVE",
"245 47 CURVE",
"261 0 LINE"
);
},
{
closed = 1;
nodes = (
"183 80 OFFCURVE",
"176 87 OFFCURVE",
"176 110 CURVE",
"176 199 OFFCURVE",
"176 289 OFFCURVE",
"176 378 CURVE",
"176 401 OFFCURVE",
"183 408 OFFCURVE",
"193 408 CURVE",
"202 408 OFFCURVE",
"210 405 OFFCURVE",
"210 405 CURVE",
"210 307 OFFCURVE",
"210 208 OFFCURVE",
"210 110 CURVE",
"210 87 OFFCURVE",
"203 80 OFFCURVE",
"193 80 CURVE"
);
}
);
};
layerId = "8A3706BD-364F-4FE3-9C2E-7E87DF0DB4CC";
paths = (
{
closed = 1;
nodes = (
"214 -7 OFFCURVE",
"237 33 OFFCURVE",
"245 47 CURVE",
"261 0 LINE",
"366 0 LINE",
"366 630 LINE",
"210 630 LINE",
"210 460 LINE",
"198 479 OFFCURVE",
"178 500 OFFCURVE",
"125 500 CURVE SMOOTH",
"91 500 OFFCURVE",
"20 489 OFFCURVE",
"20 391 CURVE SMOOTH",
"20 154 LINE SMOOTH",
"20 3 OFFCURVE",
"81 -7 OFFCURVE",
"156 -7 CURVE SMOOTH"
);
},
{
closed = 1;
nodes = (
"183 80 OFFCURVE",
"176 87 OFFCURVE",
"176 110 CURVE SMOOTH",
"176 378 LINE SMOOTH",
"176 401 OFFCURVE",
"183 408 OFFCURVE",
"193 408 CURVE SMOOTH",
"202 408 OFFCURVE",
"210 405 OFFCURVE",
"210 405 CURVE",
"210 110 LINE SMOOTH",
"210 87 OFFCURVE",
"203 80 OFFCURVE",
"193 80 CURVE SMOOTH"
);
}
);
width = 391;
}
);
unicode = 0064;
},
{
color = 4;
glyphname = eth;
lastChange = "2021-05-18 01:41:59 +0000";
layers = (
{
background = {
paths = (
{
closed = 1;
nodes = (
"275 -8 OFFCURVE",
"287 87 OFFCURVE",
"287 153 CURVE SMOOTH",
"287 412 LINE SMOOTH",
"287 495 OFFCURVE",
"283 564 OFFCURVE",
"270 599 CURVE SMOOTH",
"249 658 OFFCURVE",
"193 662 OFFCURVE",
"156 662 CURVE SMOOTH",
"116 662 OFFCURVE",
"84 651 OFFCURVE",
"64 647 CURVE",
"64 633 LINE",
"83 638 OFFCURVE",
"116 646 OFFCURVE",
"155 646 CURVE SMOOTH",
"259 646 OFFCURVE",
"261 580 OFFCURVE",
"266 450 CURVE",
"250 485 OFFCURVE",
"202 495 OFFCURVE",
"162 495 CURVE SMOOTH",
"102 495 OFFCURVE",
"50 488 OFFCURVE",
"50 374 CURVE SMOOTH",
"50 107 LINE SMOOTH",
"50 -7 OFFCURVE",
"120 -8 OFFCURVE",
"163 -8 CURVE SMOOTH"
);
},
{
closed = 1;
nodes = (
"135 8 OFFCURVE",
"70 12 OFFCURVE",
"70 105 CURVE SMOOTH",
"70 368 LINE SMOOTH",
"70 432 OFFCURVE",
"77 480 OFFCURVE",
"162 480 CURVE SMOOTH",
"245 480 OFFCURVE",
"267 423 OFFCURVE",
"267 413 CURVE",
"267 154 LINE SMOOTH",
"267 89 OFFCURVE",
"252 8 OFFCURVE",
"163 8 CURVE SMOOTH"
);
},
{
closed = 1;
nodes = (
"144 548 LINE",
"295 677 LINE",
"283 692 LINE",
"132 562 LINE"
);
}
);
};
hints = (
{
horizontal = 1;
place = "{-9, 18}";
type = Stem;
},
{
horizontal = 1;
place = "{462, 17}";
type = Stem;
},
{
horizontal = 1;
place = "{644, 18}";
type = Stem;
},
{
place = "{50, 19}";
type = Stem;
},
{
place = "{318, 19}";
type = Stem;
},
{
place = "{315, 21}";
type = Stem;
},
{
horizontal = 1;
place = "{-8, 16}";
type = Stem;
},
{
horizontal = 1;
place = "{490, 15}";
type = Stem;
},
{
horizontal = 1;
place = "{646, 16}";
type = Stem;
},
{
place = "{50, 20}";
type = Stem;
},
{
place = "{267, 20}";
type = Stem;
},
{
horizontal = 1;
place = "{533.863, 15.471}";
type = Stem;
},
{
place = "{293.713, 162.036}";
type = Stem;
}
);
layerId = "82B1C968-1149-4E0D-B361-F2F5D539D913";
paths = (
{
closed = 1;
nodes = (
"275 -8 OFFCURVE",
"287 87 OFFCURVE",
"287 153 CURVE SMOOTH",
"287 412 LINE SMOOTH",
"287 577 OFFCURVE",
"285 663 OFFCURVE",
"156 663 CURVE SMOOTH",
"116 663 OFFCURVE",
"84 651 OFFCURVE",
"64 647 CURVE",
"64 631 LINE",
"83 636 OFFCURVE",
"116 645 OFFCURVE",
"155 645 CURVE SMOOTH",
"259 645 OFFCURVE",
"261 579 OFFCURVE",
"266 450 CURVE",
"250 485 OFFCURVE",
"202 495 OFFCURVE",
"162 495 CURVE SMOOTH",
"102 495 OFFCURVE",
"50 488 OFFCURVE",
"50 374 CURVE SMOOTH",
"50 107 LINE SMOOTH",
"50 -7 OFFCURVE",
"120 -8 OFFCURVE",
"163 -8 CURVE SMOOTH"
);
},
{
closed = 1;
nodes = (
"135 8 OFFCURVE",
"70 12 OFFCURVE",
"70 105 CURVE SMOOTH",
"70 368 LINE SMOOTH",
"70 432 OFFCURVE",
"77 480 OFFCURVE",
"162 480 CURVE SMOOTH",
"245 480 OFFCURVE",
"267 423 OFFCURVE",
"267 413 CURVE SMOOTH",
"267 154 LINE SMOOTH",
"267 89 OFFCURVE",
"252 8 OFFCURVE",
"163 8 CURVE SMOOTH"
);
},
{
closed = 1;
nodes = (
"295 677 LINE",
"283 692 LINE",
"132 562 LINE",
"144 548 LINE"
);
}
);
width = 345;
},
{
background = {
paths = (
{
closed = 1;
nodes = (
"305 -12 OFFCURVE",
"371 7 OFFCURVE",
"371 167 CURVE SMOOTH",
"371 358 LINE SMOOTH",
"370 492 OFFCURVE",
"356 567 OFFCURVE",
"326 610 CURVE SMOOTH",
"295 654 OFFCURVE",
"245 662 OFFCURVE",
"171 662 CURVE SMOOTH",
"88 662 OFFCURVE",
"60 653 OFFCURVE",
"61 652 CURVE",
"61 553 LINE",
"98 559 OFFCURVE",
"120 562 OFFCURVE",
"148 562 CURVE SMOOTH",
"195 562 OFFCURVE",
"213 521 OFFCURVE",
"213 479 CURVE",
"208 479 OFFCURVE",
"203 479 OFFCURVE",
"198 479 CURVE SMOOTH",
"87 479 OFFCURVE",
"25 448 OFFCURVE",
"25 349 CURVE SMOOTH",
"25 166 LINE SMOOTH",
"25 7 OFFCURVE",
"91 -12 OFFCURVE",
"198 -12 CURVE SMOOTH"
);
},
{
closed = 1;
nodes = (
"187 68 OFFCURVE",
"181 75 OFFCURVE",
"181 98 CURVE SMOOTH",
"181 369 LINE SMOOTH",
"181 392 OFFCURVE",
"187 399 OFFCURVE",
"198 399 CURVE SMOOTH",
"209 399 OFFCURVE",
"215 392 OFFCURVE",
"215 369 CURVE SMOOTH",
"215 98 LINE SMOOTH",
"215 75 OFFCURVE",
"209 68 OFFCURVE",
"198 68 CURVE SMOOTH"
);
},
{
closed = 1;
nodes = (
"138 487 LINE",
"341 651 LINE",
"306 691 LINE",
"105 528 LINE"
);
}
);
};
layerId = "8A3706BD-364F-4FE3-9C2E-7E87DF0DB4CC";
paths = (
{
closed = 1;
nodes = (
"305 -12 OFFCURVE",
"371 7 OFFCURVE",
"371 167 CURVE SMOOTH",
"371 358 LINE SMOOTH",
"371 590 OFFCURVE",
"339 662 OFFCURVE",
"177 662 CURVE SMOOTH",
"119 662 OFFCURVE",
"87 657 OFFCURVE",
"61 651 CURVE",
"61 553 LINE",
"98 559 OFFCURVE",
"120 562 OFFCURVE",
"148 562 CURVE SMOOTH",
"195 562 OFFCURVE",
"213 521 OFFCURVE",
"213 479 CURVE",
"202 479 OFFCURVE",
"192 479 OFFCURVE",
"181 479 CURVE SMOOTH",
"87 479 OFFCURVE",
"25 448 OFFCURVE",
"25 349 CURVE SMOOTH",
"25 166 LINE SMOOTH",
"25 7 OFFCURVE",
"91 -12 OFFCURVE",
"198 -12 CURVE SMOOTH"
);
},
{
closed = 1;
nodes = (
"187 68 OFFCURVE",
"181 75 OFFCURVE",
"181 98 CURVE SMOOTH",
"181 369 LINE SMOOTH",
"181 392 OFFCURVE",
"187 399 OFFCURVE",
"198 399 CURVE SMOOTH",
"209 399 OFFCURVE",
"215 392 OFFCURVE",
"215 369 CURVE SMOOTH",
"215 98 LINE SMOOTH",
"215 75 OFFCURVE",
"209 68 OFFCURVE",
"198 68 CURVE SMOOTH"
);
},
{
closed = 1;
nodes = (
"341 651 LINE",
"306 691 LINE",
"105 528 LINE",
"138 487 LINE"
);
}
);
width = 396;
}
);
leftMetricsKey = o;
note = eth;
rightKerningGroup = a;
rightMetricsKey = o;
unicode = 00F0;
},
{
glyphname = e;
lastChange = "2021-05-18 01:45:16 +0000";
layers = (
{
background = {
paths = (
{
closed = 1;
nodes = (
"267 120 LINE",
"267 38 OFFCURVE",
"248 9 OFFCURVE",
"168 9 CURVE",
"88 9 OFFCURVE",
"70 38 OFFCURVE",
"70 120 CURVE",
"70 263 LINE",
"287 263 LINE",
"287 385 LINE",
"287 477 OFFCURVE",
"258 505 OFFCURVE",
"169 505 CURVE",
"79 505 OFFCURVE",
"50 477 OFFCURVE",
"50 385 CURVE",
"50 120 LINE",
"50 19 OFFCURVE",
"79 -9 OFFCURVE",
"169 -9 CURVE",
"259 -9 OFFCURVE",
"287 19 OFFCURVE",
"287 120 CURVE",
"287 172 LINE",
"267 172 LINE"
);
},
{
closed = 1;
nodes = (
"70 457 OFFCURVE",
"89 489 OFFCURVE",
"169 489 CURVE",
"249 489 OFFCURVE",
"267 457 OFFCURVE",
"267 384 CURVE",
"267 280 LINE",
"70 280 LINE",
"70 384 LINE"
);
}
);
};
layerId = "82B1C968-1149-4E0D-B361-F2F5D539D913";
paths = (
{
closed = 1;
nodes = (
"258 -9 OFFCURVE",
"287 23 OFFCURVE",
"287 120 CURVE SMOOTH",
"287 172 LINE",
"267 172 LINE",
"267 120 LINE SMOOTH",
"267 35 OFFCURVE",
"248 9 OFFCURVE",
"173 9 CURVE SMOOTH",
"88 9 OFFCURVE",
"70 38 OFFCURVE",
"70 120 CURVE SMOOTH",
"70 263 LINE",
"287 263 LINE",
"287 385 LINE SMOOTH",
"287 475 OFFCURVE",
"258 503 OFFCURVE",
"169 503 CURVE SMOOTH",
"79 503 OFFCURVE",
"50 475 OFFCURVE",
"50 385 CURVE SMOOTH",
"50 120 LINE SMOOTH",
"50 19 OFFCURVE",
"79 -9 OFFCURVE",
"175 -9 CURVE SMOOTH"
);
},
{
closed = 1;
nodes = (
"70 384 LINE SMOOTH",
"70 456 OFFCURVE",
"89 487 OFFCURVE",
"169 487 CURVE SMOOTH",
"249 487 OFFCURVE",
"267 456 OFFCURVE",
"267 384 CURVE SMOOTH",
"267 280 LINE",
"70 280 LINE"
);
}
);
width = 332;
},
{
background = {
paths = (
{
closed = 1;
nodes = (
"215 98 LINE",
"215 75 OFFCURVE",
"208 68 OFFCURVE",
"198 68 CURVE",
"188 68 OFFCURVE",
"181 75 OFFCURVE",
"181 98 CURVE",
"181 233 LINE",
"371 233 LINE",
"371 373 LINE",
"371 472 OFFCURVE",
"309 503 OFFCURVE",
"198 503 CURVE",
"87 503 OFFCURVE",
"25 472 OFFCURVE",
"25 373 CURVE",
"25 166 LINE",
"25 7 OFFCURVE",
"92 -12 OFFCURVE",
"198 -12 CURVE",
"304 -12 OFFCURVE",
"371 7 OFFCURVE",
"371 167 CURVE",
"371 188 LINE",
"215 188 LINE"
);
},
{
closed = 1;
nodes = (
"181 416 OFFCURVE",
"188 423 OFFCURVE",
"198 423 CURVE",
"208 423 OFFCURVE",
"215 416 OFFCURVE",
"215 393 CURVE",
"215 300 LINE",
"181 300 LINE",
"181 393 LINE"
);
}
);
};
layerId = "8A3706BD-364F-4FE3-9C2E-7E87DF0DB4CC";
paths = (
{
closed = 1;
nodes = (
"304 -8 OFFCURVE",
"371 11 OFFCURVE",
"371 171 CURVE SMOOTH",
"371 192 LINE",
"215 192 LINE",
"215 102 LINE SMOOTH",
"215 79 OFFCURVE",
"208 72 OFFCURVE",
"198 72 CURVE SMOOTH",
"188 72 OFFCURVE",
"181 79 OFFCURVE",
"181 102 CURVE SMOOTH",
"181 233 LINE",
"371 233 LINE",
"371 373 LINE SMOOTH",
"371 472 OFFCURVE",
"309 503 OFFCURVE",
"198 503 CURVE SMOOTH",
"87 503 OFFCURVE",
"25 472 OFFCURVE",
"25 373 CURVE SMOOTH",
"25 170 LINE SMOOTH",
"25 11 OFFCURVE",
"92 -8 OFFCURVE",
"198 -8 CURVE SMOOTH"
);
},
{
closed = 1;
nodes = (
"181 393 LINE SMOOTH",
"181 416 OFFCURVE",
"188 423 OFFCURVE",
"198 423 CURVE SMOOTH",
"208 423 OFFCURVE",
"215 416 OFFCURVE",
"215 393 CURVE SMOOTH",
"215 300 LINE",
"181 300 LINE"
);
}
);
width = 391;
}
);
leftMetricsKey = o;
rightMetricsKey = "=o-5";
unicode = 0065;
},
{
glyphname = f;
lastChange = "2021-05-18 00:21:04 +0000";
layers = (
{
background = {
paths = (
{
closed = 1;
nodes = (
"90 579 OFFCURVE",
"103 619 OFFCURVE",
"144 619 CURVE",
"178 619 OFFCURVE",
"216 614 OFFCURVE",
"216 614 CURVE",
"216 632 LINE",
"201 634 OFFCURVE",
"170 636 OFFCURVE",
"145 636 CURVE",
"93 636 OFFCURVE",
"71 602 OFFCURVE",
"71 547 CURVE",
"71 476 LINE",
"40 476 LINE",
"40 459 LINE",
"71 459 LINE",
"71 0 LINE",
"90 0 LINE",
"90 459 LINE",
"216 459 LINE",
"216 476 LINE",
"90 476 LINE",
"90 544 LINE"
);
}
);
};
layerId = "82B1C968-1149-4E0D-B361-F2F5D539D913";
paths = (
{
closed = 1;
nodes = (
"90 0 LINE",
"90 459 LINE",
"216 459 LINE",
"216 476 LINE",
"90 476 LINE",
"90 544 LINE SMOOTH",
"90 579 OFFCURVE",
"103 619 OFFCURVE",
"144 619 CURVE SMOOTH",
"178 619 OFFCURVE",
"216 614 OFFCURVE",
"216 614 CURVE",
"216 632 LINE",
"201 634 OFFCURVE",
"170 636 OFFCURVE",
"145 636 CURVE SMOOTH",
"93 636 OFFCURVE",
"71 602 OFFCURVE",
"71 547 CURVE SMOOTH",
"71 476 LINE",
"40 476 LINE",
"40 459 LINE",
"71 459 LINE",
"71 0 LINE"
);
}
);
width = 236;
},
{
background = {
paths = (
{
closed = 1;
nodes = (
"203 533 OFFCURVE",
"208 557 OFFCURVE",
"230 557 CURVE",
"256 557 OFFCURVE",
"283 554 OFFCURVE",
"283 554 CURVE",
"283 624 LINE",
"274 624 OFFCURVE",
"216 630 OFFCURVE",
"171 630 CURVE",
"116 630 OFFCURVE",
"47 624 OFFCURVE",
"47 512 CURVE",
"47 476 LINE",
"15 476 LINE",
"15 389 LINE",
"47 389 LINE",
"47 0 LINE",
"203 0 LINE",
"203 389 LINE",
"283 389 LINE",
"283 476 LINE",
"203 476 LINE",
"203 513 LINE"
);
}
);
};
layerId = "8A3706BD-364F-4FE3-9C2E-7E87DF0DB4CC";
paths = (
{
closed = 1;
nodes = (
"203 0 LINE",
"203 389 LINE",
"283 389 LINE",
"283 476 LINE",
"203 476 LINE",
"203 513 LINE SMOOTH",
"203 533 OFFCURVE",
"208 557 OFFCURVE",
"230 557 CURVE SMOOTH",
"256 557 OFFCURVE",
"283 554 OFFCURVE",
"283 554 CURVE",
"283 624 LINE",
"274 624 OFFCURVE",
"216 630 OFFCURVE",
"171 630 CURVE SMOOTH",
"116 630 OFFCURVE",
"47 624 OFFCURVE",
"47 512 CURVE SMOOTH",
"47 476 LINE",
"15 476 LINE",
"15 389 LINE",
"47 389 LINE",
"47 0 LINE"
);
}
);
width = 298;
}
);
unicode = 0066;
},
{
glyphname = g;
lastChange = "2021-05-18 00:37:26 +0000";
layers = (
{
background = {
paths = (
{
closed = 1;
nodes = (
"136 39 OFFCURVE",
"70 43 OFFCURVE",
"70 136 CURVE",
"70 217 OFFCURVE",
"70 297 OFFCURVE",
"70 378 CURVE",
"70 441 OFFCURVE",
"76 490 OFFCURVE",
"162 490 CURVE",
"246 490 OFFCURVE",
"261 436 OFFCURVE",
"267 423 CURVE",
"267 344 OFFCURVE",
"267 264 OFFCURVE",
"267 185 CURVE",
"267 120 OFFCURVE",
"252 39 OFFCURVE",
"163 39 CURVE"
);
},
{
closed = 1;
nodes = (
"90 -110 OFFCURVE",
"127 -115 OFFCURVE",
"152 -115 CURVE SMOOTH",
"214 -115 OFFCURVE",
"287 -93 OFFCURVE",
"287 20 CURVE",
"287 178 OFFCURVE",
"287 337 OFFCURVE",
"287 495 CURVE",
"282 495 OFFCURVE",
"276 495 OFFCURVE",
"271 495 CURVE",
"270 482 OFFCURVE",
"269 468 OFFCURVE",
"268 455 CURVE",
"255 494 OFFCURVE",
"203 505 OFFCURVE",
"162 505 CURVE",
"102 505 OFFCURVE",
"50 498 OFFCURVE",
"50 384 CURVE",
"50 302 OFFCURVE",
"50 220 OFFCURVE",
"50 138 CURVE",
"50 24 OFFCURVE",
"121 23 OFFCURVE",
"163 23 CURVE",
"213 23 OFFCURVE",
"254 42 OFFCURVE",
"268 92 CURVE",
"268 70 OFFCURVE",
"268 48 OFFCURVE",
"268 26 CURVE",
"268 -103 OFFCURVE",
"181 -99 OFFCURVE",
"150 -99 CURVE SMOOTH",
"126 -99 OFFCURVE",
"82 -92 OFFCURVE",
"82 -92 CURVE",
"82 -108 LINE"
);
}
);
};
layerId = "82B1C968-1149-4E0D-B361-F2F5D539D913";
paths = (
{
closed = 1;
nodes = (
"214 -116 OFFCURVE",
"287 -94 OFFCURVE",
"287 17 CURVE SMOOTH",
"287 492 LINE",
"271 492 LINE",
"268 452 LINE",
"255 491 OFFCURVE",
"203 502 OFFCURVE",
"162 502 CURVE SMOOTH",
"92 502 OFFCURVE",
"50 486 OFFCURVE",
"50 381 CURVE SMOOTH",
"50 135 LINE SMOOTH",
"50 21 OFFCURVE",
"121 20 OFFCURVE",
"163 20 CURVE SMOOTH",
"213 20 OFFCURVE",
"254 39 OFFCURVE",
"268 89 CURVE",
"268 23 LINE SMOOTH",
"268 -104 OFFCURVE",
"181 -100 OFFCURVE",
"150 -100 CURVE SMOOTH",
"126 -100 OFFCURVE",
"96 -95 OFFCURVE",
"82 -93 CURVE",
"82 -109 LINE",
"90 -111 OFFCURVE",
"127 -116 OFFCURVE",
"152 -116 CURVE SMOOTH"
);
},
{
closed = 1;
nodes = (
"136 36 OFFCURVE",
"70 40 OFFCURVE",
"70 133 CURVE SMOOTH",
"70 380 LINE SMOOTH",
"70 462 OFFCURVE",
"95 487 OFFCURVE",
"162 487 CURVE SMOOTH",
"234 487 OFFCURVE",
"257 447 OFFCURVE",
"267 420 CURVE",
"267 182 LINE SMOOTH",
"267 117 OFFCURVE",
"252 36 OFFCURVE",
"163 36 CURVE SMOOTH"
);
}
);
width = 337;
},
{
background = {
paths = (
{
closed = 1;
nodes = (
"188 122 OFFCURVE",
"181 129 OFFCURVE",
"181 153 CURVE",
"181 215 OFFCURVE",
"181 291 OFFCURVE",
"181 378 CURVE",
"181 401 OFFCURVE",
"188 408 OFFCURVE",
"198 408 CURVE",
"207 408 OFFCURVE",
"211 406 OFFCURVE",
"215 405 CURVE",
"215 344 OFFCURVE",
"215 300 OFFCURVE",
"215 152 CURVE",
"215 129 OFFCURVE",
"208 122 OFFCURVE",
"198 122 CURVE"
);
},
{
closed = 1;
nodes = (
"67 -105 OFFCURVE",
"161 -114 OFFCURVE",
"207 -114 CURVE SMOOTH",
"369 -114 OFFCURVE",
"371 18 OFFCURVE",
"371 106 CURVE",
"371 178 OFFCURVE",
"371 337 OFFCURVE",
"371 495 CURVE",
"366 495 OFFCURVE",
"236 495 OFFCURVE",
"231 495 CURVE",
"226 483 OFFCURVE",
"220 472 OFFCURVE",
"215 460 CURVE",
"202 499 OFFCURVE",
"171 500 OFFCURVE",
"130 500 CURVE",
"96 500 OFFCURVE",
"25 489 OFFCURVE",
"25 391 CURVE",
"25 244 OFFCURVE",
"25 254 OFFCURVE",
"25 196 CURVE",
"25 45 OFFCURVE",
"67 31 OFFCURVE",
"127 31 CURVE",
"200 31 OFFCURVE",
"207 75 OFFCURVE",
"215 89 CURVE",
"215 67 OFFCURVE",
"215 45 OFFCURVE",
"215 23 CURVE",
"215 -19 OFFCURVE",
"180 -28 OFFCURVE",
"149 -28 CURVE SMOOTH",
"125 -28 OFFCURVE",
"79 -25 OFFCURVE",
"59 -21 CURVE",
"59 -102 LINE"
);
}
);
};
layerId = "8A3706BD-364F-4FE3-9C2E-7E87DF0DB4CC";
paths = (
{
closed = 1;
nodes = (
"369 -121 OFFCURVE",
"371 11 OFFCURVE",
"371 99 CURVE SMOOTH",
"371 495 LINE",
"231 495 LINE",
"215 460 LINE",
"202 499 OFFCURVE",
"171 500 OFFCURVE",
"130 500 CURVE SMOOTH",
"96 500 OFFCURVE",
"25 489 OFFCURVE",
"25 391 CURVE SMOOTH",
"25 196 LINE SMOOTH",
"25 45 OFFCURVE",
"67 31 OFFCURVE",
"127 31 CURVE SMOOTH",
"200 31 OFFCURVE",
"207 75 OFFCURVE",
"215 89 CURVE",
"215 16 LINE SMOOTH",
"215 -26 OFFCURVE",
"180 -35 OFFCURVE",
"149 -35 CURVE SMOOTH",
"125 -35 OFFCURVE",
"79 -32 OFFCURVE",
"59 -28 CURVE",
"59 -109 LINE",
"67 -112 OFFCURVE",
"161 -121 OFFCURVE",
"207 -121 CURVE SMOOTH"
);
},
{
closed = 1;
nodes = (
"188 122 OFFCURVE",
"181 129 OFFCURVE",
"181 153 CURVE SMOOTH",
"181 378 LINE SMOOTH",
"181 401 OFFCURVE",
"188 408 OFFCURVE",
"198 408 CURVE SMOOTH",
"207 408 OFFCURVE",
"211 406 OFFCURVE",
"215 405 CURVE",
"215 152 LINE SMOOTH",
"215 129 OFFCURVE",
"208 122 OFFCURVE",
"198 122 CURVE SMOOTH"
);
}
);
width = 396;
}
);
unicode = 0067;
},
{
glyphname = h;
lastChange = "2021-05-18 00:20:59 +0000";
layers = (
{
background = {
paths = (
{
closed = 1;
nodes = (
"75 0 LINE",
"75 422 LINE",
"78 443 OFFCURVE",
"103 487 OFFCURVE",
"176 487 CURVE",
"279 487 OFFCURVE",
"275 412 OFFCURVE",
"275 363 CURVE",
"275 0 LINE",
"295 0 LINE",
"295 372 LINE",
"295 434 OFFCURVE",
"289 503 OFFCURVE",
"176 503 CURVE",
"124 503 OFFCURVE",
"93 487 OFFCURVE",
"75 463 CURVE",
"75 630 LINE",
"55 630 LINE",
"55 0 LINE"
);
}
);
};
layerId = "82B1C968-1149-4E0D-B361-F2F5D539D913";
paths = (
{
closed = 1;
nodes = (
"75 0 LINE",
"75 422 LINE",
"78 443 OFFCURVE",
"103 487 OFFCURVE",
"176 487 CURVE SMOOTH",
"279 487 OFFCURVE",
"275 412 OFFCURVE",
"275 363 CURVE SMOOTH",
"275 0 LINE",
"295 0 LINE",
"295 372 LINE SMOOTH",
"295 434 OFFCURVE",
"289 503 OFFCURVE",
"176 503 CURVE SMOOTH",
"124 503 OFFCURVE",
"93 487 OFFCURVE",
"75 463 CURVE",
"75 630 LINE",
"55 630 LINE",
"55 0 LINE"
);
}
);
width = 345;
},
{
background = {
paths = (
{
closed = 1;
nodes = (
"181 0 LINE",
"181 370 LINE",
"181 375 OFFCURVE",
"187 378 OFFCURVE",
"196 378 CURVE",
"209 378 OFFCURVE",
"215 368 OFFCURVE",
"215 350 CURVE",
"215 0 LINE",
"371 0 LINE",
"371 371 LINE",
"371 457 OFFCURVE",
"349 502 OFFCURVE",
"261 502 CURVE",
"218 502 OFFCURVE",
"177 477 OFFCURVE",
"170 430 CURVE",
"170 630 LINE",
"25 630 LINE",
"25 0 LINE"
);
}
);
};
layerId = "8A3706BD-364F-4FE3-9C2E-7E87DF0DB4CC";
paths = (
{
closed = 1;
nodes = (
"181 0 LINE",
"181 370 LINE SMOOTH",
"181 375 OFFCURVE",
"187 378 OFFCURVE",
"196 378 CURVE SMOOTH",
"209 378 OFFCURVE",
"215 368 OFFCURVE",
"215 350 CURVE SMOOTH",
"215 0 LINE",
"371 0 LINE",
"371 371 LINE SMOOTH",
"371 457 OFFCURVE",
"349 502 OFFCURVE",
"261 502 CURVE SMOOTH",
"218 502 OFFCURVE",
"177 477 OFFCURVE",
"170 430 CURVE",
"170 630 LINE",
"25 630 LINE",
"25 0 LINE"
);
}
);
width = 395;
}
);
unicode = 0068;
},
{
glyphname = i;
lastChange = "2021-05-18 00:21:04 +0000";
layers = (
{
background = {
paths = (
{
closed = 1;
nodes = (
"60 627 OFFCURVE",
"68 619 OFFCURVE",
"79 619 CURVE",
"89 619 OFFCURVE",
"98 627 OFFCURVE",
"98 637 CURVE",
"98 646 OFFCURVE",
"89 654 OFFCURVE",
"79 654 CURVE",
"68 654 OFFCURVE",
"60 646 OFFCURVE",
"60 637 CURVE"
);
},
{
closed = 1;
nodes = (
"85 0 LINE",
"85 495 LINE",
"66 495 LINE",
"66 0 LINE"
);
}
);
};
layerId = "82B1C968-1149-4E0D-B361-F2F5D539D913";
paths = (
{
closed = 1;
nodes = (
"85 0 LINE",
"85 495 LINE",
"66 495 LINE",
"66 0 LINE"
);
},
{
closed = 1;
nodes = (
"89 619 OFFCURVE",
"98 627 OFFCURVE",
"98 637 CURVE SMOOTH",
"98 646 OFFCURVE",
"89 654 OFFCURVE",
"79 654 CURVE SMOOTH",
"68 654 OFFCURVE",
"60 646 OFFCURVE",
"60 637 CURVE SMOOTH",
"60 627 OFFCURVE",
"68 619 OFFCURVE",
"79 619 CURVE SMOOTH"
);
}
);
width = 158;
},
{
background = {
paths = (
{
closed = 1;
nodes = (
"31 581 OFFCURVE",
"65 548 OFFCURVE",
"107 548 CURVE",
"150 548 OFFCURVE",
"185 581 OFFCURVE",
"185 621 CURVE",
"185 662 OFFCURVE",
"150 695 OFFCURVE",
"107 695 CURVE",
"65 695 OFFCURVE",
"31 662 OFFCURVE",
"31 621 CURVE"
);
},
{
closed = 1;
nodes = (
"186 0 LINE",
"186 495 LINE",
"30 495 LINE",
"30 0 LINE"
);
}
);
};
layerId = "8A3706BD-364F-4FE3-9C2E-7E87DF0DB4CC";
paths = (
{
closed = 1;
nodes = (
"186 0 LINE",
"186 495 LINE",
"30 495 LINE",
"30 0 LINE"
);
},
{
closed = 1;
nodes = (
"150 548 OFFCURVE",
"185 581 OFFCURVE",
"185 621 CURVE SMOOTH",
"185 662 OFFCURVE",
"150 695 OFFCURVE",
"107 695 CURVE SMOOTH",
"65 695 OFFCURVE",
"31 662 OFFCURVE",
"31 621 CURVE SMOOTH",
"31 581 OFFCURVE",
"65 548 OFFCURVE",
"107 548 CURVE SMOOTH"
);
}
);
width = 216;
}
);
unicode = 0069;
},
{
glyphname = idotless;
lastChange = "2021-05-18 00:20:56 +0000";
layers = (
{
background = {
paths = (
{
closed = 1;
nodes = (
"85 0 LINE",
"85 495 LINE",
"66 495 LINE",
"66 0 LINE"
);
}
);
};
layerId = "82B1C968-1149-4E0D-B361-F2F5D539D913";
paths = (
{
closed = 1;
nodes = (
"85 0 LINE",
"85 495 LINE",
"66 495 LINE",
"66 0 LINE"
);
}
);
width = 158;
},
{
background = {
paths = (
{
closed = 1;
nodes = (
"186 0 LINE",
"186 495 LINE",
"30 495 LINE",
"30 0 LINE"
);
}
);
};
layerId = "8A3706BD-364F-4FE3-9C2E-7E87DF0DB4CC";
paths = (
{
closed = 1;
nodes = (
"186 0 LINE",
"186 495 LINE",
"30 495 LINE",
"30 0 LINE"
);
}
);
width = 216;
}
);
unicode = 0131;
},
{
glyphname = j;
lastChange = "2021-05-18 00:21:04 +0000";
layers = (
{
background = {
paths = (
{
closed = 1;
nodes = (
"-8 -109 OFFCURVE",
"3 -110 OFFCURVE",
"9 -110 CURVE",
"72 -110 OFFCURVE",
"121 -101 OFFCURVE",
"121 -26 CURVE",
"121 495 LINE",
"102 495 LINE",
"102 -23 LINE",
"102 -86 OFFCURVE",
"67 -96 OFFCURVE",
"11 -96 CURVE",
"2 -96 OFFCURVE",
"-9 -95 OFFCURVE",
"-10 -94 CURVE",
"-10 -108 LINE"
);
},
{
closed = 1;
nodes = (
"96 627 OFFCURVE",
"104 619 OFFCURVE",
"115 619 CURVE",
"125 619 OFFCURVE",
"134 627 OFFCURVE",
"134 637 CURVE",
"134 646 OFFCURVE",
"125 654 OFFCURVE",
"115 654 CURVE",
"104 654 OFFCURVE",
"96 646 OFFCURVE",
"96 637 CURVE"
);
}
);
};
layerId = "82B1C968-1149-4E0D-B361-F2F5D539D913";
paths = (
{
closed = 1;
nodes = (
"72 -110 OFFCURVE",
"121 -101 OFFCURVE",
"121 -26 CURVE SMOOTH",
"121 495 LINE",
"102 495 LINE",
"102 -23 LINE SMOOTH",
"102 -86 OFFCURVE",
"67 -96 OFFCURVE",
"11 -96 CURVE SMOOTH",
"2 -96 OFFCURVE",
"-9 -95 OFFCURVE",
"-10 -94 CURVE",
"-10 -108 LINE",
"-8 -109 OFFCURVE",
"3 -110 OFFCURVE",
"9 -110 CURVE SMOOTH"
);
},
{
closed = 1;
nodes = (
"125 619 OFFCURVE",
"134 627 OFFCURVE",
"134 637 CURVE SMOOTH",
"134 646 OFFCURVE",
"125 654 OFFCURVE",
"115 654 CURVE SMOOTH",
"104 654 OFFCURVE",
"96 646 OFFCURVE",
"96 637 CURVE SMOOTH",
"96 627 OFFCURVE",
"104 619 OFFCURVE",
"115 619 CURVE SMOOTH"
);
}
);
width = 189;
},
{
background = {
paths = (
{
closed = 1;
nodes = (
"-43 -110 OFFCURVE",
"-15 -112 OFFCURVE",
"-4 -113 CURVE SMOOTH",
"99 -123 OFFCURVE",
"197 -90 OFFCURVE",
"197 69 CURVE",
"197 495 LINE",
"41 495 LINE",
"41 20 LINE",
"41 0 OFFCURVE",
"27 -23 OFFCURVE",
"-3 -26 CURVE SMOOTH",
"-13 -27 OFFCURVE",
"-36 -28 OFFCURVE",
"-50 -28 CURVE",
"-50 -109 LINE"
);
},
{
closed = 1;
nodes = (
"42 581 OFFCURVE",
"76 548 OFFCURVE",
"118 548 CURVE",
"161 548 OFFCURVE",
"196 581 OFFCURVE",
"196 621 CURVE",
"196 662 OFFCURVE",
"161 695 OFFCURVE",
"118 695 CURVE",
"76 695 OFFCURVE",
"42 662 OFFCURVE",
"42 621 CURVE"
);
}
);
};
layerId = "8A3706BD-364F-4FE3-9C2E-7E87DF0DB4CC";
paths = (
{
closed = 1;
nodes = (
"99 -123 OFFCURVE",
"197 -90 OFFCURVE",
"197 69 CURVE SMOOTH",
"197 495 LINE",
"41 495 LINE",
"41 20 LINE SMOOTH",
"41 0 OFFCURVE",
"27 -23 OFFCURVE",
"-3 -26 CURVE SMOOTH",
"-13 -27 OFFCURVE",
"-36 -28 OFFCURVE",
"-50 -28 CURVE",
"-50 -109 LINE",
"-43 -110 OFFCURVE",
"-15 -112 OFFCURVE",
"-4 -113 CURVE SMOOTH"
);
},
{
closed = 1;
nodes = (
"161 548 OFFCURVE",
"196 581 OFFCURVE",
"196 621 CURVE SMOOTH",
"196 662 OFFCURVE",
"161 695 OFFCURVE",
"118 695 CURVE SMOOTH",
"76 695 OFFCURVE",
"42 662 OFFCURVE",
"42 621 CURVE SMOOTH",
"42 581 OFFCURVE",
"76 548 OFFCURVE",
"118 548 CURVE SMOOTH"
);
}
);
width = 227;
}
);
unicode = 006A;
},
{
glyphname = k;
lastChange = "2021-05-18 00:20:56 +0000";
layers = (
{
background = {
paths = (
{
closed = 1;
nodes = (
"271 0 LINE",
"121 289 LINE",
"268 495 LINE",
"247 495 LINE",
"99 288 LINE",
"251 0 LINE"
);
},
{
closed = 1;
nodes = (
"74 0 LINE",
"74 636 LINE",
"55 636 LINE",
"55 0 LINE"
);
}
);
};
layerId = "82B1C968-1149-4E0D-B361-F2F5D539D913";
paths = (
{
closed = 1;
nodes = (
"271 0 LINE",
"121 289 LINE",
"268 495 LINE",
"247 495 LINE",
"99 288 LINE",
"251 0 LINE"
);
},
{
closed = 1;
nodes = (
"74 0 LINE",
"74 636 LINE",
"55 636 LINE",
"55 0 LINE"
);
}
);
width = 291;
},
{
background = {
paths = (
{
closed = 1;
nodes = (
"411 0 LINE",
"327 283 LINE",
"414 495 LINE",
"260 495 LINE",
"180 286 LINE",
"242 0 LINE"
);
},
{
closed = 1;
nodes = (
"181 0 LINE",
"181 630 LINE",
"25 630 LINE",
"25 0 LINE"
);
}
);
};
layerId = "8A3706BD-364F-4FE3-9C2E-7E87DF0DB4CC";
paths = (
{
closed = 1;
nodes = (
"411 0 LINE",
"327 283 LINE",
"414 495 LINE",
"260 495 LINE",
"180 286 LINE",
"242 0 LINE"
);
},
{
closed = 1;
nodes = (
"181 0 LINE",
"181 630 LINE",
"25 630 LINE",
"25 0 LINE"
);
}
);
width = 419;
}
);
unicode = 006B;
},
{
glyphname = l;
lastChange = "2021-05-18 00:21:04 +0000";
layers = (
{
background = {
paths = (
{
closed = 1;
nodes = (
"74 636 LINE",
"55 636 LINE",
"55 0 LINE",
"74 0 LINE"
);
}
);
};
layerId = "82B1C968-1149-4E0D-B361-F2F5D539D913";
paths = (
{
closed = 1;
nodes = (
"74 0 LINE",
"74 636 LINE",
"55 636 LINE",
"55 0 LINE"
);
}
);
width = 129;
},
{
background = {
paths = (
{
closed = 1;
nodes = (
"181 630 LINE",
"25 630 LINE",
"25 0 LINE",
"181 0 LINE"
);
}
);
};
layerId = "8A3706BD-364F-4FE3-9C2E-7E87DF0DB4CC";
paths = (
{
closed = 1;
nodes = (
"181 0 LINE",
"181 630 LINE",
"25 630 LINE",
"25 0 LINE"
);
}
);
width = 206;
}
);
unicode = 006C;
},
{
glyphname = lslash;
lastChange = "2021-05-18 00:20:56 +0000";
layers = (
{
background = {
paths = (
{
closed = 1;
nodes = (
"143 0 LINE",
"143 193 LINE",
"220 228 LINE",
"220 248 LINE",
"143 214 LINE",
"143 636 LINE",
"125 636 LINE",
"125 205 LINE",
"50 171 LINE",
"50 151 LINE",
"125 184 LINE",
"125 0 LINE"
);
}
);
};
hints = (
{
horizontal = 1;
place = "{0, 21}";
target = up;
type = BottomGhost;
},
{
place = "{125, 18}";
type = Stem;
}
);
layerId = "82B1C968-1149-4E0D-B361-F2F5D539D913";
paths = (
{
closed = 1;
nodes = (
"143 0 LINE",
"143 193 LINE",
"220 228 LINE",
"220 248 LINE",
"143 214 LINE",
"143 636 LINE",
"125 636 LINE",
"125 205 LINE",
"50 171 LINE",
"50 151 LINE",
"125 184 LINE",
"125 0 LINE"
);
}
);
width = 270;
},
{
background = {
paths = (
{
closed = 1;
nodes = (
"227 0 LINE",
"227 227 LINE",
"285 253 LINE",
"285 316 LINE",
"227 290 LINE",
"227 630 LINE",
"71 630 LINE",
"71 221 LINE",
"15 196 LINE",
"15 132 LINE",
"71 157 LINE",
"71 0 LINE"
);
}
);
};
layerId = "8A3706BD-364F-4FE3-9C2E-7E87DF0DB4CC";
paths = (
{
closed = 1;
nodes = (
"227 0 LINE",
"227 227 LINE",
"285 253 LINE",
"285 316 LINE",
"227 290 LINE",
"227 630 LINE",
"71 630 LINE",
"71 221 LINE",
"15 196 LINE",
"15 132 LINE",
"71 157 LINE",
"71 0 LINE"
);
}
);
width = 300;
}
);
note = lslash;
rightKerningGroup = a;
unicode = 0142;
},
{
glyphname = m;
lastChange = "2021-05-18 00:47:31 +0000";
layers = (
{
background = {
paths = (
{
closed = 1;
nodes = (
"70 0 LINE",
"70 408 LINE",
"83 450 OFFCURVE",
"112 487 OFFCURVE",
"169 487 CURVE",
"228 487 OFFCURVE",
"262 475 OFFCURVE",
"262 383 CURVE",
"262 0 LINE",
"282 0 LINE",
"282 388 LINE",
"285 444 OFFCURVE",
"328 487 OFFCURVE",
"383 487 CURVE",
"446 487 OFFCURVE",
"474 470 OFFCURVE",
"474 377 CURVE",
"474 0 LINE",
"494 0 LINE",
"494 371 LINE",
"494 464 OFFCURVE",
"476 502 OFFCURVE",
"383 502 CURVE",
"332 502 OFFCURVE",
"296 475 OFFCURVE",
"277 436 CURVE",
"267 483 OFFCURVE",
"237 502 OFFCURVE",
"169 502 CURVE",
"130 502 OFFCURVE",
"83 482 OFFCURVE",
"70 446 CURVE",
"66 495 LINE",
"50 495 LINE",
"50 0 LINE"
);
},
{
closed = 1;
nodes = (
"70 0 LINE",
"70 408 LINE",
"83 450 OFFCURVE",
"112 487 OFFCURVE",
"174 487 CURVE SMOOTH",
"244 487 OFFCURVE",
"262 460 OFFCURVE",
"262 383 CURVE SMOOTH",
"262 0 LINE",
"282 0 LINE",
"282 388 LINE",
"285 444 OFFCURVE",
"328 487 OFFCURVE",
"383 487 CURVE SMOOTH",
"446 487 OFFCURVE",
"474 470 OFFCURVE",
"474 377 CURVE SMOOTH",
"474 0 LINE",
"494 0 LINE",
"494 371 LINE SMOOTH",
"494 464 OFFCURVE",
"476 502 OFFCURVE",
"383 502 CURVE SMOOTH",
"320 502 OFFCURVE",
"280 461 OFFCURVE",
"267 408 CURVE",
"281 400 LINE",
"279 474 OFFCURVE",
"251 502 OFFCURVE",
"174 502 CURVE SMOOTH",
"122 502 OFFCURVE",
"87 480 OFFCURVE",
"70 443 CURVE",
"66 495 LINE",
"50 495 LINE",
"50 0 LINE"
);
}
);
};
layerId = "82B1C968-1149-4E0D-B361-F2F5D539D913";
paths = (
{
closed = 1;
nodes = (
"70 0 LINE",
"70 408 LINE",
"83 449 OFFCURVE",
"112 485 OFFCURVE",
"174 485 CURVE SMOOTH",
"241 485 OFFCURVE",
"262 458 OFFCURVE",
"262 388 CURVE SMOOTH",
"262 0 LINE",
"282 0 LINE",
"282 388 LINE",
"285 443 OFFCURVE",
"328 485 OFFCURVE",
"388 485 CURVE SMOOTH",
"453 485 OFFCURVE",
"474 460 OFFCURVE",
"474 377 CURVE SMOOTH",
"474 0 LINE",
"494 0 LINE",
"494 391 LINE SMOOTH",
"494 466 OFFCURVE",
"468 502 OFFCURVE",
"388 502 CURVE SMOOTH",
"324 502 OFFCURVE",
"285 466 OFFCURVE",
"269 407 CURVE",
"279 408 LINE",
"280 469 OFFCURVE",
"251 502 OFFCURVE",
"174 502 CURVE SMOOTH",
"122 502 OFFCURVE",
"87 480 OFFCURVE",
"70 443 CURVE",
"66 495 LINE",
"50 495 LINE",
"50 0 LINE"
);
}
);
width = 544;
},
{
background = {
paths = (
{
closed = 1;
nodes = (
"181 0 LINE",
"181 390 LINE",
"185 392 OFFCURVE",
"193 393 OFFCURVE",
"198 393 CURVE",
"209 393 OFFCURVE",
"215 383 OFFCURVE",
"215 365 CURVE",
"215 0 LINE",
"371 0 LINE",
"371 390 LINE",
"375 392 OFFCURVE",
"383 393 OFFCURVE",
"388 393 CURVE",
"399 393 OFFCURVE",
"405 383 OFFCURVE",
"405 365 CURVE",
"405 0 LINE",
"561 0 LINE",
"561 371 LINE",
"561 457 OFFCURVE",
"539 502 OFFCURVE",
"451 502 CURVE",
"411 502 OFFCURVE",
"377 475 OFFCURVE",
"363 439 CURVE",
"350 480 OFFCURVE",
"321 502 OFFCURVE",
"261 502 CURVE",
"218 502 OFFCURVE",
"182 471 OFFCURVE",
"170 430 CURVE",
"158 495 LINE",
"25 495 LINE",
"25 0 LINE"
);
}
);
};
layerId = "8A3706BD-364F-4FE3-9C2E-7E87DF0DB4CC";
paths = (
{
closed = 1;
nodes = (
"181 0 LINE",
"181 390 LINE",
"185 392 OFFCURVE",
"193 393 OFFCURVE",
"198 393 CURVE SMOOTH",
"209 393 OFFCURVE",
"215 383 OFFCURVE",
"215 365 CURVE SMOOTH",
"215 0 LINE",
"371 0 LINE",
"371 390 LINE",
"375 392 OFFCURVE",
"383 393 OFFCURVE",
"388 393 CURVE SMOOTH",
"399 393 OFFCURVE",
"405 383 OFFCURVE",
"405 365 CURVE SMOOTH",
"405 0 LINE",
"561 0 LINE",
"561 371 LINE SMOOTH",
"561 457 OFFCURVE",
"539 502 OFFCURVE",
"451 502 CURVE SMOOTH",
"401 502 OFFCURVE",
"360 459 OFFCURVE",
"356 409 CURVE",
"370 408 LINE",
"362 469 OFFCURVE",
"335 502 OFFCURVE",
"261 502 CURVE SMOOTH",
"218 502 OFFCURVE",
"182 471 OFFCURVE",
"170 430 CURVE",
"158 495 LINE",
"25 495 LINE",
"25 0 LINE"
);
}
);
width = 586;
}
);
unicode = 006D;
},
{
glyphname = n;
lastChange = "2021-05-18 00:20:59 +0000";
layers = (
{
background = {
paths = (
{
closed = 1;
nodes = (
"70 0 LINE",
"70 409 LINE",
"77 439 OFFCURVE",
"98 487 OFFCURVE",
"171 487 CURVE SMOOTH",
"274 487 OFFCURVE",
"270 422 OFFCURVE",
"270 363 CURVE SMOOTH",
"270 0 LINE",
"290 0 LINE",
"290 372 LINE SMOOTH",
"290 434 OFFCURVE",
"284 503 OFFCURVE",
"171 503 CURVE SMOOTH",
"130 503 OFFCURVE",
"85 491 OFFCURVE",
"70 446 CURVE",
"65 495 LINE",
"50 495 LINE",
"50 0 LINE"
);
}
);
};
layerId = "82B1C968-1149-4E0D-B361-F2F5D539D913";
paths = (
{
closed = 1;
nodes = (
"70 0 LINE",
"70 409 LINE",
"77 439 OFFCURVE",
"98 487 OFFCURVE",
"171 487 CURVE SMOOTH",
"274 487 OFFCURVE",
"270 422 OFFCURVE",
"270 363 CURVE SMOOTH",
"270 0 LINE",
"290 0 LINE",
"290 372 LINE SMOOTH",
"290 434 OFFCURVE",
"284 503 OFFCURVE",
"171 503 CURVE SMOOTH",
"130 503 OFFCURVE",
"85 491 OFFCURVE",
"70 446 CURVE",
"65 495 LINE",
"50 495 LINE",
"50 0 LINE"
);
}
);
width = 340;
},
{
background = {
paths = (
{
closed = 1;
nodes = (
"181 0 LINE",
"181 390 LINE",
"185 392 OFFCURVE",
"193 393 OFFCURVE",
"198 393 CURVE SMOOTH",
"210 393 OFFCURVE",
"215 383 OFFCURVE",
"215 365 CURVE",
"215 0 LINE",
"371 0 LINE",
"371 371 LINE",
"371 457 OFFCURVE",
"349 502 OFFCURVE",
"261 502 CURVE",
"218 502 OFFCURVE",
"182 471 OFFCURVE",
"170 430 CURVE",
"158 495 LINE",
"25 495 LINE",
"25 0 LINE"
);
}
);
};
layerId = "8A3706BD-364F-4FE3-9C2E-7E87DF0DB4CC";
paths = (
{
closed = 1;
nodes = (
"181 0 LINE",
"181 390 LINE",
"185 392 OFFCURVE",
"193 393 OFFCURVE",
"198 393 CURVE SMOOTH",
"210 393 OFFCURVE",
"215 383 OFFCURVE",
"215 365 CURVE SMOOTH",
"215 0 LINE",
"371 0 LINE",
"371 371 LINE SMOOTH",
"371 457 OFFCURVE",
"349 502 OFFCURVE",
"261 502 CURVE SMOOTH",
"218 502 OFFCURVE",
"182 471 OFFCURVE",
"170 430 CURVE",
"158 495 LINE",
"25 495 LINE",
"25 0 LINE"
);
}
);
width = 396;
}
);
unicode = 006E;
},
{
glyphname = eng;
lastChange = "2021-05-18 00:20:59 +0000";
layers = (
{
background = {
paths = (
{
closed = 1;
nodes = (
"242 -110 OFFCURVE",
"290 -101 OFFCURVE",
"290 -26 CURVE SMOOTH",
"290 372 LINE SMOOTH",
"290 433 OFFCURVE",
"284 503 OFFCURVE",
"171 503 CURVE SMOOTH",
"129 503 OFFCURVE",
"86 491 OFFCURVE",
"70 446 CURVE",
"65 495 LINE",
"50 495 LINE",
"50 330 OFFCURVE",
"50 165 OFFCURVE",
"50 0 CURVE",
"70 0 LINE",
"70 136 OFFCURVE",
"70 273 OFFCURVE",
"70 409 CURVE",
"78 438 OFFCURVE",
"97 487 OFFCURVE",
"171 487 CURVE SMOOTH",
"274 487 OFFCURVE",
"270 422 OFFCURVE",
"270 363 CURVE SMOOTH",
"270 -23 LINE SMOOTH",
"270 -86 OFFCURVE",
"236 -96 OFFCURVE",
"180 -96 CURVE SMOOTH",
"171 -96 OFFCURVE",
"160 -95 OFFCURVE",
"159 -94 CURVE",
"159 -99 OFFCURVE",
"159 -103 OFFCURVE",
"159 -108 CURVE",
"162 -109 OFFCURVE",
"171 -110 OFFCURVE",
"178 -110 CURVE SMOOTH"
);
}
);
};
layerId = "82B1C968-1149-4E0D-B361-F2F5D539D913";
paths = (
{
closed = 1;
nodes = (
"242 -110 OFFCURVE",
"290 -101 OFFCURVE",
"290 -26 CURVE SMOOTH",
"290 372 LINE SMOOTH",
"290 433 OFFCURVE",
"284 503 OFFCURVE",
"171 503 CURVE SMOOTH",
"129 503 OFFCURVE",
"86 491 OFFCURVE",
"70 446 CURVE",
"65 495 LINE",
"50 495 LINE",
"50 0 LINE",
"70 0 LINE",
"70 409 LINE",
"78 438 OFFCURVE",
"97 487 OFFCURVE",
"171 487 CURVE SMOOTH",
"274 487 OFFCURVE",
"270 422 OFFCURVE",
"270 363 CURVE SMOOTH",
"270 -23 LINE SMOOTH",
"270 -86 OFFCURVE",
"236 -96 OFFCURVE",
"180 -96 CURVE SMOOTH",
"171 -96 OFFCURVE",
"160 -95 OFFCURVE",
"159 -94 CURVE",
"159 -108 LINE",
"162 -109 OFFCURVE",
"171 -110 OFFCURVE",
"178 -110 CURVE SMOOTH"
);
}
);
width = 340;
},
{
background = {
paths = (
{
closed = 1;
nodes = (
"287 -119 OFFCURVE",
"371 -77 OFFCURVE",
"371 66 CURVE SMOOTH",
"371 371 LINE SMOOTH",
"371 458 OFFCURVE",
"349 502 OFFCURVE",
"261 502 CURVE SMOOTH",
"218 502 OFFCURVE",
"182 471 OFFCURVE",
"170 430 CURVE",
"158 495 LINE",
"25 495 LINE",
"25 330 OFFCURVE",
"25 165 OFFCURVE",
"25 0 CURVE",
"181 0 LINE",
"181 130 OFFCURVE",
"181 260 OFFCURVE",
"181 390 CURVE",
"185 393 OFFCURVE",
"193 393 OFFCURVE",
"198 393 CURVE SMOOTH",
"209 393 OFFCURVE",
"215 384 OFFCURVE",
"215 365 CURVE SMOOTH",
"215 6 LINE SMOOTH",
"215 -15 OFFCURVE",
"202 -32 OFFCURVE",
"171 -32 CURVE SMOOTH",
"170 -32 OFFCURVE",
"137 -32 OFFCURVE",
"135 -32 CURVE",
"135 -58 OFFCURVE",
"135 -83 OFFCURVE",
"135 -109 CURVE",
"155 -113 OFFCURVE",
"174 -116 OFFCURVE",
"194 -116 CURVE SMOOTH"
);
}
);
};
layerId = "8A3706BD-364F-4FE3-9C2E-7E87DF0DB4CC";
paths = (
{
closed = 1;
nodes = (
"287 -119 OFFCURVE",
"371 -77 OFFCURVE",
"371 66 CURVE SMOOTH",
"371 371 LINE SMOOTH",
"371 458 OFFCURVE",
"349 502 OFFCURVE",
"261 502 CURVE SMOOTH",
"218 502 OFFCURVE",
"182 471 OFFCURVE",
"170 430 CURVE",
"158 495 LINE",
"25 495 LINE",
"25 0 LINE",
"181 0 LINE",
"181 390 LINE",
"185 393 OFFCURVE",
"193 393 OFFCURVE",
"198 393 CURVE SMOOTH",
"209 393 OFFCURVE",
"215 384 OFFCURVE",
"215 365 CURVE SMOOTH",
"215 6 LINE SMOOTH",
"215 -15 OFFCURVE",
"202 -32 OFFCURVE",
"171 -32 CURVE SMOOTH",
"170 -32 OFFCURVE",
"137 -32 OFFCURVE",
"135 -32 CURVE",
"135 -109 LINE",
"155 -113 OFFCURVE",
"174 -116 OFFCURVE",
"194 -116 CURVE SMOOTH"
);
}
);
width = 396;
}
);
unicode = 014B;
},
{
glyphname = o;
lastChange = "2021-05-18 00:33:08 +0000";
layers = (
{
background = {
paths = (
{
closed = 1;
nodes = (
"283 -7 OFFCURVE",
"289 62 OFFCURVE",
"289 124 CURVE SMOOTH",
"289 372 LINE SMOOTH",
"289 434 OFFCURVE",
"283 503 OFFCURVE",
"170 503 CURVE SMOOTH",
"56 503 OFFCURVE",
"50 434 OFFCURVE",
"50 372 CURVE SMOOTH",
"50 124 LINE SMOOTH",
"50 62 OFFCURVE",
"56 -7 OFFCURVE",
"170 -7 CURVE SMOOTH"
);
},
{
closed = 1;
nodes = (
"75 9 OFFCURVE",
"70 72 OFFCURVE",
"70 131 CURVE SMOOTH",
"70 367 LINE SMOOTH",
"70 424 OFFCURVE",
"75 487 OFFCURVE",
"170 487 CURVE SMOOTH",
"264 487 OFFCURVE",
"269 424 OFFCURVE",
"269 367 CURVE SMOOTH",
"269 131 LINE SMOOTH",
"269 72 OFFCURVE",
"264 9 OFFCURVE",
"170 9 CURVE SMOOTH"
);
}
);
};
layerId = "82B1C968-1149-4E0D-B361-F2F5D539D913";
paths = (
{
closed = 1;
nodes = (
"283 -7 OFFCURVE",
"289 62 OFFCURVE",
"289 124 CURVE SMOOTH",
"289 372 LINE SMOOTH",
"289 434 OFFCURVE",
"283 503 OFFCURVE",
"170 503 CURVE SMOOTH",
"56 503 OFFCURVE",
"50 434 OFFCURVE",
"50 372 CURVE SMOOTH",
"50 124 LINE SMOOTH",
"50 62 OFFCURVE",
"56 -7 OFFCURVE",
"170 -7 CURVE SMOOTH"
);
},
{
closed = 1;
nodes = (
"75 9 OFFCURVE",
"70 72 OFFCURVE",
"70 131 CURVE SMOOTH",
"70 367 LINE SMOOTH",
"70 424 OFFCURVE",
"75 487 OFFCURVE",
"170 487 CURVE SMOOTH",
"264 487 OFFCURVE",
"269 424 OFFCURVE",
"269 367 CURVE SMOOTH",
"269 131 LINE SMOOTH",
"269 72 OFFCURVE",
"264 9 OFFCURVE",
"170 9 CURVE SMOOTH"
);
}
);
width = 339;
},
{
background = {
paths = (
{
closed = 1;
nodes = (
"304 -12 OFFCURVE",
"371 7 OFFCURVE",
"371 167 CURVE",
"371 373 LINE",
"371 472 OFFCURVE",
"309 503 OFFCURVE",
"198 503 CURVE",
"87 503 OFFCURVE",
"25 472 OFFCURVE",
"25 373 CURVE",
"25 166 LINE",
"25 7 OFFCURVE",
"92 -12 OFFCURVE",
"198 -12 CURVE"
);
},
{
closed = 1;
nodes = (
"188 68 OFFCURVE",
"181 75 OFFCURVE",
"181 98 CURVE",
"181 393 LINE",
"181 416 OFFCURVE",
"188 423 OFFCURVE",
"198 423 CURVE",
"208 423 OFFCURVE",
"215 416 OFFCURVE",
"215 393 CURVE",
"215 98 LINE",
"215 75 OFFCURVE",
"208 68 OFFCURVE",
"198 68 CURVE"
);
}
);
};
layerId = "8A3706BD-364F-4FE3-9C2E-7E87DF0DB4CC";
paths = (
{
closed = 1;
nodes = (
"304 -8 OFFCURVE",
"371 11 OFFCURVE",
"371 171 CURVE SMOOTH",
"371 363 LINE SMOOTH",
"371 470 OFFCURVE",
"309 503 OFFCURVE",
"198 503 CURVE SMOOTH",
"87 503 OFFCURVE",
"25 470 OFFCURVE",
"25 363 CURVE SMOOTH",
"25 170 LINE SMOOTH",
"25 11 OFFCURVE",
"92 -8 OFFCURVE",
"198 -8 CURVE SMOOTH"
);
},
{
closed = 1;
nodes = (
"188 82 OFFCURVE",
"181 89 OFFCURVE",
"181 112 CURVE SMOOTH",
"181 383 LINE SMOOTH",
"181 406 OFFCURVE",
"188 413 OFFCURVE",
"198 413 CURVE SMOOTH",
"208 413 OFFCURVE",
"215 406 OFFCURVE",
"215 383 CURVE SMOOTH",
"215 112 LINE SMOOTH",
"215 89 OFFCURVE",
"208 82 OFFCURVE",
"198 82 CURVE SMOOTH"
);
}
);
width = 396;
}
);
unicode = 006F;
},
{
glyphname = oslash;
lastChange = "2021-05-18 01:43:01 +0000";
layers = (
{
background = {
paths = (
{
closed = 1;
nodes = (
"283 -7 OFFCURVE",
"289 62 OFFCURVE",
"289 124 CURVE",
"289 372 LINE",
"289 434 OFFCURVE",
"283 503 OFFCURVE",
"170 503 CURVE",
"56 503 OFFCURVE",
"50 434 OFFCURVE",
"50 372 CURVE",
"50 124 LINE",
"50 62 OFFCURVE",
"56 -7 OFFCURVE",
"170 -7 CURVE"
);
},
{
closed = 1;
nodes = (
"75 9 OFFCURVE",
"70 72 OFFCURVE",
"70 131 CURVE",
"70 367 LINE",
"70 424 OFFCURVE",
"75 487 OFFCURVE",
"170 487 CURVE",
"264 487 OFFCURVE",
"269 424 OFFCURVE",
"269 367 CURVE",
"269 131 LINE",
"269 72 OFFCURVE",
"264 9 OFFCURVE",
"170 9 CURVE"
);
},
{
closed = 1;
nodes = (
"24 -46 LINE",
"310 495 LINE",
"287 495 LINE",
"2 -46 LINE"
);
}
);
};
components = (
{
name = o;
}
);
hints = (
{
horizontal = 1;
place = "{-46, 677}";
type = Stem;
},
{
place = "{50, 360}";
type = Stem;
}
);
layerId = "82B1C968-1149-4E0D-B361-F2F5D539D913";
paths = (
{
closed = 1;
nodes = (
"35 -25 LINE",
"318 516 LINE",
"298 516 LINE",
"16 -25 LINE"
);
}
);
width = 339;
},
{
background = {
paths = (
{
closed = 1;
nodes = (
"304 -12 OFFCURVE",
"371 7 OFFCURVE",
"371 167 CURVE",
"371 373 LINE",
"371 472 OFFCURVE",
"309 503 OFFCURVE",
"198 503 CURVE",
"87 503 OFFCURVE",
"25 472 OFFCURVE",
"25 373 CURVE",
"25 166 LINE",
"25 7 OFFCURVE",
"92 -12 OFFCURVE",
"198 -12 CURVE"
);
},
{
closed = 1;
nodes = (
"188 68 OFFCURVE",
"181 75 OFFCURVE",
"181 98 CURVE",
"181 393 LINE",
"181 416 OFFCURVE",
"188 423 OFFCURVE",
"198 423 CURVE",
"208 423 OFFCURVE",
"215 416 OFFCURVE",
"215 393 CURVE",
"215 98 LINE",
"215 75 OFFCURVE",
"208 68 OFFCURVE",
"198 68 CURVE"
);
},
{
closed = 1;
nodes = (
"87 -44 LINE",
"349 511 LINE",
"291 511 LINE",
"30 -44 LINE"
);
}
);
};
components = (
{
name = o;
}
);
layerId = "8A3706BD-364F-4FE3-9C2E-7E87DF0DB4CC";
paths = (
{
closed = 1;
nodes = (
"87 -44 LINE",
"349 511 LINE",
"291 511 LINE",
"30 -44 LINE"
);
}
);
width = 396;
}
);
unicode = 00F8;
},
{
glyphname = oe;
lastChange = "2021-05-18 01:50:04 +0000";
layers = (
{
background = {
paths = (
{
closed = 1;
nodes = (
"283 -7 OFFCURVE",
"289 62 OFFCURVE",
"289 124 CURVE",
"289 372 LINE",
"289 434 OFFCURVE",
"283 503 OFFCURVE",
"170 503 CURVE",
"56 503 OFFCURVE",
"50 434 OFFCURVE",
"50 372 CURVE",
"50 124 LINE",
"50 62 OFFCURVE",
"56 -7 OFFCURVE",
"170 -7 CURVE"
);
},
{
closed = 1;
nodes = (
"75 9 OFFCURVE",
"70 72 OFFCURVE",
"70 131 CURVE",
"70 367 LINE",
"70 424 OFFCURVE",
"75 487 OFFCURVE",
"170 487 CURVE",
"264 487 OFFCURVE",
"269 424 OFFCURVE",
"269 367 CURVE",
"269 131 LINE",
"269 72 OFFCURVE",
"264 9 OFFCURVE",
"170 9 CURVE"
);
},
{
closed = 1;
nodes = (
"494 120 LINE",
"494 38 OFFCURVE",
"475 9 OFFCURVE",
"395 9 CURVE",
"315 9 OFFCURVE",
"297 38 OFFCURVE",
"297 120 CURVE",
"297 263 LINE",
"514 263 LINE",
"514 385 LINE",
"514 477 OFFCURVE",
"485 505 OFFCURVE",
"396 505 CURVE",
"306 505 OFFCURVE",
"277 477 OFFCURVE",
"277 385 CURVE",
"277 120 LINE",
"277 19 OFFCURVE",
"306 -9 OFFCURVE",
"396 -9 CURVE",
"486 -9 OFFCURVE",
"514 19 OFFCURVE",
"514 120 CURVE",
"514 172 LINE",
"494 172 LINE"
);
},
{
closed = 1;
nodes = (
"297 457 OFFCURVE",
"316 489 OFFCURVE",
"396 489 CURVE",
"476 489 OFFCURVE",
"494 457 OFFCURVE",
"494 384 CURVE",
"494 280 LINE",
"297 280 LINE",
"297 384 LINE"
);
},
{
closed = 1;
nodes = (
"283 -7 OFFCURVE",
"289 62 OFFCURVE",
"289 124 CURVE SMOOTH",
"289 372 LINE SMOOTH",
"289 434 OFFCURVE",
"283 503 OFFCURVE",
"170 503 CURVE SMOOTH",
"56 503 OFFCURVE",
"50 434 OFFCURVE",
"50 372 CURVE SMOOTH",
"50 124 LINE SMOOTH",
"50 62 OFFCURVE",
"56 -7 OFFCURVE",
"170 -7 CURVE SMOOTH"
);
},
{
closed = 1;
nodes = (
"75 9 OFFCURVE",
"70 72 OFFCURVE",
"70 131 CURVE SMOOTH",
"70 367 LINE SMOOTH",
"70 424 OFFCURVE",
"75 487 OFFCURVE",
"170 487 CURVE SMOOTH",
"264 487 OFFCURVE",
"269 424 OFFCURVE",
"269 367 CURVE SMOOTH",
"269 131 LINE SMOOTH",
"269 72 OFFCURVE",
"264 9 OFFCURVE",
"170 9 CURVE SMOOTH"
);
},
{
closed = 1;
nodes = (
"486 -9 OFFCURVE",
"514 19 OFFCURVE",
"514 120 CURVE SMOOTH",
"514 172 LINE",
"494 172 LINE",
"494 120 LINE SMOOTH",
"494 38 OFFCURVE",
"475 9 OFFCURVE",
"395 9 CURVE SMOOTH",
"315 9 OFFCURVE",
"297 38 OFFCURVE",
"297 120 CURVE SMOOTH",
"297 263 LINE",
"514 263 LINE",
"514 385 LINE SMOOTH",
"514 477 OFFCURVE",
"485 505 OFFCURVE",
"396 505 CURVE SMOOTH",
"306 505 OFFCURVE",
"277 477 OFFCURVE",
"277 385 CURVE SMOOTH",
"277 120 LINE SMOOTH",
"277 19 OFFCURVE",
"306 -9 OFFCURVE",
"396 -9 CURVE SMOOTH"
);
},
{
closed = 1;
nodes = (
"297 384 LINE SMOOTH",
"297 457 OFFCURVE",
"316 489 OFFCURVE",
"396 489 CURVE SMOOTH",
"476 489 OFFCURVE",
"494 457 OFFCURVE",
"494 384 CURVE SMOOTH",
"494 280 LINE",
"297 280 LINE"
);
},
{
closed = 1;
nodes = (
"283 -7 OFFCURVE",
"289 62 OFFCURVE",
"289 124 CURVE SMOOTH",
"289 372 LINE SMOOTH",
"289 434 OFFCURVE",
"283 503 OFFCURVE",
"170 503 CURVE SMOOTH",
"56 503 OFFCURVE",
"50 434 OFFCURVE",
"50 372 CURVE SMOOTH",
"50 124 LINE SMOOTH",
"50 62 OFFCURVE",
"56 -7 OFFCURVE",
"170 -7 CURVE SMOOTH"
);
},
{
closed = 1;
nodes = (
"75 9 OFFCURVE",
"70 72 OFFCURVE",
"70 131 CURVE SMOOTH",
"70 367 LINE SMOOTH",
"70 424 OFFCURVE",
"75 487 OFFCURVE",
"170 487 CURVE SMOOTH",
"264 487 OFFCURVE",
"269 424 OFFCURVE",
"269 367 CURVE SMOOTH",
"269 131 LINE SMOOTH",
"269 72 OFFCURVE",
"264 9 OFFCURVE",
"170 9 CURVE SMOOTH"
);
},
{
closed = 1;
nodes = (
"478 -9 OFFCURVE",
"506 19 OFFCURVE",
"506 120 CURVE SMOOTH",
"506 172 LINE",
"486 172 LINE",
"486 120 LINE SMOOTH",
"486 38 OFFCURVE",
"467 9 OFFCURVE",
"387 9 CURVE SMOOTH",
"307 9 OFFCURVE",
"289 38 OFFCURVE",
"289 120 CURVE SMOOTH",
"289 263 LINE",
"506 263 LINE",
"506 385 LINE SMOOTH",
"506 477 OFFCURVE",
"477 505 OFFCURVE",
"388 505 CURVE SMOOTH",
"298 505 OFFCURVE",
"269 477 OFFCURVE",
"269 385 CURVE SMOOTH",
"269 120 LINE SMOOTH",
"269 19 OFFCURVE",
"298 -9 OFFCURVE",
"388 -9 CURVE SMOOTH"
);
},
{
closed = 1;
nodes = (
"289 384 LINE SMOOTH",
"289 457 OFFCURVE",
"308 489 OFFCURVE",
"388 489 CURVE SMOOTH",
"468 489 OFFCURVE",
"486 457 OFFCURVE",
"486 384 CURVE SMOOTH",
"486 280 LINE",
"289 280 LINE"
);
}
);
};
layerId = "82B1C968-1149-4E0D-B361-F2F5D539D913";
paths = (
{
closed = 1;
nodes = (
"280 -7 OFFCURVE",
"286 62 OFFCURVE",
"286 124 CURVE SMOOTH",
"286 372 LINE SMOOTH",
"286 434 OFFCURVE",
"280 503 OFFCURVE",
"170 503 CURVE SMOOTH",
"56 503 OFFCURVE",
"50 434 OFFCURVE",
"50 372 CURVE SMOOTH",
"50 124 LINE SMOOTH",
"50 62 OFFCURVE",
"56 -7 OFFCURVE",
"170 -7 CURVE SMOOTH"
);
},
{
closed = 1;
nodes = (
"75 9 OFFCURVE",
"70 72 OFFCURVE",
"70 131 CURVE SMOOTH",
"70 367 LINE SMOOTH",
"70 424 OFFCURVE",
"75 487 OFFCURVE",
"170 487 CURVE SMOOTH",
"264 487 OFFCURVE",
"269 424 OFFCURVE",
"269 367 CURVE SMOOTH",
"269 131 LINE SMOOTH",
"269 72 OFFCURVE",
"264 9 OFFCURVE",
"170 9 CURVE SMOOTH"
);
},
{
closed = 1;
nodes = (
"478 -9 OFFCURVE",
"506 19 OFFCURVE",
"506 120 CURVE SMOOTH",
"506 172 LINE",
"486 172 LINE",
"486 120 LINE SMOOTH",
"486 38 OFFCURVE",
"467 9 OFFCURVE",
"387 9 CURVE SMOOTH",
"307 9 OFFCURVE",
"289 38 OFFCURVE",
"289 120 CURVE SMOOTH",
"289 263 LINE",
"506 263 LINE",
"506 385 LINE SMOOTH",
"506 477 OFFCURVE",
"477 505 OFFCURVE",
"388 505 CURVE SMOOTH",
"298 505 OFFCURVE",
"269 477 OFFCURVE",
"269 385 CURVE SMOOTH",
"269 120 LINE SMOOTH",
"269 19 OFFCURVE",
"298 -9 OFFCURVE",
"388 -9 CURVE SMOOTH"
);
},
{
closed = 1;
nodes = (
"289 384 LINE SMOOTH",
"289 457 OFFCURVE",
"308 489 OFFCURVE",
"388 489 CURVE SMOOTH",
"468 489 OFFCURVE",
"486 457 OFFCURVE",
"486 384 CURVE SMOOTH",
"486 280 LINE",
"289 280 LINE"
);
}
);
width = 551;
},
{
background = {
paths = (
{
closed = 1;
nodes = (
"304 -12 OFFCURVE",
"371 7 OFFCURVE",
"371 167 CURVE",
"371 373 LINE",
"371 472 OFFCURVE",
"309 503 OFFCURVE",
"198 503 CURVE",
"87 503 OFFCURVE",
"25 472 OFFCURVE",
"25 373 CURVE",
"25 166 LINE",
"25 7 OFFCURVE",
"92 -12 OFFCURVE",
"198 -12 CURVE"
);
},
{
closed = 1;
nodes = (
"188 68 OFFCURVE",
"181 75 OFFCURVE",
"181 98 CURVE",
"181 393 LINE",
"181 416 OFFCURVE",
"188 423 OFFCURVE",
"198 423 CURVE",
"208 423 OFFCURVE",
"215 416 OFFCURVE",
"215 393 CURVE",
"215 98 LINE",
"215 75 OFFCURVE",
"208 68 OFFCURVE",
"198 68 CURVE"
);
},
{
closed = 1;
nodes = (
"450 98 LINE",
"450 75 OFFCURVE",
"443 68 OFFCURVE",
"433 68 CURVE",
"423 68 OFFCURVE",
"416 75 OFFCURVE",
"416 98 CURVE",
"416 233 LINE",
"606 233 LINE",
"606 373 LINE",
"606 472 OFFCURVE",
"544 503 OFFCURVE",
"433 503 CURVE",
"322 503 OFFCURVE",
"260 472 OFFCURVE",
"260 373 CURVE",
"260 166 LINE",
"260 7 OFFCURVE",
"327 -12 OFFCURVE",
"433 -12 CURVE",
"539 -12 OFFCURVE",
"606 7 OFFCURVE",
"606 167 CURVE",
"606 188 LINE",
"450 188 LINE"
);
},
{
closed = 1;
nodes = (
"416 416 OFFCURVE",
"423 423 OFFCURVE",
"433 423 CURVE",
"443 423 OFFCURVE",
"450 416 OFFCURVE",
"450 393 CURVE",
"450 300 LINE",
"416 300 LINE",
"416 393 LINE"
);
},
{
closed = 1;
nodes = (
"304 -8 OFFCURVE",
"371 11 OFFCURVE",
"371 171 CURVE SMOOTH",
"371 363 LINE SMOOTH",
"371 470 OFFCURVE",
"309 503 OFFCURVE",
"198 503 CURVE SMOOTH",
"87 503 OFFCURVE",
"25 470 OFFCURVE",
"25 363 CURVE SMOOTH",
"25 170 LINE SMOOTH",
"25 11 OFFCURVE",
"92 -8 OFFCURVE",
"198 -8 CURVE SMOOTH"
);
},
{
closed = 1;
nodes = (
"188 82 OFFCURVE",
"181 89 OFFCURVE",
"181 112 CURVE SMOOTH",
"181 383 LINE SMOOTH",
"181 406 OFFCURVE",
"188 413 OFFCURVE",
"198 413 CURVE SMOOTH",
"208 413 OFFCURVE",
"215 406 OFFCURVE",
"215 383 CURVE SMOOTH",
"215 112 LINE SMOOTH",
"215 89 OFFCURVE",
"208 82 OFFCURVE",
"198 82 CURVE SMOOTH"
);
},
{
closed = 1;
nodes = (
"494 -8 OFFCURVE",
"561 11 OFFCURVE",
"561 171 CURVE SMOOTH",
"561 192 LINE",
"405 192 LINE",
"405 102 LINE SMOOTH",
"405 79 OFFCURVE",
"398 72 OFFCURVE",
"388 72 CURVE SMOOTH",
"378 72 OFFCURVE",
"371 79 OFFCURVE",
"371 102 CURVE SMOOTH",
"371 233 LINE",
"561 233 LINE",
"561 373 LINE SMOOTH",
"561 472 OFFCURVE",
"499 503 OFFCURVE",
"388 503 CURVE SMOOTH",
"277 503 OFFCURVE",
"215 472 OFFCURVE",
"215 373 CURVE SMOOTH",
"215 170 LINE SMOOTH",
"215 11 OFFCURVE",
"282 -8 OFFCURVE",
"388 -8 CURVE SMOOTH"
);
},
{
closed = 1;
nodes = (
"371 393 LINE SMOOTH",
"371 416 OFFCURVE",
"378 423 OFFCURVE",
"388 423 CURVE SMOOTH",
"398 423 OFFCURVE",
"405 416 OFFCURVE",
"405 393 CURVE SMOOTH",
"405 300 LINE",
"371 300 LINE"
);
}
);
};
layerId = "8A3706BD-364F-4FE3-9C2E-7E87DF0DB4CC";
paths = (
{
closed = 1;
nodes = (
"289 -8 OFFCURVE",
"341 48 OFFCURVE",
"341 171 CURVE SMOOTH",
"341 363 LINE SMOOTH",
"341 451 OFFCURVE",
"271 503 OFFCURVE",
"191 503 CURVE SMOOTH",
"87 503 OFFCURVE",
"25 470 OFFCURVE",
"25 363 CURVE SMOOTH",
"25 170 LINE SMOOTH",
"25 11 OFFCURVE",
"92 -8 OFFCURVE",
"190 -8 CURVE SMOOTH"
);
},
{
closed = 1;
nodes = (
"188 82 OFFCURVE",
"181 89 OFFCURVE",
"181 112 CURVE SMOOTH",
"181 383 LINE SMOOTH",
"181 406 OFFCURVE",
"188 413 OFFCURVE",
"198 413 CURVE SMOOTH",
"208 413 OFFCURVE",
"215 406 OFFCURVE",
"215 383 CURVE SMOOTH",
"215 112 LINE SMOOTH",
"215 89 OFFCURVE",
"208 82 OFFCURVE",
"198 82 CURVE SMOOTH"
);
},
{
closed = 1;
nodes = (
"502 -8 OFFCURVE",
"561 34 OFFCURVE",
"561 171 CURVE SMOOTH",
"561 192 LINE",
"405 192 LINE",
"405 108 LINE SMOOTH",
"405 85 OFFCURVE",
"398 78 OFFCURVE",
"388 78 CURVE SMOOTH",
"378 78 OFFCURVE",
"371 85 OFFCURVE",
"371 108 CURVE SMOOTH",
"371 233 LINE",
"561 233 LINE",
"561 373 LINE SMOOTH",
"561 472 OFFCURVE",
"499 503 OFFCURVE",
"398 503 CURVE SMOOTH",
"311 503 OFFCURVE",
"245 454 OFFCURVE",
"245 351 CURVE SMOOTH",
"245 170 LINE SMOOTH",
"245 47 OFFCURVE",
"293 -8 OFFCURVE",
"398 -8 CURVE SMOOTH"
);
},
{
closed = 1;
nodes = (
"371 383 LINE SMOOTH",
"371 406 OFFCURVE",
"378 413 OFFCURVE",
"388 413 CURVE SMOOTH",
"398 413 OFFCURVE",
"405 406 OFFCURVE",
"405 383 CURVE SMOOTH",
"405 300 LINE",
"371 300 LINE"
);
}
);
width = 581;
}
);
leftMetricsKey = o;
rightMetricsKey = e;
unicode = 0153;
},
{
glyphname = p;
lastChange = "2021-05-18 00:35:09 +0000";
layers = (
{
background = {
paths = (
{
closed = 1;
nodes = (
"69 -116 LINE",
"69 34 LINE",
"84 10 OFFCURVE",
"115 -7 OFFCURVE",
"170 -7 CURVE",
"283 -7 OFFCURVE",
"289 62 OFFCURVE",
"289 124 CURVE",
"289 371 LINE",
"289 433 OFFCURVE",
"283 502 OFFCURVE",
"170 502 CURVE",
"104 502 OFFCURVE",
"80 479 OFFCURVE",
"67 448 CURVE",
"64 495 LINE",
"50 495 LINE",
"50 -116 LINE"
);
},
{
closed = 1;
nodes = (
"76 9 OFFCURVE",
"70 62 OFFCURVE",
"70 123 CURVE",
"70 333 LINE",
"70 400 OFFCURVE",
"66 487 OFFCURVE",
"170 487 CURVE",
"273 487 OFFCURVE",
"269 422 OFFCURVE",
"269 363 CURVE",
"269 133 LINE",
"269 74 OFFCURVE",
"273 9 OFFCURVE",
"170 9 CURVE"
);
}
);
};
layerId = "82B1C968-1149-4E0D-B361-F2F5D539D913";
paths = (
{
closed = 1;
nodes = (
"69 -116 LINE",
"69 34 LINE",
"84 10 OFFCURVE",
"115 -7 OFFCURVE",
"170 -7 CURVE SMOOTH",
"283 -7 OFFCURVE",
"289 62 OFFCURVE",
"289 124 CURVE SMOOTH",
"289 371 LINE SMOOTH",
"289 433 OFFCURVE",
"283 502 OFFCURVE",
"170 502 CURVE SMOOTH",
"104 502 OFFCURVE",
"80 479 OFFCURVE",
"67 448 CURVE",
"64 495 LINE",
"50 495 LINE",
"50 -116 LINE"
);
},
{
closed = 1;
nodes = (
"76 9 OFFCURVE",
"70 62 OFFCURVE",
"70 123 CURVE SMOOTH",
"70 333 LINE SMOOTH",
"70 400 OFFCURVE",
"66 487 OFFCURVE",
"170 487 CURVE SMOOTH",
"273 487 OFFCURVE",
"269 422 OFFCURVE",
"269 363 CURVE SMOOTH",
"269 133 LINE SMOOTH",
"269 74 OFFCURVE",
"273 9 OFFCURVE",
"170 9 CURVE SMOOTH"
);
}
);
width = 339;
},
{
background = {
paths = (
{
closed = 1;
nodes = (
"181 -116 LINE",
"181 36 LINE",
"194 14 OFFCURVE",
"216 -6 OFFCURVE",
"261 -6 CURVE",
"320 -6 OFFCURVE",
"371 21 OFFCURVE",
"371 154 CURVE",
"371 391 LINE",
"371 489 OFFCURVE",
"309 503 OFFCURVE",
"260 503 CURVE",
"210 503 OFFCURVE",
"193 479 OFFCURVE",
"181 460 CURVE",
"181 495 LINE",
"25 495 LINE",
"25 -116 LINE"
);
},
{
closed = 1;
nodes = (
"188 80 OFFCURVE",
"181 87 OFFCURVE",
"181 110 CURVE",
"181 405 LINE",
"181 405 OFFCURVE",
"189 408 OFFCURVE",
"198 408 CURVE",
"208 408 OFFCURVE",
"215 401 OFFCURVE",
"215 378 CURVE",
"215 110 LINE",
"215 87 OFFCURVE",
"208 80 OFFCURVE",
"198 80 CURVE"
);
}
);
};
layerId = "8A3706BD-364F-4FE3-9C2E-7E87DF0DB4CC";
paths = (
{
closed = 1;
nodes = (
"181 -116 LINE",
"181 36 LINE",
"194 14 OFFCURVE",
"216 -6 OFFCURVE",
"261 -6 CURVE SMOOTH",
"320 -6 OFFCURVE",
"371 21 OFFCURVE",
"371 154 CURVE SMOOTH",
"371 391 LINE SMOOTH",
"371 489 OFFCURVE",
"309 503 OFFCURVE",
"260 503 CURVE SMOOTH",
"210 503 OFFCURVE",
"193 479 OFFCURVE",
"181 460 CURVE",
"181 495 LINE",
"25 495 LINE",
"25 -116 LINE"
);
},
{
closed = 1;
nodes = (
"188 80 OFFCURVE",
"181 87 OFFCURVE",
"181 110 CURVE SMOOTH",
"181 405 LINE",
"181 405 OFFCURVE",
"189 408 OFFCURVE",
"198 408 CURVE SMOOTH",
"208 408 OFFCURVE",
"215 401 OFFCURVE",
"215 378 CURVE SMOOTH",
"215 110 LINE SMOOTH",
"215 87 OFFCURVE",
"208 80 OFFCURVE",
"198 80 CURVE SMOOTH"
);
}
);
width = 396;
}
);
unicode = 0070;
},
{
color = 4;
glyphname = thorn;
lastChange = "2021-05-18 01:57:37 +0000";
layers = (
{
background = {
paths = (
{
closed = 1;
nodes = (
"-336 -116 LINE",
"-336 87 LINE",
"-333 75 OFFCURVE",
"-327 59 OFFCURVE",
"-319 48 CURVE",
"-292 3 OFFCURVE",
"-248 -7 OFFCURVE",
"-197 -7 CURVE SMOOTH",
"-136 -7 OFFCURVE",
"-66 7 OFFCURVE",
"-66 155 CURVE SMOOTH",
"-66 366 LINE SMOOTH",
"-66 485 OFFCURVE",
"-130 505 OFFCURVE",
"-206 505 CURVE SMOOTH",
"-246 505 OFFCURVE",
"-315 489 OFFCURVE",
"-336 420 CURVE",
"-336 630 LINE",
"-355 630 LINE",
"-355 -116 LINE"
);
},
{
closed = 1;
nodes = (
"-320 9 OFFCURVE",
"-336 121 OFFCURVE",
"-336 181 CURVE SMOOTH",
"-336 324 LINE SMOOTH",
"-336 351 OFFCURVE",
"-333 399 OFFCURVE",
"-309 437 CURVE SMOOTH",
"-291 467 OFFCURVE",
"-258 490 OFFCURVE",
"-204 490 CURVE SMOOTH",
"-104 490 OFFCURVE",
"-85 435 OFFCURVE",
"-85 356 CURVE SMOOTH",
"-85 162 LINE SMOOTH",
"-85 60 OFFCURVE",
"-122 9 OFFCURVE",
"-197 9 CURVE SMOOTH"
);
},
{
closed = 1;
nodes = (
"-336 -116 LINE",
"-336 87 LINE",
"-333 75 OFFCURVE",
"-327 59 OFFCURVE",
"-319 48 CURVE",
"-292 3 OFFCURVE",
"-248 -7 OFFCURVE",
"-197 -7 CURVE SMOOTH",
"-136 -7 OFFCURVE",
"-66 7 OFFCURVE",
"-66 155 CURVE SMOOTH",
"-66 366 LINE SMOOTH",
"-66 485 OFFCURVE",
"-130 505 OFFCURVE",
"-206 505 CURVE SMOOTH",
"-246 505 OFFCURVE",
"-315 489 OFFCURVE",
"-336 420 CURVE",
"-336 630 LINE",
"-355 630 LINE",
"-355 -116 LINE"
);
},
{
closed = 1;
nodes = (
"-320 9 OFFCURVE",
"-336 121 OFFCURVE",
"-336 181 CURVE SMOOTH",
"-336 324 LINE SMOOTH",
"-336 351 OFFCURVE",
"-333 399 OFFCURVE",
"-309 437 CURVE SMOOTH",
"-291 467 OFFCURVE",
"-258 490 OFFCURVE",
"-204 490 CURVE SMOOTH",
"-104 490 OFFCURVE",
"-85 435 OFFCURVE",
"-85 356 CURVE SMOOTH",
"-85 162 LINE SMOOTH",
"-85 60 OFFCURVE",
"-122 9 OFFCURVE",
"-197 9 CURVE SMOOTH"
);
},
{
closed = 1;
nodes = (
"69 -116 LINE",
"69 34 LINE",
"84 10 OFFCURVE",
"115 -7 OFFCURVE",
"170 -7 CURVE SMOOTH",
"283 -7 OFFCURVE",
"289 62 OFFCURVE",
"289 124 CURVE SMOOTH",
"289 371 LINE SMOOTH",
"289 433 OFFCURVE",
"283 502 OFFCURVE",
"170 502 CURVE SMOOTH",
"104 502 OFFCURVE",
"80 479 OFFCURVE",
"67 448 CURVE",
"64 495 LINE",
"50 495 LINE",
"50 -116 LINE"
);
},
{
closed = 1;
nodes = (
"76 9 OFFCURVE",
"70 62 OFFCURVE",
"70 123 CURVE SMOOTH",
"70 333 LINE SMOOTH",
"70 400 OFFCURVE",
"66 487 OFFCURVE",
"170 487 CURVE SMOOTH",
"273 487 OFFCURVE",
"269 422 OFFCURVE",
"269 363 CURVE SMOOTH",
"269 133 LINE SMOOTH",
"269 74 OFFCURVE",
"273 9 OFFCURVE",
"170 9 CURVE SMOOTH"
);
}
);
};
hints = (
{
horizontal = 1;
place = "{-116, 21}";
target = up;
type = BottomGhost;
},
{
horizontal = 1;
place = "{-7, 16}";
type = Stem;
},
{
horizontal = 1;
place = "{490, 15}";
type = Stem;
},
{
place = "{50, 19}";
type = Stem;
},
{
place = "{320, 19}";
type = Stem;
}
);
layerId = "82B1C968-1149-4E0D-B361-F2F5D539D913";
paths = (
{
closed = 1;
nodes = (
"69 -116 LINE",
"67 47 LINE",
"80 16 OFFCURVE",
"104 -7 OFFCURVE",
"170 -7 CURVE SMOOTH",
"283 -7 OFFCURVE",
"289 62 OFFCURVE",
"289 124 CURVE SMOOTH",
"289 374 LINE SMOOTH",
"289 435 OFFCURVE",
"283 503 OFFCURVE",
"170 503 CURVE SMOOTH",
"115 503 OFFCURVE",
"87 483 OFFCURVE",
"69 450 CURVE",
"69 630 LINE",
"50 630 LINE",
"50 -116 LINE"
);
},
{
closed = 1;
nodes = (
"66 8 OFFCURVE",
"70 95 OFFCURVE",
"70 162 CURVE SMOOTH",
"70 369 LINE SMOOTH",
"70 429 OFFCURVE",
"92 487 OFFCURVE",
"170 487 CURVE SMOOTH",
"273 487 OFFCURVE",
"269 423 OFFCURVE",
"269 365 CURVE SMOOTH",
"269 132 LINE SMOOTH",
"269 73 OFFCURVE",
"273 8 OFFCURVE",
"170 8 CURVE SMOOTH"
);
}
);
width = 339;
},
{
background = {
paths = (
{
closed = 1;
nodes = (
"181 -116 LINE",
"181 36 LINE",
"187 25 OFFCURVE",
"196 14 OFFCURVE",
"208 7 CURVE SMOOTH",
"221 -1 OFFCURVE",
"238 -6 OFFCURVE",
"261 -6 CURVE SMOOTH",
"320 -6 OFFCURVE",
"371 22 OFFCURVE",
"371 154 CURVE SMOOTH",
"371 391 LINE SMOOTH",
"371 490 OFFCURVE",
"309 503 OFFCURVE",
"260 503 CURVE SMOOTH",
"210 503 OFFCURVE",
"192 479 OFFCURVE",
"181 460 CURVE",
"181 630 LINE",
"25 630 LINE",
"25 -116 LINE"
);
},
{
closed = 1;
nodes = (
"187 80 OFFCURVE",
"181 87 OFFCURVE",
"181 110 CURVE SMOOTH",
"181 294 LINE SMOOTH",
"181 312 OFFCURVE",
"181 379 OFFCURVE",
"181 405 CURVE",
"189 408 OFFCURVE",
"195 408 OFFCURVE",
"199 408 CURVE SMOOTH",
"209 408 OFFCURVE",
"215 401 OFFCURVE",
"215 378 CURVE SMOOTH",
"215 110 LINE SMOOTH",
"215 87 OFFCURVE",
"209 80 OFFCURVE",
"198 80 CURVE SMOOTH"
);
},
{
closed = 1;
nodes = (
"311 -7 OFFCURVE",
"371 3 OFFCURVE",
"371 154 CURVE SMOOTH",
"371 389 LINE SMOOTH",
"371 487 OFFCURVE",
"312 503 OFFCURVE",
"263 503 CURVE SMOOTH",
"213 503 OFFCURVE",
"193 477 OFFCURVE",
"181 458 CURVE",
"181 630 LINE",
"25 630 LINE",
"25 0 LINE",
"135 0 LINE",
"138 43 LINE",
"146 26 OFFCURVE",
"177 -7 OFFCURVE",
"235 -7 CURVE SMOOTH"
);
},
{
closed = 1;
nodes = (
"185 98 OFFCURVE",
"181 110 OFFCURVE",
"181 133 CURVE SMOOTH",
"181 376 LINE SMOOTH",
"181 399 OFFCURVE",
"188 406 OFFCURVE",
"198 406 CURVE SMOOTH",
"208 406 OFFCURVE",
"215 399 OFFCURVE",
"215 376 CURVE SMOOTH",
"215 133 LINE SMOOTH",
"215 110 OFFCURVE",
"213 98 OFFCURVE",
"198 98 CURVE SMOOTH"
);
}
);
};
layerId = "8A3706BD-364F-4FE3-9C2E-7E87DF0DB4CC";
paths = (
{
closed = 1;
nodes = (
"181 -116 LINE",
"181 36 LINE",
"197 6 OFFCURVE",
"225 -6 OFFCURVE",
"261 -6 CURVE SMOOTH",
"320 -6 OFFCURVE",
"371 22 OFFCURVE",
"371 154 CURVE SMOOTH",
"371 391 LINE SMOOTH",
"371 490 OFFCURVE",
"309 503 OFFCURVE",
"260 503 CURVE SMOOTH",
"217 503 OFFCURVE",
"199 488 OFFCURVE",
"181 460 CURVE",
"181 630 LINE",
"25 630 LINE",
"25 -116 LINE"
);
},
{
closed = 1;
nodes = (
"187 80 OFFCURVE",
"181 87 OFFCURVE",
"181 110 CURVE SMOOTH",
"181 379 LINE SMOOTH",
"181 397 OFFCURVE",
"187 406 OFFCURVE",
"197 406 CURVE SMOOTH",
"207 406 OFFCURVE",
"215 401 OFFCURVE",
"215 378 CURVE SMOOTH",
"215 110 LINE SMOOTH",
"215 87 OFFCURVE",
"209 80 OFFCURVE",
"198 80 CURVE SMOOTH"
);
}
);
width = 396;
}
);
leftMetricsKey = n;
note = thorn;
rightKerningGroup = a;
rightMetricsKey = o;
unicode = 00FE;
},
{
glyphname = q;
lastChange = "2021-05-18 00:20:59 +0000";
layers = (
{
background = {
paths = (
{
closed = 1;
nodes = (
"289 -116 LINE",
"289 495 LINE",
"275 495 LINE",
"269 452 LINE",
"259 477 OFFCURVE",
"235 502 OFFCURVE",
"169 502 CURVE",
"56 502 OFFCURVE",
"50 433 OFFCURVE",
"50 371 CURVE",
"50 121 LINE",
"50 59 OFFCURVE",
"56 -10 OFFCURVE",
"169 -10 CURVE",
"224 -10 OFFCURVE",
"259 23 OFFCURVE",
"270 60 CURVE",
"270 -116 LINE"
);
},
{
closed = 1;
nodes = (
"66 6 OFFCURVE",
"70 71 OFFCURVE",
"70 130 CURVE",
"70 363 LINE",
"70 422 OFFCURVE",
"66 487 OFFCURVE",
"169 487 CURVE",
"273 487 OFFCURVE",
"270 400 OFFCURVE",
"270 333 CURVE",
"270 137 LINE",
"270 107 OFFCURVE",
"263 6 OFFCURVE",
"169 6 CURVE"
);
}
);
};
layerId = "82B1C968-1149-4E0D-B361-F2F5D539D913";
paths = (
{
closed = 1;
nodes = (
"289 -116 LINE",
"289 495 LINE",
"275 495 LINE",
"269 452 LINE",
"259 477 OFFCURVE",
"235 502 OFFCURVE",
"169 502 CURVE SMOOTH",
"56 502 OFFCURVE",
"50 433 OFFCURVE",
"50 371 CURVE SMOOTH",
"50 121 LINE SMOOTH",
"50 59 OFFCURVE",
"56 -10 OFFCURVE",
"169 -10 CURVE SMOOTH",
"224 -10 OFFCURVE",
"259 23 OFFCURVE",
"270 60 CURVE",
"270 -116 LINE"
);
},
{
closed = 1;
nodes = (
"66 6 OFFCURVE",
"70 71 OFFCURVE",
"70 130 CURVE SMOOTH",
"70 363 LINE SMOOTH",
"70 422 OFFCURVE",
"66 487 OFFCURVE",
"169 487 CURVE SMOOTH",
"273 487 OFFCURVE",
"270 400 OFFCURVE",
"270 333 CURVE SMOOTH",
"270 137 LINE SMOOTH",
"270 107 OFFCURVE",
"263 6 OFFCURVE",
"169 6 CURVE SMOOTH"
);
}
);
width = 339;
},
{
background = {
paths = (
{
closed = 1;
nodes = (
"371 -116 LINE",
"371 495 LINE",
"215 495 LINE",
"215 460 LINE",
"203 479 OFFCURVE",
"183 500 OFFCURVE",
"130 500 CURVE",
"96 500 OFFCURVE",
"25 489 OFFCURVE",
"25 391 CURVE",
"25 154 LINE",
"25 3 OFFCURVE",
"86 -7 OFFCURVE",
"132 -7 CURVE",
"182 -7 OFFCURVE",
"204 16 OFFCURVE",
"215 41 CURVE",
"215 -116 LINE"
);
},
{
closed = 1;
nodes = (
"188 80 OFFCURVE",
"181 87 OFFCURVE",
"181 110 CURVE",
"181 378 LINE",
"181 401 OFFCURVE",
"188 408 OFFCURVE",
"198 408 CURVE",
"207 408 OFFCURVE",
"215 405 OFFCURVE",
"215 405 CURVE",
"215 110 LINE",
"215 87 OFFCURVE",
"208 80 OFFCURVE",
"198 80 CURVE"
);
}
);
};
layerId = "8A3706BD-364F-4FE3-9C2E-7E87DF0DB4CC";
paths = (
{
closed = 1;
nodes = (
"371 -116 LINE",
"371 495 LINE",
"215 495 LINE",
"215 460 LINE",
"203 479 OFFCURVE",
"183 500 OFFCURVE",
"130 500 CURVE SMOOTH",
"96 500 OFFCURVE",
"25 489 OFFCURVE",
"25 391 CURVE SMOOTH",
"25 154 LINE SMOOTH",
"25 3 OFFCURVE",
"86 -7 OFFCURVE",
"132 -7 CURVE SMOOTH",
"182 -7 OFFCURVE",
"204 16 OFFCURVE",
"215 41 CURVE",
"215 -116 LINE"
);
},
{
closed = 1;
nodes = (
"188 80 OFFCURVE",
"181 87 OFFCURVE",
"181 110 CURVE SMOOTH",
"181 378 LINE SMOOTH",
"181 401 OFFCURVE",
"188 408 OFFCURVE",
"198 408 CURVE SMOOTH",
"207 408 OFFCURVE",
"215 405 OFFCURVE",
"215 405 CURVE",
"215 110 LINE SMOOTH",
"215 87 OFFCURVE",
"208 80 OFFCURVE",
"198 80 CURVE SMOOTH"
);
}
);
width = 396;
}
);
unicode = 0071;
},
{
glyphname = r;
lastChange = "2021-05-18 00:20:59 +0000";
layers = (
{
background = {
paths = (
{
closed = 1;
nodes = (
"70 0 LINE",
"70 408 LINE",
"83 457 OFFCURVE",
"117 487 OFFCURVE",
"174 487 CURVE",
"189 487 OFFCURVE",
"204 486 OFFCURVE",
"216 483 CURVE",
"216 499 LINE",
"204 501 OFFCURVE",
"190 502 OFFCURVE",
"174 502 CURVE",
"135 502 OFFCURVE",
"88 489 OFFCURVE",
"70 446 CURVE",
"66 495 LINE",
"50 495 LINE",
"50 0 LINE"
);
}
);
};
layerId = "82B1C968-1149-4E0D-B361-F2F5D539D913";
paths = (
{
closed = 1;
nodes = (
"70 0 LINE",
"70 408 LINE",
"83 457 OFFCURVE",
"117 487 OFFCURVE",
"174 487 CURVE SMOOTH",
"189 487 OFFCURVE",
"204 486 OFFCURVE",
"216 483 CURVE",
"216 499 LINE",
"204 501 OFFCURVE",
"190 502 OFFCURVE",
"174 502 CURVE SMOOTH",
"135 502 OFFCURVE",
"88 489 OFFCURVE",
"70 446 CURVE",
"66 495 LINE",
"50 495 LINE",
"50 0 LINE"
);
}
);
width = 246;
},
{
background = {
paths = (
{
closed = 1;
nodes = (
"181 0 LINE",
"181 279 LINE",
"181 318 OFFCURVE",
"186 349 OFFCURVE",
"209 366 CURVE",
"237 388 OFFCURVE",
"299 377 OFFCURVE",
"299 377 CURVE",
"299 496 LINE",
"270 502 OFFCURVE",
"241 498 OFFCURVE",
"218 485 CURVE SMOOTH",
"197 474 OFFCURVE",
"179 455 OFFCURVE",
"170 431 CURVE",
"158 495 LINE",
"25 495 LINE",
"25 0 LINE"
);
}
);
};
layerId = "8A3706BD-364F-4FE3-9C2E-7E87DF0DB4CC";
paths = (
{
closed = 1;
nodes = (
"181 0 LINE",
"181 279 LINE SMOOTH",
"181 318 OFFCURVE",
"186 349 OFFCURVE",
"209 366 CURVE SMOOTH",
"237 388 OFFCURVE",
"299 377 OFFCURVE",
"299 377 CURVE",
"299 496 LINE",
"270 502 OFFCURVE",
"241 498 OFFCURVE",
"218 485 CURVE SMOOTH",
"197 474 OFFCURVE",
"179 455 OFFCURVE",
"170 431 CURVE",
"158 495 LINE",
"25 495 LINE",
"25 0 LINE"
);
}
);
width = 304;
}
);
unicode = 0072;
},
{
glyphname = s;
lastChange = "2021-05-18 00:21:04 +0000";
layers = (
{
background = {
paths = (
{
closed = 1;
nodes = (
"50 126 LINE",
"50 66 OFFCURVE",
"47 -6 OFFCURVE",
"170 -6 CURVE",
"276 -6 OFFCURVE",
"287 59 OFFCURVE",
"287 111 CURVE",
"287 128 LINE",
"287 214 OFFCURVE",
"248 234 OFFCURVE",
"186 260 CURVE",
"109 292 OFFCURVE",
"77 316 OFFCURVE",
"77 380 CURVE",
"77 399 LINE",
"77 449 OFFCURVE",
"97 488 OFFCURVE",
"172 488 CURVE",
"235 488 OFFCURVE",
"267 464 OFFCURVE",
"267 380 CURVE",
"267 337 LINE",
"287 337 LINE",
"287 384 LINE",
"287 474 OFFCURVE",
"249 505 OFFCURVE",
"172 505 CURVE",
"91 505 OFFCURVE",
"57 465 OFFCURVE",
"57 406 CURVE",
"57 375 LINE",
"57 303 OFFCURVE",
"102 274 OFFCURVE",
"176 245 CURVE",
"244 219 OFFCURVE",
"267 183 OFFCURVE",
"267 134 CURVE",
"267 114 LINE",
"267 72 OFFCURVE",
"263 11 OFFCURVE",
"170 11 CURVE",
"67 11 OFFCURVE",
"70 67 OFFCURVE",
"70 129 CURVE",
"70 166 LINE",
"50 166 LINE"
);
}
);
};
layerId = "82B1C968-1149-4E0D-B361-F2F5D539D913";
paths = (
{
closed = 1;
nodes = (
"276 -6 OFFCURVE",
"287 59 OFFCURVE",
"287 111 CURVE SMOOTH",
"287 128 LINE SMOOTH",
"287 214 OFFCURVE",
"248 234 OFFCURVE",
"186 260 CURVE SMOOTH",
"109 292 OFFCURVE",
"77 316 OFFCURVE",
"77 380 CURVE SMOOTH",
"77 399 LINE SMOOTH",
"77 449 OFFCURVE",
"97 488 OFFCURVE",
"172 488 CURVE SMOOTH",
"235 488 OFFCURVE",
"267 464 OFFCURVE",
"267 380 CURVE SMOOTH",
"267 337 LINE",
"287 337 LINE",
"287 384 LINE SMOOTH",
"287 474 OFFCURVE",
"249 505 OFFCURVE",
"172 505 CURVE SMOOTH",
"91 505 OFFCURVE",
"57 465 OFFCURVE",
"57 406 CURVE SMOOTH",
"57 375 LINE SMOOTH",
"57 303 OFFCURVE",
"102 274 OFFCURVE",
"176 245 CURVE SMOOTH",
"244 219 OFFCURVE",
"267 183 OFFCURVE",
"267 134 CURVE SMOOTH",
"267 114 LINE SMOOTH",
"267 72 OFFCURVE",
"263 11 OFFCURVE",
"170 11 CURVE SMOOTH",
"67 11 OFFCURVE",
"70 67 OFFCURVE",
"70 129 CURVE SMOOTH",
"70 166 LINE",
"50 166 LINE",
"50 126 LINE SMOOTH",
"50 66 OFFCURVE",
"47 -6 OFFCURVE",
"170 -6 CURVE SMOOTH"
);
}
);
width = 337;
},
{
background = {
paths = (
{
closed = 1;
nodes = (
"22 144 LINE",
"22 39 OFFCURVE",
"58 -14 OFFCURVE",
"198 -14 CURVE",
"338 -14 OFFCURVE",
"380 35 OFFCURVE",
"380 134 CURVE",
"380 170 LINE",
"380 240 OFFCURVE",
"331 267 OFFCURVE",
"284 284 CURVE",
"247 297 OFFCURVE",
"195 303 OFFCURVE",
"195 350 CURVE",
"195 397 LINE",
"195 412 OFFCURVE",
"198 423 OFFCURVE",
"212 423 CURVE",
"226 423 OFFCURVE",
"229 410 OFFCURVE",
"229 384 CURVE",
"229 321 LINE",
"380 321 LINE",
"380 353 LINE",
"380 454 OFFCURVE",
"346 505 OFFCURVE",
"211 505 CURVE",
"76 505 OFFCURVE",
"35 458 OFFCURVE",
"35 363 CURVE",
"35 335 LINE",
"35 260 OFFCURVE",
"85 232 OFFCURVE",
"130 215 CURVE",
"178 195 OFFCURVE",
"213 191 OFFCURVE",
"213 141 CURVE",
"213 95 LINE",
"213 80 OFFCURVE",
"209 68 OFFCURVE",
"196 68 CURVE",
"181 68 OFFCURVE",
"179 82 OFFCURVE",
"179 109 CURVE",
"179 178 LINE",
"22 178 LINE"
);
}
);
};
layerId = "8A3706BD-364F-4FE3-9C2E-7E87DF0DB4CC";
paths = (
{
closed = 1;
nodes = (
"338 -14 OFFCURVE",
"380 35 OFFCURVE",
"380 134 CURVE SMOOTH",
"380 170 LINE SMOOTH",
"380 240 OFFCURVE",
"331 267 OFFCURVE",
"284 284 CURVE SMOOTH",
"247 297 OFFCURVE",
"195 303 OFFCURVE",
"195 350 CURVE SMOOTH",
"195 397 LINE SMOOTH",
"195 412 OFFCURVE",
"198 423 OFFCURVE",
"212 423 CURVE SMOOTH",
"226 423 OFFCURVE",
"229 410 OFFCURVE",
"229 384 CURVE SMOOTH",
"229 321 LINE",
"380 321 LINE",
"380 353 LINE SMOOTH",
"380 454 OFFCURVE",
"346 505 OFFCURVE",
"211 505 CURVE SMOOTH",
"76 505 OFFCURVE",
"35 458 OFFCURVE",
"35 363 CURVE SMOOTH",
"35 335 LINE SMOOTH",
"35 260 OFFCURVE",
"85 232 OFFCURVE",
"130 215 CURVE SMOOTH",
"178 195 OFFCURVE",
"213 191 OFFCURVE",
"213 141 CURVE SMOOTH",
"213 95 LINE SMOOTH",
"213 80 OFFCURVE",
"209 68 OFFCURVE",
"196 68 CURVE SMOOTH",
"181 68 OFFCURVE",
"179 82 OFFCURVE",
"179 109 CURVE SMOOTH",
"179 178 LINE",
"22 178 LINE",
"22 144 LINE SMOOTH",
"22 39 OFFCURVE",
"58 -14 OFFCURVE",
"198 -14 CURVE SMOOTH"
);
}
);
width = 402;
}
);
unicode = 0073;
},
{
glyphname = germandbls;
lastChange = "2021-05-18 00:21:04 +0000";
layers = (
{
background = {
paths = (
{
closed = 1;
nodes = (
"-25 -145 OFFCURVE",
"0 -147 OFFCURVE",
"15 -147 CURVE SMOOTH",
"71 -147 OFFCURVE",
"90 -114 OFFCURVE",
"90 -58 CURVE SMOOTH",
"90 529 LINE SMOOTH",
"90 567 OFFCURVE",
"100 615 OFFCURVE",
"188 615 CURVE SMOOTH",
"254 615 OFFCURVE",
"287 587 OFFCURVE",
"287 532 CURVE SMOOTH",
"287 445 LINE SMOOTH",
"287 386 OFFCURVE",
"269 348 OFFCURVE",
"202 348 CURVE SMOOTH",
"145 348 LINE",
"145 331 LINE",
"191 331 LINE SMOOTH",
"247 331 OFFCURVE",
"299 312 OFFCURVE",
"299 239 CURVE SMOOTH",
"299 125 LINE SMOOTH",
"299 33 OFFCURVE",
"261 17 OFFCURVE",
"205 17 CURVE SMOOTH",
"125 17 LINE",
"125 0 LINE",
"205 0 LINE SMOOTH",
"272 0 OFFCURVE",
"317 16 OFFCURVE",
"317 121 CURVE SMOOTH",
"317 244 LINE SMOOTH",
"317 303 OFFCURVE",
"284 334 OFFCURVE",
"256 338 CURVE",
"256 342 LINE",
"281 345 OFFCURVE",
"306 382 OFFCURVE",
"306 438 CURVE SMOOTH",
"306 533 LINE SMOOTH",
"306 606 OFFCURVE",
"264 631 OFFCURVE",
"188 631 CURVE SMOOTH",
"89 631 OFFCURVE",
"70 597 OFFCURVE",
"70 522 CURVE SMOOTH",
"70 495 LINE",
"39 495 LINE",
"39 477 LINE",
"70 477 LINE",
"70 -61 LINE SMOOTH",
"70 -100 OFFCURVE",
"58 -132 OFFCURVE",
"9 -132 CURVE SMOOTH",
"-4 -132 OFFCURVE",
"-14 -131 OFFCURVE",
"-21 -130 CURVE SMOOTH",
"-26 -129 OFFCURVE",
"-30 -129 OFFCURVE",
"-35 -128 CURVE",
"-35 -133 OFFCURVE",
"-35 -138 OFFCURVE",
"-35 -143 CURVE"
);
}
);
};
layerId = "82B1C968-1149-4E0D-B361-F2F5D539D913";
paths = (
{
closed = 1;
nodes = (
"71 -147 OFFCURVE",
"90 -114 OFFCURVE",
"90 -58 CURVE SMOOTH",
"90 529 LINE SMOOTH",
"90 567 OFFCURVE",
"100 615 OFFCURVE",
"188 615 CURVE SMOOTH",
"254 615 OFFCURVE",
"287 587 OFFCURVE",
"287 532 CURVE SMOOTH",
"287 445 LINE SMOOTH",
"287 386 OFFCURVE",
"269 348 OFFCURVE",
"202 348 CURVE SMOOTH",
"145 348 LINE",
"145 331 LINE",
"191 331 LINE SMOOTH",
"247 331 OFFCURVE",
"299 312 OFFCURVE",
"299 239 CURVE SMOOTH",
"299 125 LINE SMOOTH",
"299 33 OFFCURVE",
"261 17 OFFCURVE",
"205 17 CURVE SMOOTH",
"125 17 LINE",
"125 0 LINE",
"205 0 LINE SMOOTH",
"272 0 OFFCURVE",
"317 16 OFFCURVE",
"317 121 CURVE SMOOTH",
"317 244 LINE SMOOTH",
"317 303 OFFCURVE",
"284 334 OFFCURVE",
"256 338 CURVE",
"256 342 LINE",
"281 345 OFFCURVE",
"306 382 OFFCURVE",
"306 438 CURVE SMOOTH",
"306 533 LINE SMOOTH",
"306 606 OFFCURVE",
"264 631 OFFCURVE",
"188 631 CURVE SMOOTH",
"89 631 OFFCURVE",
"70 597 OFFCURVE",
"70 522 CURVE SMOOTH",
"70 495 LINE",
"39 495 LINE",
"39 477 LINE",
"70 477 LINE",
"70 -61 LINE SMOOTH",
"70 -100 OFFCURVE",
"58 -132 OFFCURVE",
"9 -132 CURVE SMOOTH",
"-4 -132 OFFCURVE",
"-14 -131 OFFCURVE",
"-21 -130 CURVE SMOOTH",
"-26 -129 OFFCURVE",
"-30 -129 OFFCURVE",
"-35 -128 CURVE",
"-35 -143 LINE",
"-25 -145 OFFCURVE",
"0 -147 OFFCURVE",
"15 -147 CURVE SMOOTH"
);
}
);
width = 342;
},
{
background = {
paths = (
{
closed = 1;
nodes = (
"-37 -145 OFFCURVE",
"0 -147 OFFCURVE",
"15 -147 CURVE SMOOTH",
"101 -147 OFFCURVE",
"215 -125 OFFCURVE",
"215 38 CURVE SMOOTH",
"214 498 LINE SMOOTH",
"214 536 OFFCURVE",
"221 558 OFFCURVE",
"258 558 CURVE SMOOTH",
"302 558 OFFCURVE",
"302 538 OFFCURVE",
"302 483 CURVE SMOOTH",
"302 435 LINE SMOOTH",
"302 396 OFFCURVE",
"298 373 OFFCURVE",
"276 373 CURVE SMOOTH",
"239 373 LINE",
"238 293 LINE",
"256 293 LINE SMOOTH",
"301 293 OFFCURVE",
"301 270 OFFCURVE",
"301 239 CURVE SMOOTH",
"301 186 LINE SMOOTH",
"301 94 OFFCURVE",
"298 78 OFFCURVE",
"261 78 CURVE SMOOTH",
"241 78 LINE",
"241 0 LINE",
"285 0 LINE SMOOTH",
"398 0 OFFCURVE",
"474 16 OFFCURVE",
"474 121 CURVE SMOOTH",
"474 244 LINE SMOOTH",
"474 303 OFFCURVE",
"419 334 OFFCURVE",
"371 338 CURVE",
"371 342 LINE",
"413 345 OFFCURVE",
"456 382 OFFCURVE",
"456 438 CURVE SMOOTH",
"456 533 LINE SMOOTH",
"456 606 OFFCURVE",
"385 631 OFFCURVE",
"256 631 CURVE SMOOTH",
"89 631 OFFCURVE",
"58 597 OFFCURVE",
"58 522 CURVE SMOOTH",
"58 495 LINE",
"15 495 LINE",
"15 389 LINE",
"58 389 LINE",
"58 12 LINE SMOOTH",
"58 -27 OFFCURVE",
"46 -59 OFFCURVE",
"-3 -59 CURVE SMOOTH",
"-16 -59 OFFCURVE",
"-26 -58 OFFCURVE",
"-33 -57 CURVE SMOOTH",
"-38 -56 OFFCURVE",
"-42 -56 OFFCURVE",
"-47 -55 CURVE",
"-47 -60 OFFCURVE",
"-47 -138 OFFCURVE",
"-47 -143 CURVE"
);
}
);
};
layerId = "8A3706BD-364F-4FE3-9C2E-7E87DF0DB4CC";
paths = (
{
closed = 1;
nodes = (
"101 -147 OFFCURVE",
"215 -125 OFFCURVE",
"215 38 CURVE SMOOTH",
"214 498 LINE SMOOTH",
"214 536 OFFCURVE",
"221 558 OFFCURVE",
"258 558 CURVE SMOOTH",
"302 558 OFFCURVE",
"302 538 OFFCURVE",
"302 483 CURVE SMOOTH",
"302 435 LINE SMOOTH",
"302 396 OFFCURVE",
"298 373 OFFCURVE",
"276 373 CURVE SMOOTH",
"239 373 LINE",
"238 293 LINE",
"256 293 LINE SMOOTH",
"301 293 OFFCURVE",
"301 270 OFFCURVE",
"301 239 CURVE SMOOTH",
"301 186 LINE SMOOTH",
"301 94 OFFCURVE",
"298 78 OFFCURVE",
"261 78 CURVE SMOOTH",
"241 78 LINE",
"241 0 LINE",
"285 0 LINE SMOOTH",
"398 0 OFFCURVE",
"474 16 OFFCURVE",
"474 121 CURVE SMOOTH",
"474 244 LINE SMOOTH",
"474 303 OFFCURVE",
"419 334 OFFCURVE",
"371 338 CURVE",
"371 342 LINE",
"413 345 OFFCURVE",
"456 382 OFFCURVE",
"456 438 CURVE SMOOTH",
"456 533 LINE SMOOTH",
"456 606 OFFCURVE",
"385 631 OFFCURVE",
"256 631 CURVE SMOOTH",
"89 631 OFFCURVE",
"58 597 OFFCURVE",
"58 522 CURVE SMOOTH",
"58 495 LINE",
"15 495 LINE",
"15 389 LINE",
"58 389 LINE",
"58 12 LINE SMOOTH",
"58 -27 OFFCURVE",
"46 -59 OFFCURVE",
"-3 -59 CURVE SMOOTH",
"-16 -59 OFFCURVE",
"-26 -58 OFFCURVE",
"-33 -57 CURVE SMOOTH",
"-38 -56 OFFCURVE",
"-42 -56 OFFCURVE",
"-47 -55 CURVE",
"-47 -143 LINE",
"-37 -145 OFFCURVE",
"0 -147 OFFCURVE",
"15 -147 CURVE SMOOTH"
);
}
);
width = 499;
}
);
unicode = 00DF;
},
{
glyphname = longs;
lastChange = "2021-05-18 00:20:56 +0000";
layers = (
{
background = {
paths = (
{
closed = 1;
nodes = (
"133 -147 OFFCURVE",
"155 -114 OFFCURVE",
"155 -58 CURVE SMOOTH",
"155 544 LINE SMOOTH",
"155 579 OFFCURVE",
"168 619 OFFCURVE",
"209 619 CURVE SMOOTH",
"246 619 OFFCURVE",
"272 614 OFFCURVE",
"300 609 CURVE",
"304 625 LINE",
"274 632 OFFCURVE",
"246 636 OFFCURVE",
"210 636 CURVE SMOOTH",
"158 636 OFFCURVE",
"136 603 OFFCURVE",
"136 547 CURVE SMOOTH",
"136 440 LINE",
"105 440 LINE",
"105 422 LINE",
"136 422 LINE",
"136 -55 LINE SMOOTH",
"136 -90 OFFCURVE",
"123 -130 OFFCURVE",
"82 -130 CURVE SMOOTH",
"65 -130 OFFCURVE",
"48 -129 OFFCURVE",
"33 -128 CURVE SMOOTH",
"10 -125 LINE",
"10 -143 LINE",
"25 -146 OFFCURVE",
"56 -147 OFFCURVE",
"81 -147 CURVE SMOOTH"
);
}
);
};
layerId = "82B1C968-1149-4E0D-B361-F2F5D539D913";
paths = (
{
closed = 1;
nodes = (
"133 -147 OFFCURVE",
"155 -114 OFFCURVE",
"155 -58 CURVE SMOOTH",
"155 544 LINE SMOOTH",
"155 579 OFFCURVE",
"168 619 OFFCURVE",
"209 619 CURVE SMOOTH",
"246 619 OFFCURVE",
"272 614 OFFCURVE",
"300 609 CURVE",
"304 625 LINE",
"274 632 OFFCURVE",
"246 636 OFFCURVE",
"210 636 CURVE SMOOTH",
"158 636 OFFCURVE",
"136 603 OFFCURVE",
"136 547 CURVE SMOOTH",
"136 440 LINE",
"105 440 LINE",
"105 422 LINE",
"136 422 LINE",
"136 -55 LINE SMOOTH",
"136 -90 OFFCURVE",
"123 -130 OFFCURVE",
"82 -130 CURVE SMOOTH",
"65 -130 OFFCURVE",
"48 -129 OFFCURVE",
"33 -128 CURVE SMOOTH",
"10 -125 LINE",
"10 -143 LINE",
"25 -146 OFFCURVE",
"56 -147 OFFCURVE",
"81 -147 CURVE SMOOTH"
);
}
);
width = 314;
},
{
background = {
paths = (
{
closed = 1;
nodes = (
"175 -135 OFFCURVE",
"241 -89 OFFCURVE",
"241 39 CURVE SMOOTH",
"241 490 LINE SMOOTH",
"241 510 OFFCURVE",
"245 540 OFFCURVE",
"268 540 CURVE SMOOTH",
"293 540 OFFCURVE",
"314 538 OFFCURVE",
"342 528 CURVE",
"355 616 LINE",
"326 623 OFFCURVE",
"290 630 OFFCURVE",
"256 630 CURVE SMOOTH",
"165 630 OFFCURVE",
"84 624 OFFCURVE",
"84 512 CURVE SMOOTH",
"84 440 LINE",
"41 440 LINE",
"41 350 LINE",
"84 350 LINE",
"84 -25 LINE",
"82 -34 OFFCURVE",
"76 -42 OFFCURVE",
"69 -48 CURVE SMOOTH",
"61 -55 OFFCURVE",
"51 -59 OFFCURVE",
"41 -59 CURVE SMOOTH",
"5 -59 LINE",
"5 -136 LINE",
"35 -142 OFFCURVE",
"66 -144 OFFCURVE",
"94 -142 CURVE SMOOTH"
);
}
);
};
layerId = "8A3706BD-364F-4FE3-9C2E-7E87DF0DB4CC";
paths = (
{
closed = 1;
nodes = (
"175 -135 OFFCURVE",
"241 -89 OFFCURVE",
"241 39 CURVE SMOOTH",
"241 490 LINE SMOOTH",
"241 510 OFFCURVE",
"245 540 OFFCURVE",
"268 540 CURVE SMOOTH",
"293 540 OFFCURVE",
"314 538 OFFCURVE",
"342 528 CURVE",
"355 616 LINE",
"326 623 OFFCURVE",
"290 630 OFFCURVE",
"256 630 CURVE SMOOTH",
"165 630 OFFCURVE",
"84 624 OFFCURVE",
"84 512 CURVE SMOOTH",
"84 440 LINE",
"41 440 LINE",
"41 350 LINE",
"84 350 LINE",
"84 -25 LINE",
"82 -34 OFFCURVE",
"76 -42 OFFCURVE",
"69 -48 CURVE SMOOTH",
"61 -55 OFFCURVE",
"51 -59 OFFCURVE",
"41 -59 CURVE SMOOTH",
"5 -59 LINE",
"5 -136 LINE",
"35 -142 OFFCURVE",
"66 -144 OFFCURVE",
"94 -142 CURVE SMOOTH"
);
}
);
width = 398;
}
);
unicode = 017F;
},
{
glyphname = t;
lastChange = "2021-05-18 00:20:59 +0000";
layers = (
{
background = {
paths = (
{
closed = 1;
nodes = (
"160 0 OFFCURVE",
"183 2 OFFCURVE",
"198 4 CURVE",
"198 21 LINE",
"184 20 OFFCURVE",
"162 18 OFFCURVE",
"142 18 CURVE",
"93 18 OFFCURVE",
"80 48 OFFCURVE",
"80 93 CURVE",
"80 478 LINE",
"198 478 LINE",
"198 495 LINE",
"80 495 LINE",
"80 589 LINE",
"68 589 LINE",
"61 495 LINE",
"20 491 LINE",
"20 478 LINE",
"61 478 LINE",
"61 89 LINE",
"61 33 OFFCURVE",
"80 0 OFFCURVE",
"135 0 CURVE"
);
}
);
};
layerId = "82B1C968-1149-4E0D-B361-F2F5D539D913";
paths = (
{
closed = 1;
nodes = (
"160 0 OFFCURVE",
"183 2 OFFCURVE",
"198 4 CURVE",
"198 21 LINE",
"184 20 OFFCURVE",
"162 18 OFFCURVE",
"142 18 CURVE SMOOTH",
"93 18 OFFCURVE",
"80 48 OFFCURVE",
"80 93 CURVE SMOOTH",
"80 478 LINE",
"198 478 LINE",
"198 495 LINE",
"80 495 LINE",
"80 589 LINE",
"68 589 LINE",
"61 495 LINE",
"20 491 LINE",
"20 478 LINE",
"61 478 LINE",
"61 89 LINE SMOOTH",
"61 33 OFFCURVE",
"80 0 OFFCURVE",
"135 0 CURVE SMOOTH"
);
}
);
width = 218;
},
{
background = {
paths = (
{
closed = 1;
nodes = (
"254 -5 OFFCURVE",
"299 9 OFFCURVE",
"299 9 CURVE",
"299 101 LINE",
"299 101 OFFCURVE",
"268 98 OFFCURVE",
"252 98 CURVE",
"220 98 OFFCURVE",
"215 122 OFFCURVE",
"215 142 CURVE",
"215 405 LINE",
"299 405 LINE",
"299 495 LINE",
"215 495 LINE",
"215 585 LINE",
"94 585 LINE",
"73 495 LINE",
"10 482 LINE",
"10 405 LINE",
"59 405 LINE",
"59 115 LINE",
"59 3 OFFCURVE",
"144 -5 OFFCURVE",
"209 -5 CURVE"
);
}
);
};
layerId = "8A3706BD-364F-4FE3-9C2E-7E87DF0DB4CC";
paths = (
{
closed = 1;
nodes = (
"254 -5 OFFCURVE",
"299 9 OFFCURVE",
"299 9 CURVE",
"299 101 LINE",
"299 101 OFFCURVE",
"268 98 OFFCURVE",
"252 98 CURVE SMOOTH",
"220 98 OFFCURVE",
"215 122 OFFCURVE",
"215 142 CURVE SMOOTH",
"215 405 LINE",
"299 405 LINE",
"299 495 LINE",
"215 495 LINE",
"215 585 LINE",
"94 585 LINE",
"73 495 LINE",
"10 482 LINE",
"10 405 LINE",
"59 405 LINE",
"59 115 LINE SMOOTH",
"59 3 OFFCURVE",
"144 -5 OFFCURVE",
"209 -5 CURVE SMOOTH"
);
}
);
width = 314;
}
);
unicode = 0074;
},
{
glyphname = u;
lastChange = "2021-05-18 00:43:52 +0000";
layers = (
{
background = {
paths = (
{
closed = 1;
nodes = (
"210 -8 OFFCURVE",
"255 4 OFFCURVE",
"270 49 CURVE",
"272 0 LINE",
"290 0 LINE",
"290 495 LINE",
"270 495 LINE",
"270 86 LINE",
"263 56 OFFCURVE",
"242 8 OFFCURVE",
"169 8 CURVE",
"66 8 OFFCURVE",
"70 73 OFFCURVE",
"70 132 CURVE",
"70 495 LINE",
"50 495 LINE",
"50 123 LINE",
"50 61 OFFCURVE",
"56 -8 OFFCURVE",
"169 -8 CURVE"
);
}
);
};
layerId = "82B1C968-1149-4E0D-B361-F2F5D539D913";
paths = (
{
closed = 1;
nodes = (
"230 -8 OFFCURVE",
"259 21 OFFCURVE",
"270 49 CURVE",
"272 0 LINE",
"290 0 LINE",
"290 495 LINE",
"270 495 LINE",
"270 86 LINE",
"263 57 OFFCURVE",
"242 10 OFFCURVE",
"169 10 CURVE SMOOTH",
"66 10 OFFCURVE",
"70 74 OFFCURVE",
"70 132 CURVE SMOOTH",
"70 495 LINE",
"50 495 LINE",
"50 123 LINE SMOOTH",
"50 61 OFFCURVE",
"56 -8 OFFCURVE",
"169 -8 CURVE SMOOTH"
);
}
);
width = 340;
},
{
background = {
paths = (
{
closed = 1;
nodes = (
"175 -7 OFFCURVE",
"211 24 OFFCURVE",
"223 65 CURVE",
"235 0 LINE",
"368 0 LINE",
"368 495 LINE",
"212 495 LINE",
"212 105 LINE",
"208 103 OFFCURVE",
"200 102 OFFCURVE",
"195 102 CURVE",
"184 102 OFFCURVE",
"178 112 OFFCURVE",
"178 130 CURVE",
"178 495 LINE",
"22 495 LINE",
"22 124 LINE",
"22 38 OFFCURVE",
"44 -7 OFFCURVE",
"132 -7 CURVE"
);
}
);
};
layerId = "8A3706BD-364F-4FE3-9C2E-7E87DF0DB4CC";
paths = (
{
closed = 1;
nodes = (
"175 -7 OFFCURVE",
"211 24 OFFCURVE",
"223 65 CURVE",
"235 0 LINE",
"368 0 LINE",
"368 495 LINE",
"212 495 LINE",
"212 105 LINE",
"208 103 OFFCURVE",
"200 102 OFFCURVE",
"195 102 CURVE SMOOTH",
"184 102 OFFCURVE",
"178 112 OFFCURVE",
"178 130 CURVE SMOOTH",
"178 495 LINE",
"22 495 LINE",
"22 124 LINE SMOOTH",
"22 38 OFFCURVE",
"44 -7 OFFCURVE",
"132 -7 CURVE SMOOTH"
);
}
);
width = 393;
}
);
unicode = 0075;
},
{
color = 4;
glyphname = v;
lastChange = "2021-05-18 01:58:35 +0000";
layers = (
{
background = {
paths = (
{
closed = 1;
nodes = (
"166 0 LINE",
"284 495 LINE",
"265 495 LINE",
"155 33 LINE",
"155 32 LINE",
"155 33 LINE",
"41 495 LINE",
"20 495 LINE",
"144 0 LINE"
);
}
);
};
layerId = "82B1C968-1149-4E0D-B361-F2F5D539D913";
paths = (
{
closed = 1;
nodes = (
"166 0 LINE",
"284 495 LINE",
"265 495 LINE",
"153 25 LINE",
"157 25 LINE",
"41 495 LINE",
"20 495 LINE",
"144 0 LINE"
);
}
);
width = 304;
},
{
background = {
paths = (
{
closed = 1;
nodes = (
"291 0 LINE",
"389 495 LINE",
"241 495 LINE",
"208 207 LINE",
"207 184 LINE",
"206 207 LINE",
"166 495 LINE",
"5 495 LINE",
"104 0 LINE"
);
}
);
};
layerId = "8A3706BD-364F-4FE3-9C2E-7E87DF0DB4CC";
paths = (
{
closed = 1;
nodes = (
"291 0 LINE",
"389 495 LINE",
"241 495 LINE",
"208 174 LINE",
"206 174 LINE",
"166 495 LINE",
"5 495 LINE",
"104 0 LINE"
);
}
);
width = 394;
}
);
unicode = 0076;
},
{
glyphname = w;
lastChange = "2021-05-18 00:20:56 +0000";
layers = (
{
background = {
paths = (
{
closed = 1;
nodes = (
"159 0 LINE",
"260 450 LINE",
"365 0 LINE",
"387 0 LINE",
"498 495 LINE",
"479 495 LINE",
"376 33 LINE",
"269 495 LINE",
"251 495 LINE",
"148 33 LINE",
"41 495 LINE",
"20 495 LINE",
"137 0 LINE"
);
}
);
};
layerId = "82B1C968-1149-4E0D-B361-F2F5D539D913";
paths = (
{
closed = 1;
nodes = (
"159 0 LINE",
"260 450 LINE",
"365 0 LINE",
"387 0 LINE",
"498 495 LINE",
"479 495 LINE",
"376 33 LINE",
"269 495 LINE",
"251 495 LINE",
"148 33 LINE",
"41 495 LINE",
"20 495 LINE",
"137 0 LINE"
);
}
);
width = 518;
},
{
background = {
paths = (
{
closed = 1;
nodes = (
"283 0 LINE",
"313 198 LINE",
"344 0 LINE",
"524 0 LINE",
"622 495 LINE",
"474 495 LINE",
"440 184 LINE",
"389 495 LINE",
"238 495 LINE",
"195 184 LINE",
"153 495 LINE",
"5 495 LINE",
"103 0 LINE"
);
}
);
};
layerId = "8A3706BD-364F-4FE3-9C2E-7E87DF0DB4CC";
paths = (
{
closed = 1;
nodes = (
"283 0 LINE",
"313 198 LINE",
"344 0 LINE",
"524 0 LINE",
"622 495 LINE",
"474 495 LINE",
"440 184 LINE",
"389 495 LINE",
"238 495 LINE",
"195 184 LINE",
"153 495 LINE",
"5 495 LINE",
"103 0 LINE"
);
}
);
width = 627;
}
);
unicode = 0077;
},
{
glyphname = x;
lastChange = "2021-05-18 00:20:56 +0000";
layers = (
{
background = {
paths = (
{
closed = 1;
nodes = (
"40 0 LINE",
"152 241 LINE",
"265 0 LINE",
"285 0 LINE",
"163 264 LINE",
"270 495 LINE",
"249 495 LINE",
"152 286 LINE",
"56 495 LINE",
"35 495 LINE",
"142 264 LINE",
"20 0 LINE"
);
}
);
};
layerId = "82B1C968-1149-4E0D-B361-F2F5D539D913";
paths = (
{
closed = 1;
nodes = (
"40 0 LINE",
"152 241 LINE",
"265 0 LINE",
"285 0 LINE",
"163 264 LINE",
"270 495 LINE",
"249 495 LINE",
"152 286 LINE",
"56 495 LINE",
"35 495 LINE",
"142 264 LINE",
"20 0 LINE"
);
}
);
width = 305;
},
{
background = {
paths = (
{
closed = 1;
nodes = (
"158 0 LINE",
"198 126 LINE",
"227 0 LINE",
"375 0 LINE",
"299 254 LINE",
"383 495 LINE",
"240 495 LINE",
"199 369 LINE",
"171 495 LINE",
"23 495 LINE",
"94 254 LINE",
"5 0 LINE"
);
}
);
};
layerId = "8A3706BD-364F-4FE3-9C2E-7E87DF0DB4CC";
paths = (
{
closed = 1;
nodes = (
"158 0 LINE",
"198 126 LINE",
"227 0 LINE",
"375 0 LINE",
"299 254 LINE",
"383 495 LINE",
"240 495 LINE",
"199 369 LINE",
"171 495 LINE",
"23 495 LINE",
"94 254 LINE",
"5 0 LINE"
);
}
);
width = 388;
}
);
unicode = 0078;
},
{
color = 4;
glyphname = y;
lastChange = "2021-05-18 02:01:40 +0000";
layers = (
{
background = {
paths = (
{
closed = 1;
nodes = (
"12 -114 OFFCURVE",
"22 -118 OFFCURVE",
"43 -118 CURVE",
"110 -118 OFFCURVE",
"147 -75 OFFCURVE",
"163 0 CURVE",
"281 495 LINE",
"262 495 LINE",
"152 33 LINE",
"152 33 LINE",
"152 33 LINE",
"38 495 LINE",
"17 495 LINE",
"142 -3 LINE",
"120 -95 OFFCURVE",
"71 -101 OFFCURVE",
"41 -101 CURVE",
"20 -101 OFFCURVE",
"5 -95 OFFCURVE",
"5 -95 CURVE",
"5 -112 LINE"
);
}
);
};
layerId = "82B1C968-1149-4E0D-B361-F2F5D539D913";
paths = (
{
closed = 1;
nodes = (
"110 -118 OFFCURVE",
"145 -75 OFFCURVE",
"163 0 CURVE SMOOTH",
"281 495 LINE",
"262 495 LINE",
"151 26 LINE",
"153 26 LINE",
"38 495 LINE",
"17 495 LINE",
"142 -3 LINE",
"135 -32 OFFCURVE",
"126 -52 OFFCURVE",
"115 -66 CURVE SMOOTH",
"91 -98 OFFCURVE",
"62 -101 OFFCURVE",
"41 -101 CURVE SMOOTH",
"21 -101 OFFCURVE",
"8 -96 OFFCURVE",
"5 -95 CURVE",
"5 -112 LINE",
"12 -114 OFFCURVE",
"22 -118 OFFCURVE",
"43 -118 CURVE SMOOTH"
);
}
);
width = 301;
},
{
background = {
paths = (
{
closed = 1;
nodes = (
"35 -108 OFFCURVE",
"84 -116 OFFCURVE",
"130 -116 CURVE",
"221 -116 OFFCURVE",
"274 -67 OFFCURVE",
"298 62 CURVE",
"384 495 LINE",
"236 495 LINE",
"199 177 LINE",
"198 154 LINE",
"197 177 LINE",
"161 495 LINE",
"0 495 LINE",
"95 16 LINE",
"103 -27 OFFCURVE",
"73 -27 OFFCURVE",
"49 -27 CURVE",
"36 -27 OFFCURVE",
"10 -21 OFFCURVE",
"10 -21 CURVE",
"10 -101 LINE"
);
}
);
};
layerId = "8A3706BD-364F-4FE3-9C2E-7E87DF0DB4CC";
paths = (
{
closed = 1;
nodes = (
"221 -116 OFFCURVE",
"272 -67 OFFCURVE",
"298 62 CURVE SMOOTH",
"384 495 LINE",
"236 495 LINE",
"199 146 LINE",
"197 146 LINE",
"161 495 LINE",
"0 495 LINE",
"91 34 LINE SMOOTH",
"94 20 OFFCURVE",
"96 10 OFFCURVE",
"96 1 CURVE SMOOTH",
"95 -27 OFFCURVE",
"70 -27 OFFCURVE",
"55 -27 CURVE SMOOTH",
"38 -27 OFFCURVE",
"21 -24 OFFCURVE",
"10 -21 CURVE",
"10 -101 LINE",
"35 -108 OFFCURVE",
"84 -116 OFFCURVE",
"130 -116 CURVE SMOOTH"
);
}
);
width = 389;
}
);
unicode = 0079;
},
{
glyphname = z;
lastChange = "2021-05-18 00:20:56 +0000";
layers = (
{
background = {
paths = (
{
closed = 1;
nodes = (
"227 0 LINE",
"227 18 LINE",
"43 18 LINE",
"227 485 LINE",
"227 495 LINE",
"28 495 LINE",
"28 477 LINE",
"202 477 LINE",
"20 10 LINE",
"20 0 LINE"
);
}
);
};
layerId = "82B1C968-1149-4E0D-B361-F2F5D539D913";
paths = (
{
closed = 1;
nodes = (
"227 0 LINE",
"227 18 LINE",
"43 18 LINE",
"227 485 LINE",
"227 495 LINE",
"28 495 LINE",
"28 477 LINE",
"202 477 LINE",
"20 10 LINE",
"20 0 LINE"
);
}
);
width = 247;
},
{
background = {
paths = (
{
closed = 1;
nodes = (
"304 0 LINE",
"304 105 LINE",
"192 105 LINE",
"304 429 LINE",
"304 495 LINE",
"25 495 LINE",
"25 396 LINE",
"128 396 LINE",
"10 60 LINE",
"10 0 LINE"
);
}
);
};
layerId = "8A3706BD-364F-4FE3-9C2E-7E87DF0DB4CC";
paths = (
{
closed = 1;
nodes = (
"304 0 LINE",
"304 105 LINE",
"192 105 LINE",
"304 429 LINE",
"304 495 LINE",
"25 495 LINE",
"25 396 LINE",
"128 396 LINE",
"10 60 LINE",
"10 0 LINE"
);
}
);
width = 314;
}
);
unicode = 007A;
},
{
glyphname = f_f;
lastChange = "2021-05-18 00:21:04 +0000";
layers = (
{
background = {
paths = (
{
closed = 1;
nodes = (
"414 619 OFFCURVE",
"452 614 OFFCURVE",
"452 614 CURVE",
"452 632 LINE",
"437 634 OFFCURVE",
"406 636 OFFCURVE",
"381 636 CURVE SMOOTH",
"329 636 OFFCURVE",
"307 602 OFFCURVE",
"307 547 CURVE SMOOTH",
"307 476 LINE",
"90 476 LINE",
"90 544 LINE SMOOTH",
"90 579 OFFCURVE",
"103 619 OFFCURVE",
"144 619 CURVE SMOOTH",
"178 619 OFFCURVE",
"216 614 OFFCURVE",
"216 614 CURVE",
"216 632 LINE",
"201 634 OFFCURVE",
"170 636 OFFCURVE",
"145 636 CURVE SMOOTH",
"93 636 OFFCURVE",
"71 602 OFFCURVE",
"71 547 CURVE SMOOTH",
"71 476 LINE",
"40 476 LINE",
"40 459 LINE",
"71 459 LINE",
"71 0 LINE",
"90 0 LINE",
"90 459 LINE",
"307 459 LINE",
"307 0 LINE",
"326 0 LINE",
"326 459 LINE",
"452 459 LINE",
"452 476 LINE",
"326 476 LINE",
"326 544 LINE SMOOTH",
"326 579 OFFCURVE",
"339 619 OFFCURVE",
"380 619 CURVE SMOOTH"
);
}
);
};
layerId = "82B1C968-1149-4E0D-B361-F2F5D539D913";
paths = (
{
closed = 1;
nodes = (
"90 0 LINE",
"90 459 LINE",
"307 459 LINE",
"307 0 LINE",
"326 0 LINE",
"326 459 LINE",
"452 459 LINE",
"452 476 LINE",
"326 476 LINE",
"326 544 LINE SMOOTH",
"326 579 OFFCURVE",
"339 619 OFFCURVE",
"380 619 CURVE SMOOTH",
"414 619 OFFCURVE",
"452 614 OFFCURVE",
"452 614 CURVE",
"452 632 LINE",
"437 634 OFFCURVE",
"406 636 OFFCURVE",
"381 636 CURVE SMOOTH",
"329 636 OFFCURVE",
"307 602 OFFCURVE",
"307 547 CURVE SMOOTH",
"307 476 LINE",
"90 476 LINE",
"90 544 LINE SMOOTH",
"90 579 OFFCURVE",
"103 619 OFFCURVE",
"144 619 CURVE SMOOTH",
"178 619 OFFCURVE",
"216 614 OFFCURVE",
"216 614 CURVE",
"216 632 LINE",
"201 634 OFFCURVE",
"170 636 OFFCURVE",
"145 636 CURVE SMOOTH",
"93 636 OFFCURVE",
"71 602 OFFCURVE",
"71 547 CURVE SMOOTH",
"71 476 LINE",
"40 476 LINE",
"40 459 LINE",
"71 459 LINE",
"71 0 LINE"
);
}
);
width = 472;
},
{
background = {
paths = (
{
closed = 1;
nodes = (
"554 557 OFFCURVE",
"581 554 OFFCURVE",
"581 554 CURVE",
"581 624 LINE",
"572 624 OFFCURVE",
"514 630 OFFCURVE",
"469 630 CURVE SMOOTH",
"414 630 OFFCURVE",
"345 624 OFFCURVE",
"345 512 CURVE SMOOTH",
"345 476 LINE",
"203 476 LINE",
"203 513 LINE SMOOTH",
"203 533 OFFCURVE",
"208 557 OFFCURVE",
"230 557 CURVE SMOOTH",
"256 557 OFFCURVE",
"283 554 OFFCURVE",
"283 554 CURVE",
"283 624 LINE",
"274 624 OFFCURVE",
"216 630 OFFCURVE",
"171 630 CURVE SMOOTH",
"116 630 OFFCURVE",
"47 624 OFFCURVE",
"47 512 CURVE SMOOTH",
"47 476 LINE",
"15 476 LINE",
"15 389 LINE",
"47 389 LINE",
"47 0 LINE",
"203 0 LINE",
"203 389 LINE",
"345 389 LINE",
"345 0 LINE",
"501 0 LINE",
"501 389 LINE",
"581 389 LINE",
"581 476 LINE",
"501 476 LINE",
"501 513 LINE SMOOTH",
"501 533 OFFCURVE",
"506 557 OFFCURVE",
"528 557 CURVE SMOOTH"
);
}
);
};
layerId = "8A3706BD-364F-4FE3-9C2E-7E87DF0DB4CC";
paths = (
{
closed = 1;
nodes = (
"203 0 LINE",
"203 389 LINE",
"345 389 LINE",
"345 0 LINE",
"501 0 LINE",
"501 389 LINE",
"581 389 LINE",
"581 476 LINE",
"501 476 LINE",
"501 513 LINE SMOOTH",
"501 533 OFFCURVE",
"506 557 OFFCURVE",
"528 557 CURVE SMOOTH",
"554 557 OFFCURVE",
"581 554 OFFCURVE",
"581 554 CURVE",
"581 624 LINE",
"572 624 OFFCURVE",
"514 630 OFFCURVE",
"469 630 CURVE SMOOTH",
"414 630 OFFCURVE",
"345 624 OFFCURVE",
"345 512 CURVE SMOOTH",
"345 476 LINE",
"203 476 LINE",
"203 513 LINE SMOOTH",
"203 533 OFFCURVE",
"208 557 OFFCURVE",
"230 557 CURVE SMOOTH",
"256 557 OFFCURVE",
"283 554 OFFCURVE",
"283 554 CURVE",
"283 624 LINE",
"274 624 OFFCURVE",
"216 630 OFFCURVE",
"171 630 CURVE SMOOTH",
"116 630 OFFCURVE",
"47 624 OFFCURVE",
"47 512 CURVE SMOOTH",
"47 476 LINE",
"15 476 LINE",
"15 389 LINE",
"47 389 LINE",
"47 0 LINE"
);
}
);
width = 596;
}
);
leftMetricsKey = f;
rightMetricsKey = f;
},
{
glyphname = f_f_i;
lastChange = "2021-05-18 00:20:56 +0000";
layers = (
{
background = {
paths = (
{
closed = 1;
nodes = (
"90 0 LINE",
"90 459 LINE",
"307 459 LINE",
"307 0 LINE",
"326 0 LINE",
"326 459 LINE",
"538 459 LINE",
"538 0 LINE",
"557 0 LINE",
"557 476 LINE",
"326 476 LINE",
"326 544 LINE SMOOTH",
"326 579 OFFCURVE",
"339 619 OFFCURVE",
"415 619 CURVE SMOOTH",
"455 619 OFFCURVE",
"522 607 OFFCURVE",
"557 596 CURVE",
"557 614 LINE",
"497 636 OFFCURVE",
"441 636 OFFCURVE",
"415 636 CURVE SMOOTH",
"329 636 OFFCURVE",
"307 602 OFFCURVE",
"307 547 CURVE SMOOTH",
"307 476 LINE",
"90 476 LINE",
"90 544 LINE SMOOTH",
"90 579 OFFCURVE",
"103 619 OFFCURVE",
"144 619 CURVE SMOOTH",
"178 619 OFFCURVE",
"216 614 OFFCURVE",
"216 614 CURVE",
"216 632 LINE",
"201 634 OFFCURVE",
"170 636 OFFCURVE",
"145 636 CURVE SMOOTH",
"93 636 OFFCURVE",
"71 602 OFFCURVE",
"71 547 CURVE SMOOTH",
"71 476 LINE",
"40 476 LINE",
"40 459 LINE",
"71 459 LINE",
"71 0 LINE"
);
}
);
};
layerId = "82B1C968-1149-4E0D-B361-F2F5D539D913";
paths = (
{
closed = 1;
nodes = (
"90 0 LINE",
"90 459 LINE",
"307 459 LINE",
"307 0 LINE",
"326 0 LINE",
"326 459 LINE",
"538 459 LINE",
"538 0 LINE",
"557 0 LINE",
"557 476 LINE",
"326 476 LINE",
"326 544 LINE SMOOTH",
"326 579 OFFCURVE",
"339 619 OFFCURVE",
"415 619 CURVE SMOOTH",
"455 619 OFFCURVE",
"522 607 OFFCURVE",
"557 596 CURVE",
"557 614 LINE",
"497 636 OFFCURVE",
"441 636 OFFCURVE",
"415 636 CURVE SMOOTH",
"329 636 OFFCURVE",
"307 602 OFFCURVE",
"307 547 CURVE SMOOTH",
"307 476 LINE",
"90 476 LINE",
"90 544 LINE SMOOTH",
"90 579 OFFCURVE",
"103 619 OFFCURVE",
"144 619 CURVE SMOOTH",
"178 619 OFFCURVE",
"216 614 OFFCURVE",
"216 614 CURVE",
"216 632 LINE",
"201 634 OFFCURVE",
"170 636 OFFCURVE",
"145 636 CURVE SMOOTH",
"93 636 OFFCURVE",
"71 602 OFFCURVE",
"71 547 CURVE SMOOTH",
"71 476 LINE",
"40 476 LINE",
"40 459 LINE",
"71 459 LINE",
"71 0 LINE"
);
}
);
width = 617;
},
{
background = {
paths = (
{
closed = 1;
nodes = (
"203 0 LINE",
"203 389 LINE",
"345 389 LINE",
"345 0 LINE",
"501 0 LINE",
"501 389 LINE",
"626 389 LINE",
"626 0 LINE",
"782 0 LINE",
"782 476 LINE",
"501 476 LINE",
"501 513 LINE SMOOTH",
"501 533 OFFCURVE",
"506 557 OFFCURVE",
"555 557 CURVE SMOOTH",
"610 557 OFFCURVE",
"682 550 OFFCURVE",
"710 539 CURVE",
"710 609 LINE",
"652 630 OFFCURVE",
"572 630 OFFCURVE",
"540 630 CURVE SMOOTH",
"414 630 OFFCURVE",
"345 624 OFFCURVE",
"345 512 CURVE SMOOTH",
"345 476 LINE",
"203 476 LINE",
"203 513 LINE SMOOTH",
"203 533 OFFCURVE",
"208 557 OFFCURVE",
"230 557 CURVE SMOOTH",
"256 557 OFFCURVE",
"283 554 OFFCURVE",
"283 554 CURVE",
"283 624 LINE",
"274 624 OFFCURVE",
"216 630 OFFCURVE",
"171 630 CURVE SMOOTH",
"116 630 OFFCURVE",
"47 624 OFFCURVE",
"47 512 CURVE SMOOTH",
"47 476 LINE",
"15 476 LINE",
"15 389 LINE",
"47 389 LINE",
"47 0 LINE"
);
}
);
};
layerId = "8A3706BD-364F-4FE3-9C2E-7E87DF0DB4CC";
paths = (
{
closed = 1;
nodes = (
"203 0 LINE",
"203 389 LINE",
"345 389 LINE",
"345 0 LINE",
"501 0 LINE",
"501 389 LINE",
"626 389 LINE",
"626 0 LINE",
"782 0 LINE",
"782 476 LINE",
"501 476 LINE",
"501 513 LINE SMOOTH",
"501 533 OFFCURVE",
"506 557 OFFCURVE",
"555 557 CURVE SMOOTH",
"610 557 OFFCURVE",
"682 550 OFFCURVE",
"710 539 CURVE",
"710 609 LINE",
"652 630 OFFCURVE",
"572 630 OFFCURVE",
"540 630 CURVE SMOOTH",
"414 630 OFFCURVE",
"345 624 OFFCURVE",
"345 512 CURVE SMOOTH",
"345 476 LINE",
"203 476 LINE",
"203 513 LINE SMOOTH",
"203 533 OFFCURVE",
"208 557 OFFCURVE",
"230 557 CURVE SMOOTH",
"256 557 OFFCURVE",
"283 554 OFFCURVE",
"283 554 CURVE",
"283 624 LINE",
"274 624 OFFCURVE",
"216 630 OFFCURVE",
"171 630 CURVE SMOOTH",
"116 630 OFFCURVE",
"47 624 OFFCURVE",
"47 512 CURVE SMOOTH",
"47 476 LINE",
"15 476 LINE",
"15 389 LINE",
"47 389 LINE",
"47 0 LINE"
);
}
);
width = 812;
}
);
leftMetricsKey = f;
rightMetricsKey = i;
},
{
glyphname = longs_t;
lastChange = "2021-05-18 00:20:59 +0000";
layers = (
{
background = {
paths = (
{
closed = 1;
nodes = (
"133 -147 OFFCURVE",
"155 -114 OFFCURVE",
"155 -58 CURVE SMOOTH",
"155 544 LINE SMOOTH",
"155 579 OFFCURVE",
"168 619 OFFCURVE",
"209 619 CURVE SMOOTH",
"246 619 OFFCURVE",
"315 611 OFFCURVE",
"343 606 CURVE",
"347 617 LINE",
"317 624 OFFCURVE",
"246 636 OFFCURVE",
"210 636 CURVE SMOOTH",
"158 636 OFFCURVE",
"136 603 OFFCURVE",
"136 547 CURVE SMOOTH",
"136 440 LINE",
"105 440 LINE",
"105 422 LINE",
"136 422 LINE",
"136 -55 LINE SMOOTH",
"136 -90 OFFCURVE",
"123 -130 OFFCURVE",
"82 -130 CURVE SMOOTH",
"65 -130 OFFCURVE",
"48 -129 OFFCURVE",
"33 -128 CURVE SMOOTH",
"10 -125 LINE",
"10 -143 LINE",
"25 -146 OFFCURVE",
"56 -147 OFFCURVE",
"81 -147 CURVE SMOOTH"
);
},
{
closed = 1;
nodes = (
"427 0 OFFCURVE",
"450 2 OFFCURVE",
"465 4 CURVE",
"465 21 LINE",
"451 20 OFFCURVE",
"429 18 OFFCURVE",
"409 18 CURVE",
"360 18 OFFCURVE",
"347 48 OFFCURVE",
"347 93 CURVE",
"347 478 LINE",
"465 478 LINE",
"465 495 LINE",
"347 495 LINE",
"347 617 LINE",
"335 617 LINE",
"328 495 LINE",
"287 488 LINE",
"287 478 LINE",
"328 478 LINE",
"328 89 LINE",
"328 33 OFFCURVE",
"347 0 OFFCURVE",
"402 0 CURVE"
);
}
);
};
layerId = "82B1C968-1149-4E0D-B361-F2F5D539D913";
paths = (
{
closed = 1;
nodes = (
"133 -147 OFFCURVE",
"155 -114 OFFCURVE",
"155 -58 CURVE SMOOTH",
"155 544 LINE SMOOTH",
"155 579 OFFCURVE",
"168 619 OFFCURVE",
"209 619 CURVE SMOOTH",
"246 619 OFFCURVE",
"315 611 OFFCURVE",
"343 606 CURVE",
"347 617 LINE",
"317 624 OFFCURVE",
"246 636 OFFCURVE",
"210 636 CURVE SMOOTH",
"158 636 OFFCURVE",
"136 603 OFFCURVE",
"136 547 CURVE SMOOTH",
"136 440 LINE",
"105 440 LINE",
"105 422 LINE",
"136 422 LINE",
"136 -55 LINE SMOOTH",
"136 -90 OFFCURVE",
"123 -130 OFFCURVE",
"82 -130 CURVE SMOOTH",
"65 -130 OFFCURVE",
"48 -129 OFFCURVE",
"33 -128 CURVE SMOOTH",
"10 -125 LINE",
"10 -143 LINE",
"25 -146 OFFCURVE",
"56 -147 OFFCURVE",
"81 -147 CURVE SMOOTH"
);
},
{
closed = 1;
nodes = (
"427 0 OFFCURVE",
"450 2 OFFCURVE",
"465 4 CURVE",
"465 21 LINE",
"451 20 OFFCURVE",
"429 18 OFFCURVE",
"409 18 CURVE SMOOTH",
"360 18 OFFCURVE",
"347 48 OFFCURVE",
"347 93 CURVE SMOOTH",
"347 478 LINE",
"465 478 LINE",
"465 495 LINE",
"347 495 LINE",
"347 617 LINE",
"335 617 LINE",
"328 495 LINE",
"287 488 LINE",
"287 478 LINE",
"328 478 LINE",
"328 89 LINE SMOOTH",
"328 33 OFFCURVE",
"347 0 OFFCURVE",
"402 0 CURVE SMOOTH"
);
}
);
width = 485;
},
{
background = {
paths = (
{
closed = 1;
nodes = (
"175 -135 OFFCURVE",
"241 -89 OFFCURVE",
"241 39 CURVE SMOOTH",
"241 490 LINE SMOOTH",
"241 510 OFFCURVE",
"245 536 OFFCURVE",
"268 540 CURVE SMOOTH",
"325 549 OFFCURVE",
"378 540 OFFCURVE",
"410 537 CURVE SMOOTH",
"421 610 LINE SMOOTH",
"392 617 OFFCURVE",
"290 630 OFFCURVE",
"256 630 CURVE SMOOTH",
"165 630 OFFCURVE",
"84 624 OFFCURVE",
"84 512 CURVE SMOOTH",
"84 440 LINE",
"41 440 LINE",
"41 350 LINE",
"84 350 LINE",
"84 -25 LINE",
"82 -34 OFFCURVE",
"76 -42 OFFCURVE",
"69 -48 CURVE SMOOTH",
"61 -55 OFFCURVE",
"51 -59 OFFCURVE",
"41 -59 CURVE SMOOTH",
"5 -59 LINE",
"5 -136 LINE",
"35 -142 OFFCURVE",
"66 -144 OFFCURVE",
"94 -142 CURVE SMOOTH"
);
},
{
closed = 1;
nodes = (
"581 -5 OFFCURVE",
"626 9 OFFCURVE",
"626 9 CURVE SMOOTH",
"626 101 LINE SMOOTH",
"626 101 OFFCURVE",
"595 98 OFFCURVE",
"579 98 CURVE SMOOTH",
"547 98 OFFCURVE",
"542 122 OFFCURVE",
"542 142 CURVE SMOOTH",
"542 405 LINE",
"626 405 LINE",
"626 495 LINE",
"542 495 LINE",
"542 610 LINE",
"421 610 LINE",
"400 495 LINE",
"337 472 LINE",
"337 405 LINE",
"386 405 LINE",
"386 115 LINE SMOOTH",
"386 3 OFFCURVE",
"471 -5 OFFCURVE",
"536 -5 CURVE SMOOTH"
);
}
);
};
layerId = "8A3706BD-364F-4FE3-9C2E-7E87DF0DB4CC";
paths = (
{
closed = 1;
nodes = (
"175 -135 OFFCURVE",
"241 -89 OFFCURVE",
"241 39 CURVE SMOOTH",
"241 490 LINE SMOOTH",
"241 510 OFFCURVE",
"245 536 OFFCURVE",
"268 540 CURVE SMOOTH",
"325 549 OFFCURVE",
"378 540 OFFCURVE",
"410 537 CURVE",
"421 610 LINE",
"392 617 OFFCURVE",
"290 630 OFFCURVE",
"256 630 CURVE SMOOTH",
"165 630 OFFCURVE",
"84 624 OFFCURVE",
"84 512 CURVE SMOOTH",
"84 440 LINE",
"41 440 LINE",
"41 350 LINE",
"84 350 LINE",
"84 -25 LINE",
"82 -34 OFFCURVE",
"76 -42 OFFCURVE",
"69 -48 CURVE SMOOTH",
"61 -55 OFFCURVE",
"51 -59 OFFCURVE",
"41 -59 CURVE SMOOTH",
"5 -59 LINE",
"5 -136 LINE",
"35 -142 OFFCURVE",
"66 -144 OFFCURVE",
"94 -142 CURVE SMOOTH"
);
},
{
closed = 1;
nodes = (
"581 -5 OFFCURVE",
"626 9 OFFCURVE",
"626 9 CURVE",
"626 101 LINE",
"626 101 OFFCURVE",
"595 98 OFFCURVE",
"579 98 CURVE SMOOTH",
"547 98 OFFCURVE",
"542 122 OFFCURVE",
"542 142 CURVE SMOOTH",
"542 405 LINE",
"626 405 LINE",
"626 495 LINE",
"542 495 LINE",
"542 610 LINE",
"421 610 LINE",
"400 495 LINE",
"337 472 LINE",
"337 405 LINE",
"386 405 LINE",
"386 115 LINE SMOOTH",
"386 3 OFFCURVE",
"471 -5 OFFCURVE",
"536 -5 CURVE SMOOTH"
);
}
);
width = 641;
}
);
leftMetricsKey = longs;
rightMetricsKey = t;
},
